%TF.GenerationSoftware,KiCad,Pcbnew,9.0.3*%
%TF.CreationDate,2026-01-18T14:54:31+02:00*%
%TF.ProjectId,velux-controller,76656c75-782d-4636-9f6e-74726f6c6c65,rev?*%
%TF.SameCoordinates,Original*%
%TF.FileFunction,Legend,Top*%
%TF.FilePolarity,Positive*%
%FSLAX46Y46*%
G04 Gerber Fmt 4.6, Leading zero omitted, Abs format (unit mm)*
G04 Created by KiCad (PCBNEW 9.0.3) date 2026-01-18 14:54:31*
%MOMM*%
%LPD*%
G01*
G04 APERTURE LIST*
G04 Aperture macros list*
%AMRoundRect*
0 Rectangle with rounded corners*
0 $1 Rounding radius*
0 $2 $3 $4 $5 $6 $7 $8 $9 X,Y pos of 4 corners*
0 Add a 4 corners polygon primitive as box body*
4,1,4,$2,$3,$4,$5,$6,$7,$8,$9,$2,$3,0*
0 Add four circle primitives for the rounded corners*
1,1,$1+$1,$2,$3*
1,1,$1+$1,$4,$5*
1,1,$1+$1,$6,$7*
1,1,$1+$1,$8,$9*
0 Add four rect primitives between the rounded corners*
20,1,$1+$1,$2,$3,$4,$5,0*
20,1,$1+$1,$4,$5,$6,$7,0*
20,1,$1+$1,$6,$7,$8,$9,0*
20,1,$1+$1,$8,$9,$2,$3,0*%
G04 Aperture macros list end*
%ADD10C,0.016000*%
%ADD11C,0.150000*%
%ADD12C,0.200000*%
%ADD13C,0.120000*%
%ADD14C,0.160000*%
%ADD15R,1.200000X1.600000*%
%ADD16RoundRect,0.250000X-0.475000X0.250000X-0.475000X-0.250000X0.475000X-0.250000X0.475000X0.250000X0*%
%ADD17RoundRect,0.150000X0.150000X-0.587500X0.150000X0.587500X-0.150000X0.587500X-0.150000X-0.587500X0*%
%ADD18RoundRect,0.200000X0.275000X-0.200000X0.275000X0.200000X-0.275000X0.200000X-0.275000X-0.200000X0*%
%ADD19C,2.200000*%
%ADD20RoundRect,0.200000X-0.200000X-0.275000X0.200000X-0.275000X0.200000X0.275000X-0.200000X0.275000X0*%
%ADD21RoundRect,0.200000X-0.275000X0.200000X-0.275000X-0.200000X0.275000X-0.200000X0.275000X0.200000X0*%
%ADD22R,1.000000X2.500000*%
%ADD23R,1.800000X1.000000*%
%ADD24RoundRect,0.250000X0.725000X-0.600000X0.725000X0.600000X-0.725000X0.600000X-0.725000X-0.600000X0*%
%ADD25O,1.950000X1.700000*%
%ADD26R,1.500000X2.000000*%
%ADD27R,3.800000X2.000000*%
%ADD28R,1.200000X1.200000*%
%ADD29C,1.200000*%
%ADD30R,1.600000X1.600000*%
%ADD31C,1.600000*%
%ADD32R,4.500000X3.000000*%
%ADD33RoundRect,0.750000X1.000000X-0.750000X1.000000X0.750000X-1.000000X0.750000X-1.000000X-0.750000X0*%
%ADD34RoundRect,0.750000X0.750000X-1.000000X0.750000X1.000000X-0.750000X1.000000X-0.750000X-1.000000X0*%
%ADD35RoundRect,0.250000X0.537500X0.425000X-0.537500X0.425000X-0.537500X-0.425000X0.537500X-0.425000X0*%
%ADD36RoundRect,0.200000X0.335876X0.053033X0.053033X0.335876X-0.335876X-0.053033X-0.053033X-0.335876X0*%
%ADD37RoundRect,0.250000X0.750000X-0.600000X0.750000X0.600000X-0.750000X0.600000X-0.750000X-0.600000X0*%
%ADD38O,2.000000X1.700000*%
%ADD39RoundRect,0.250000X-0.250000X-0.475000X0.250000X-0.475000X0.250000X0.475000X-0.250000X0.475000X0*%
%ADD40R,1.700000X1.700000*%
%ADD41O,1.700000X1.700000*%
G04 APERTURE END LIST*
D10*
X192045568Y-81729080D02*
X191844190Y-82039066D01*
X191624820Y-82335555D01*
X191388225Y-82617776D01*
X191135175Y-82884958D01*
X190866436Y-83136333D01*
X190582778Y-83371129D01*
X190284968Y-83588577D01*
X189973775Y-83787906D01*
X189649966Y-83968346D01*
X189314310Y-84129127D01*
X188967574Y-84269479D01*
X188610528Y-84388631D01*
X188243938Y-84485814D01*
X187868574Y-84560257D01*
X187485203Y-84611189D01*
X187094594Y-84637842D01*
X188771184Y-81733793D01*
X190409740Y-78895682D01*
X192045568Y-81729080D01*
G36*
X192045568Y-81729080D02*
G01*
X191844190Y-82039066D01*
X191624820Y-82335555D01*
X191388225Y-82617776D01*
X191135175Y-82884958D01*
X190866436Y-83136333D01*
X190582778Y-83371129D01*
X190284968Y-83588577D01*
X189973775Y-83787906D01*
X189649966Y-83968346D01*
X189314310Y-84129127D01*
X188967574Y-84269479D01*
X188610528Y-84388631D01*
X188243938Y-84485814D01*
X187868574Y-84560257D01*
X187485203Y-84611189D01*
X187094594Y-84637842D01*
X188771184Y-81733793D01*
X190409740Y-78895682D01*
X192045568Y-81729080D01*
G37*
X187905004Y-80619980D02*
X187388778Y-81514023D01*
X186356448Y-81514023D01*
X185840304Y-80619980D01*
X186356448Y-79725936D01*
X187388778Y-79725936D01*
X187905004Y-80619980D01*
G36*
X187905004Y-80619980D02*
G01*
X187388778Y-81514023D01*
X186356448Y-81514023D01*
X185840304Y-80619980D01*
X186356448Y-79725936D01*
X187388778Y-79725936D01*
X187905004Y-80619980D01*
G37*
X186745922Y-84641315D02*
X186549115Y-84634090D01*
X186353976Y-84620657D01*
X186160600Y-84601111D01*
X185969083Y-84575551D01*
X185779521Y-84544071D01*
X185592008Y-84506768D01*
X185406642Y-84463738D01*
X185223517Y-84415079D01*
X185042729Y-84360886D01*
X184864373Y-84301256D01*
X184688546Y-84236285D01*
X184515342Y-84166069D01*
X184177188Y-84010290D01*
X183850675Y-83834689D01*
X183536569Y-83640037D01*
X183235633Y-83427106D01*
X182948634Y-83196667D01*
X182676334Y-82949489D01*
X182419500Y-82686346D01*
X182178895Y-82408007D01*
X181955284Y-82115244D01*
X181749432Y-81808827D01*
X188381171Y-81808827D01*
X186745922Y-84641315D01*
G36*
X186745922Y-84641315D02*
G01*
X186549115Y-84634090D01*
X186353976Y-84620657D01*
X186160600Y-84601111D01*
X185969083Y-84575551D01*
X185779521Y-84544071D01*
X185592008Y-84506768D01*
X185406642Y-84463738D01*
X185223517Y-84415079D01*
X185042729Y-84360886D01*
X184864373Y-84301256D01*
X184688546Y-84236285D01*
X184515342Y-84166069D01*
X184177188Y-84010290D01*
X183850675Y-83834689D01*
X183536569Y-83640037D01*
X183235633Y-83427106D01*
X182948634Y-83196667D01*
X182676334Y-82949489D01*
X182419500Y-82686346D01*
X182178895Y-82408007D01*
X181955284Y-82115244D01*
X181749432Y-81808827D01*
X188381171Y-81808827D01*
X186745922Y-84641315D01*
G37*
X186186494Y-79598977D02*
X185670144Y-80493021D01*
X184637855Y-80493021D01*
X184121711Y-79598977D01*
X184637855Y-78704851D01*
X185670144Y-78704851D01*
X186186494Y-79598977D01*
G36*
X186186494Y-79598977D02*
G01*
X185670144Y-80493021D01*
X184637855Y-80493021D01*
X184121711Y-79598977D01*
X184637855Y-78704851D01*
X185670144Y-78704851D01*
X186186494Y-79598977D01*
G37*
X184974165Y-75457297D02*
X183335568Y-78295284D01*
X181699616Y-75461928D01*
X181901011Y-75151945D01*
X182120397Y-74855461D01*
X182357006Y-74573246D01*
X182610070Y-74306070D01*
X182878823Y-74054704D01*
X183162494Y-73819916D01*
X183460317Y-73602478D01*
X183771524Y-73403159D01*
X184095347Y-73222728D01*
X184431017Y-73061957D01*
X184777767Y-72921615D01*
X185134829Y-72802472D01*
X185501435Y-72705297D01*
X185876818Y-72630862D01*
X186260208Y-72579936D01*
X186650838Y-72553289D01*
X184974165Y-75457297D01*
G36*
X184974165Y-75457297D02*
G01*
X183335568Y-78295284D01*
X181699616Y-75461928D01*
X181901011Y-75151945D01*
X182120397Y-74855461D01*
X182357006Y-74573246D01*
X182610070Y-74306070D01*
X182878823Y-74054704D01*
X183162494Y-73819916D01*
X183460317Y-73602478D01*
X183771524Y-73403159D01*
X184095347Y-73222728D01*
X184431017Y-73061957D01*
X184777767Y-72921615D01*
X185134829Y-72802472D01*
X185501435Y-72705297D01*
X185876818Y-72630862D01*
X186260208Y-72579936D01*
X186650838Y-72553289D01*
X184974165Y-75457297D01*
G37*
X192260358Y-75845993D02*
X192342371Y-76012433D01*
X192419416Y-76181672D01*
X192491390Y-76353620D01*
X192558192Y-76528186D01*
X192619720Y-76705281D01*
X192675872Y-76884815D01*
X192726545Y-77066697D01*
X192771639Y-77250838D01*
X192811051Y-77437148D01*
X192844679Y-77625536D01*
X192872422Y-77815912D01*
X192894177Y-78008187D01*
X192909842Y-78202271D01*
X192919316Y-78398073D01*
X192922497Y-78595504D01*
X192919505Y-78786740D01*
X192910592Y-78976441D01*
X192895853Y-79164524D01*
X192875383Y-79350910D01*
X192849277Y-79535519D01*
X192817629Y-79718270D01*
X192780534Y-79899083D01*
X192738088Y-80077877D01*
X192690384Y-80254573D01*
X192637517Y-80429089D01*
X192579583Y-80601346D01*
X192516676Y-80771263D01*
X192448891Y-80938760D01*
X192376323Y-81103756D01*
X192299066Y-81266172D01*
X192217216Y-81425926D01*
X190539717Y-78520428D01*
X188901160Y-75682441D01*
X192173478Y-75682441D01*
X192260358Y-75845993D01*
G36*
X192260358Y-75845993D02*
G01*
X192342371Y-76012433D01*
X192419416Y-76181672D01*
X192491390Y-76353620D01*
X192558192Y-76528186D01*
X192619720Y-76705281D01*
X192675872Y-76884815D01*
X192726545Y-77066697D01*
X192771639Y-77250838D01*
X192811051Y-77437148D01*
X192844679Y-77625536D01*
X192872422Y-77815912D01*
X192894177Y-78008187D01*
X192909842Y-78202271D01*
X192919316Y-78398073D01*
X192922497Y-78595504D01*
X192919505Y-78786740D01*
X192910592Y-78976441D01*
X192895853Y-79164524D01*
X192875383Y-79350910D01*
X192849277Y-79535519D01*
X192817629Y-79718270D01*
X192780534Y-79899083D01*
X192738088Y-80077877D01*
X192690384Y-80254573D01*
X192637517Y-80429089D01*
X192579583Y-80601346D01*
X192516676Y-80771263D01*
X192448891Y-80938760D01*
X192376323Y-81103756D01*
X192299066Y-81266172D01*
X192217216Y-81425926D01*
X190539717Y-78520428D01*
X188901160Y-75682441D01*
X192173478Y-75682441D01*
X192260358Y-75845993D01*
G37*
X187905046Y-76553417D02*
X187388778Y-77447461D01*
X186356448Y-77447461D01*
X185840304Y-76553417D01*
X186356448Y-75659332D01*
X187388778Y-75659332D01*
X187905046Y-76553417D01*
G36*
X187905046Y-76553417D02*
G01*
X187388778Y-77447461D01*
X186356448Y-77447461D01*
X185840304Y-76553417D01*
X186356448Y-75659332D01*
X187388778Y-75659332D01*
X187905046Y-76553417D01*
G37*
X183205550Y-78670580D02*
X184844148Y-81508649D01*
X181571789Y-81508649D01*
X181484912Y-81345103D01*
X181402902Y-81178667D01*
X181325861Y-81009431D01*
X181253890Y-80837486D01*
X181187091Y-80662920D01*
X181125567Y-80485824D01*
X181069418Y-80306289D01*
X181018748Y-80124404D01*
X180973657Y-79940259D01*
X180934248Y-79753945D01*
X180900622Y-79565552D01*
X180872882Y-79375169D01*
X180851129Y-79182887D01*
X180835465Y-78988795D01*
X180825992Y-78792985D01*
X180822812Y-78595545D01*
X180825804Y-78404320D01*
X180834717Y-78214630D01*
X180849457Y-78026555D01*
X180869928Y-77840176D01*
X180896035Y-77655572D01*
X180927683Y-77472825D01*
X180964778Y-77292014D01*
X181007224Y-77113220D01*
X181054927Y-76936523D01*
X181107791Y-76762004D01*
X181165722Y-76589744D01*
X181228624Y-76419821D01*
X181296403Y-76252318D01*
X181368964Y-76087313D01*
X181446211Y-75924889D01*
X181528050Y-75765124D01*
X183205550Y-78670580D01*
G36*
X183205550Y-78670580D02*
G01*
X184844148Y-81508649D01*
X181571789Y-81508649D01*
X181484912Y-81345103D01*
X181402902Y-81178667D01*
X181325861Y-81009431D01*
X181253890Y-80837486D01*
X181187091Y-80662920D01*
X181125567Y-80485824D01*
X181069418Y-80306289D01*
X181018748Y-80124404D01*
X180973657Y-79940259D01*
X180934248Y-79753945D01*
X180900622Y-79565552D01*
X180872882Y-79375169D01*
X180851129Y-79182887D01*
X180835465Y-78988795D01*
X180825992Y-78792985D01*
X180822812Y-78595545D01*
X180825804Y-78404320D01*
X180834717Y-78214630D01*
X180849457Y-78026555D01*
X180869928Y-77840176D01*
X180896035Y-77655572D01*
X180927683Y-77472825D01*
X180964778Y-77292014D01*
X181007224Y-77113220D01*
X181054927Y-76936523D01*
X181107791Y-76762004D01*
X181165722Y-76589744D01*
X181228624Y-76419821D01*
X181296403Y-76252318D01*
X181368964Y-76087313D01*
X181446211Y-75924889D01*
X181528050Y-75765124D01*
X183205550Y-78670580D01*
G37*
X186186329Y-77556848D02*
X185670061Y-78450851D01*
X184637731Y-78450851D01*
X184121628Y-77556848D01*
X184637772Y-76662764D01*
X185670102Y-76662764D01*
X186186329Y-77556848D01*
G36*
X186186329Y-77556848D02*
G01*
X185670061Y-78450851D01*
X184637731Y-78450851D01*
X184121628Y-77556848D01*
X184637772Y-76662764D01*
X185670102Y-76662764D01*
X186186329Y-77556848D01*
G37*
X189640960Y-77556848D02*
X189124692Y-78450851D01*
X188092404Y-78450851D01*
X187576301Y-77556848D01*
X188092404Y-76662764D01*
X189124692Y-76662764D01*
X189640960Y-77556848D01*
G36*
X189640960Y-77556848D02*
G01*
X189124692Y-78450851D01*
X188092404Y-78450851D01*
X187576301Y-77556848D01*
X188092404Y-76662764D01*
X189124692Y-76662764D01*
X189640960Y-77556848D01*
G37*
X189641084Y-79598977D02*
X189124692Y-80493021D01*
X188092404Y-80493021D01*
X187576301Y-79598977D01*
X188092404Y-78704851D01*
X189124692Y-78704851D01*
X189641084Y-79598977D01*
G36*
X189641084Y-79598977D02*
G01*
X189124692Y-80493021D01*
X188092404Y-80493021D01*
X187576301Y-79598977D01*
X188092404Y-78704851D01*
X189124692Y-78704851D01*
X189641084Y-79598977D01*
G37*
X187196234Y-72557068D02*
X187391373Y-72570488D01*
X187584749Y-72590021D01*
X187776266Y-72615571D01*
X187965828Y-72647041D01*
X188153339Y-72684335D01*
X188338705Y-72727356D01*
X188521829Y-72776009D01*
X188702616Y-72830196D01*
X188880971Y-72889821D01*
X189056797Y-72954788D01*
X189230000Y-73025000D01*
X189568151Y-73180774D01*
X189894660Y-73356371D01*
X190208763Y-73551021D01*
X190509695Y-73763952D01*
X190796691Y-73994391D01*
X191068987Y-74241568D01*
X191325818Y-74504711D01*
X191566419Y-74783049D01*
X191790027Y-75075810D01*
X191995875Y-75382222D01*
X185364095Y-75382222D01*
X186999426Y-72549858D01*
X187196234Y-72557068D01*
G36*
X187196234Y-72557068D02*
G01*
X187391373Y-72570488D01*
X187584749Y-72590021D01*
X187776266Y-72615571D01*
X187965828Y-72647041D01*
X188153339Y-72684335D01*
X188338705Y-72727356D01*
X188521829Y-72776009D01*
X188702616Y-72830196D01*
X188880971Y-72889821D01*
X189056797Y-72954788D01*
X189230000Y-73025000D01*
X189568151Y-73180774D01*
X189894660Y-73356371D01*
X190208763Y-73551021D01*
X190509695Y-73763952D01*
X190796691Y-73994391D01*
X191068987Y-74241568D01*
X191325818Y-74504711D01*
X191566419Y-74783049D01*
X191790027Y-75075810D01*
X191995875Y-75382222D01*
X185364095Y-75382222D01*
X186999426Y-72549858D01*
X187196234Y-72557068D01*
G37*
D11*
X143665601Y-76972438D02*
X143570363Y-76924819D01*
X143570363Y-76924819D02*
X143427506Y-76924819D01*
X143427506Y-76924819D02*
X143284649Y-76972438D01*
X143284649Y-76972438D02*
X143189411Y-77067676D01*
X143189411Y-77067676D02*
X143141792Y-77162914D01*
X143141792Y-77162914D02*
X143094173Y-77353390D01*
X143094173Y-77353390D02*
X143094173Y-77496247D01*
X143094173Y-77496247D02*
X143141792Y-77686723D01*
X143141792Y-77686723D02*
X143189411Y-77781961D01*
X143189411Y-77781961D02*
X143284649Y-77877200D01*
X143284649Y-77877200D02*
X143427506Y-77924819D01*
X143427506Y-77924819D02*
X143522744Y-77924819D01*
X143522744Y-77924819D02*
X143665601Y-77877200D01*
X143665601Y-77877200D02*
X143713220Y-77829580D01*
X143713220Y-77829580D02*
X143713220Y-77496247D01*
X143713220Y-77496247D02*
X143522744Y-77496247D01*
X144141792Y-77924819D02*
X144141792Y-76924819D01*
X144141792Y-76924819D02*
X144713220Y-77924819D01*
X144713220Y-77924819D02*
X144713220Y-76924819D01*
X145189411Y-77924819D02*
X145189411Y-76924819D01*
X145189411Y-76924819D02*
X145427506Y-76924819D01*
X145427506Y-76924819D02*
X145570363Y-76972438D01*
X145570363Y-76972438D02*
X145665601Y-77067676D01*
X145665601Y-77067676D02*
X145713220Y-77162914D01*
X145713220Y-77162914D02*
X145760839Y-77353390D01*
X145760839Y-77353390D02*
X145760839Y-77496247D01*
X145760839Y-77496247D02*
X145713220Y-77686723D01*
X145713220Y-77686723D02*
X145665601Y-77781961D01*
X145665601Y-77781961D02*
X145570363Y-77877200D01*
X145570363Y-77877200D02*
X145427506Y-77924819D01*
X145427506Y-77924819D02*
X145189411Y-77924819D01*
X143332268Y-79464819D02*
X143951315Y-79464819D01*
X143951315Y-79464819D02*
X143617982Y-79845771D01*
X143617982Y-79845771D02*
X143760839Y-79845771D01*
X143760839Y-79845771D02*
X143856077Y-79893390D01*
X143856077Y-79893390D02*
X143903696Y-79941009D01*
X143903696Y-79941009D02*
X143951315Y-80036247D01*
X143951315Y-80036247D02*
X143951315Y-80274342D01*
X143951315Y-80274342D02*
X143903696Y-80369580D01*
X143903696Y-80369580D02*
X143856077Y-80417200D01*
X143856077Y-80417200D02*
X143760839Y-80464819D01*
X143760839Y-80464819D02*
X143475125Y-80464819D01*
X143475125Y-80464819D02*
X143379887Y-80417200D01*
X143379887Y-80417200D02*
X143332268Y-80369580D01*
X144237030Y-79464819D02*
X144570363Y-80464819D01*
X144570363Y-80464819D02*
X144903696Y-79464819D01*
X145141792Y-79464819D02*
X145760839Y-79464819D01*
X145760839Y-79464819D02*
X145427506Y-79845771D01*
X145427506Y-79845771D02*
X145570363Y-79845771D01*
X145570363Y-79845771D02*
X145665601Y-79893390D01*
X145665601Y-79893390D02*
X145713220Y-79941009D01*
X145713220Y-79941009D02*
X145760839Y-80036247D01*
X145760839Y-80036247D02*
X145760839Y-80274342D01*
X145760839Y-80274342D02*
X145713220Y-80369580D01*
X145713220Y-80369580D02*
X145665601Y-80417200D01*
X145665601Y-80417200D02*
X145570363Y-80464819D01*
X145570363Y-80464819D02*
X145284649Y-80464819D01*
X145284649Y-80464819D02*
X145189411Y-80417200D01*
X145189411Y-80417200D02*
X145141792Y-80369580D01*
X175170180Y-125282268D02*
X175170180Y-125853696D01*
X174170180Y-125567982D02*
X175170180Y-125567982D01*
X175170180Y-126091792D02*
X174170180Y-126758458D01*
X175170180Y-126758458D02*
X174170180Y-126091792D01*
X142379887Y-92482200D02*
X142522744Y-92529819D01*
X142522744Y-92529819D02*
X142760839Y-92529819D01*
X142760839Y-92529819D02*
X142856077Y-92482200D01*
X142856077Y-92482200D02*
X142903696Y-92434580D01*
X142903696Y-92434580D02*
X142951315Y-92339342D01*
X142951315Y-92339342D02*
X142951315Y-92244104D01*
X142951315Y-92244104D02*
X142903696Y-92148866D01*
X142903696Y-92148866D02*
X142856077Y-92101247D01*
X142856077Y-92101247D02*
X142760839Y-92053628D01*
X142760839Y-92053628D02*
X142570363Y-92006009D01*
X142570363Y-92006009D02*
X142475125Y-91958390D01*
X142475125Y-91958390D02*
X142427506Y-91910771D01*
X142427506Y-91910771D02*
X142379887Y-91815533D01*
X142379887Y-91815533D02*
X142379887Y-91720295D01*
X142379887Y-91720295D02*
X142427506Y-91625057D01*
X142427506Y-91625057D02*
X142475125Y-91577438D01*
X142475125Y-91577438D02*
X142570363Y-91529819D01*
X142570363Y-91529819D02*
X142808458Y-91529819D01*
X142808458Y-91529819D02*
X142951315Y-91577438D01*
X143237030Y-91529819D02*
X143808458Y-91529819D01*
X143522744Y-92529819D02*
X143522744Y-91529819D01*
X144332268Y-91529819D02*
X144522744Y-91529819D01*
X144522744Y-91529819D02*
X144617982Y-91577438D01*
X144617982Y-91577438D02*
X144713220Y-91672676D01*
X144713220Y-91672676D02*
X144760839Y-91863152D01*
X144760839Y-91863152D02*
X144760839Y-92196485D01*
X144760839Y-92196485D02*
X144713220Y-92386961D01*
X144713220Y-92386961D02*
X144617982Y-92482200D01*
X144617982Y-92482200D02*
X144522744Y-92529819D01*
X144522744Y-92529819D02*
X144332268Y-92529819D01*
X144332268Y-92529819D02*
X144237030Y-92482200D01*
X144237030Y-92482200D02*
X144141792Y-92386961D01*
X144141792Y-92386961D02*
X144094173Y-92196485D01*
X144094173Y-92196485D02*
X144094173Y-91863152D01*
X144094173Y-91863152D02*
X144141792Y-91672676D01*
X144141792Y-91672676D02*
X144237030Y-91577438D01*
X144237030Y-91577438D02*
X144332268Y-91529819D01*
X145189411Y-92529819D02*
X145189411Y-91529819D01*
X145189411Y-91529819D02*
X145570363Y-91529819D01*
X145570363Y-91529819D02*
X145665601Y-91577438D01*
X145665601Y-91577438D02*
X145713220Y-91625057D01*
X145713220Y-91625057D02*
X145760839Y-91720295D01*
X145760839Y-91720295D02*
X145760839Y-91863152D01*
X145760839Y-91863152D02*
X145713220Y-91958390D01*
X145713220Y-91958390D02*
X145665601Y-92006009D01*
X145665601Y-92006009D02*
X145570363Y-92053628D01*
X145570363Y-92053628D02*
X145189411Y-92053628D01*
X177710180Y-124282268D02*
X177710180Y-124901315D01*
X177710180Y-124901315D02*
X177329228Y-124567982D01*
X177329228Y-124567982D02*
X177329228Y-124710839D01*
X177329228Y-124710839D02*
X177281609Y-124806077D01*
X177281609Y-124806077D02*
X177233990Y-124853696D01*
X177233990Y-124853696D02*
X177138752Y-124901315D01*
X177138752Y-124901315D02*
X176900657Y-124901315D01*
X176900657Y-124901315D02*
X176805419Y-124853696D01*
X176805419Y-124853696D02*
X176757800Y-124806077D01*
X176757800Y-124806077D02*
X176710180Y-124710839D01*
X176710180Y-124710839D02*
X176710180Y-124425125D01*
X176710180Y-124425125D02*
X176757800Y-124329887D01*
X176757800Y-124329887D02*
X176805419Y-124282268D01*
X177710180Y-125187030D02*
X176710180Y-125520363D01*
X176710180Y-125520363D02*
X177710180Y-125853696D01*
X177710180Y-126091792D02*
X177710180Y-126710839D01*
X177710180Y-126710839D02*
X177329228Y-126377506D01*
X177329228Y-126377506D02*
X177329228Y-126520363D01*
X177329228Y-126520363D02*
X177281609Y-126615601D01*
X177281609Y-126615601D02*
X177233990Y-126663220D01*
X177233990Y-126663220D02*
X177138752Y-126710839D01*
X177138752Y-126710839D02*
X176900657Y-126710839D01*
X176900657Y-126710839D02*
X176805419Y-126663220D01*
X176805419Y-126663220D02*
X176757800Y-126615601D01*
X176757800Y-126615601D02*
X176710180Y-126520363D01*
X176710180Y-126520363D02*
X176710180Y-126234649D01*
X176710180Y-126234649D02*
X176757800Y-126139411D01*
X176757800Y-126139411D02*
X176805419Y-126091792D01*
X182259883Y-65642228D02*
X182164645Y-65689847D01*
X182164645Y-65689847D02*
X181974169Y-65689847D01*
X181974169Y-65689847D02*
X181878931Y-65642228D01*
X181878931Y-65642228D02*
X181831312Y-65546989D01*
X181831312Y-65546989D02*
X181831312Y-65166037D01*
X181831312Y-65166037D02*
X181878931Y-65070799D01*
X181878931Y-65070799D02*
X181974169Y-65023180D01*
X181974169Y-65023180D02*
X182164645Y-65023180D01*
X182164645Y-65023180D02*
X182259883Y-65070799D01*
X182259883Y-65070799D02*
X182307502Y-65166037D01*
X182307502Y-65166037D02*
X182307502Y-65261275D01*
X182307502Y-65261275D02*
X181831312Y-65356513D01*
X182688455Y-65642228D02*
X182783693Y-65689847D01*
X182783693Y-65689847D02*
X182974169Y-65689847D01*
X182974169Y-65689847D02*
X183069407Y-65642228D01*
X183069407Y-65642228D02*
X183117026Y-65546989D01*
X183117026Y-65546989D02*
X183117026Y-65499370D01*
X183117026Y-65499370D02*
X183069407Y-65404132D01*
X183069407Y-65404132D02*
X182974169Y-65356513D01*
X182974169Y-65356513D02*
X182831312Y-65356513D01*
X182831312Y-65356513D02*
X182736074Y-65308894D01*
X182736074Y-65308894D02*
X182688455Y-65213656D01*
X182688455Y-65213656D02*
X182688455Y-65166037D01*
X182688455Y-65166037D02*
X182736074Y-65070799D01*
X182736074Y-65070799D02*
X182831312Y-65023180D01*
X182831312Y-65023180D02*
X182974169Y-65023180D01*
X182974169Y-65023180D02*
X183069407Y-65070799D01*
X183545598Y-65023180D02*
X183545598Y-66023180D01*
X183545598Y-65070799D02*
X183640836Y-65023180D01*
X183640836Y-65023180D02*
X183831312Y-65023180D01*
X183831312Y-65023180D02*
X183926550Y-65070799D01*
X183926550Y-65070799D02*
X183974169Y-65118418D01*
X183974169Y-65118418D02*
X184021788Y-65213656D01*
X184021788Y-65213656D02*
X184021788Y-65499370D01*
X184021788Y-65499370D02*
X183974169Y-65594608D01*
X183974169Y-65594608D02*
X183926550Y-65642228D01*
X183926550Y-65642228D02*
X183831312Y-65689847D01*
X183831312Y-65689847D02*
X183640836Y-65689847D01*
X183640836Y-65689847D02*
X183545598Y-65642228D01*
X184450360Y-65689847D02*
X184450360Y-64689847D01*
X184878931Y-65689847D02*
X184878931Y-65166037D01*
X184878931Y-65166037D02*
X184831312Y-65070799D01*
X184831312Y-65070799D02*
X184736074Y-65023180D01*
X184736074Y-65023180D02*
X184593217Y-65023180D01*
X184593217Y-65023180D02*
X184497979Y-65070799D01*
X184497979Y-65070799D02*
X184450360Y-65118418D01*
X185497979Y-65689847D02*
X185402741Y-65642228D01*
X185402741Y-65642228D02*
X185355122Y-65594608D01*
X185355122Y-65594608D02*
X185307503Y-65499370D01*
X185307503Y-65499370D02*
X185307503Y-65213656D01*
X185307503Y-65213656D02*
X185355122Y-65118418D01*
X185355122Y-65118418D02*
X185402741Y-65070799D01*
X185402741Y-65070799D02*
X185497979Y-65023180D01*
X185497979Y-65023180D02*
X185640836Y-65023180D01*
X185640836Y-65023180D02*
X185736074Y-65070799D01*
X185736074Y-65070799D02*
X185783693Y-65118418D01*
X185783693Y-65118418D02*
X185831312Y-65213656D01*
X185831312Y-65213656D02*
X185831312Y-65499370D01*
X185831312Y-65499370D02*
X185783693Y-65594608D01*
X185783693Y-65594608D02*
X185736074Y-65642228D01*
X185736074Y-65642228D02*
X185640836Y-65689847D01*
X185640836Y-65689847D02*
X185497979Y-65689847D01*
X186259884Y-65689847D02*
X186259884Y-65023180D01*
X186259884Y-65118418D02*
X186307503Y-65070799D01*
X186307503Y-65070799D02*
X186402741Y-65023180D01*
X186402741Y-65023180D02*
X186545598Y-65023180D01*
X186545598Y-65023180D02*
X186640836Y-65070799D01*
X186640836Y-65070799D02*
X186688455Y-65166037D01*
X186688455Y-65166037D02*
X186688455Y-65689847D01*
X186688455Y-65166037D02*
X186736074Y-65070799D01*
X186736074Y-65070799D02*
X186831312Y-65023180D01*
X186831312Y-65023180D02*
X186974169Y-65023180D01*
X186974169Y-65023180D02*
X187069408Y-65070799D01*
X187069408Y-65070799D02*
X187117027Y-65166037D01*
X187117027Y-65166037D02*
X187117027Y-65689847D01*
X187974169Y-65642228D02*
X187878931Y-65689847D01*
X187878931Y-65689847D02*
X187688455Y-65689847D01*
X187688455Y-65689847D02*
X187593217Y-65642228D01*
X187593217Y-65642228D02*
X187545598Y-65546989D01*
X187545598Y-65546989D02*
X187545598Y-65166037D01*
X187545598Y-65166037D02*
X187593217Y-65070799D01*
X187593217Y-65070799D02*
X187688455Y-65023180D01*
X187688455Y-65023180D02*
X187878931Y-65023180D01*
X187878931Y-65023180D02*
X187974169Y-65070799D01*
X187974169Y-65070799D02*
X188021788Y-65166037D01*
X188021788Y-65166037D02*
X188021788Y-65261275D01*
X188021788Y-65261275D02*
X187545598Y-65356513D01*
X188450360Y-65308894D02*
X189212265Y-65308894D01*
X189593217Y-65023180D02*
X189831312Y-65689847D01*
X189831312Y-65689847D02*
X190069407Y-65023180D01*
X190831312Y-65642228D02*
X190736074Y-65689847D01*
X190736074Y-65689847D02*
X190545598Y-65689847D01*
X190545598Y-65689847D02*
X190450360Y-65642228D01*
X190450360Y-65642228D02*
X190402741Y-65546989D01*
X190402741Y-65546989D02*
X190402741Y-65166037D01*
X190402741Y-65166037D02*
X190450360Y-65070799D01*
X190450360Y-65070799D02*
X190545598Y-65023180D01*
X190545598Y-65023180D02*
X190736074Y-65023180D01*
X190736074Y-65023180D02*
X190831312Y-65070799D01*
X190831312Y-65070799D02*
X190878931Y-65166037D01*
X190878931Y-65166037D02*
X190878931Y-65261275D01*
X190878931Y-65261275D02*
X190402741Y-65356513D01*
X191450360Y-65689847D02*
X191355122Y-65642228D01*
X191355122Y-65642228D02*
X191307503Y-65546989D01*
X191307503Y-65546989D02*
X191307503Y-64689847D01*
X192259884Y-65023180D02*
X192259884Y-65689847D01*
X191831313Y-65023180D02*
X191831313Y-65546989D01*
X191831313Y-65546989D02*
X191878932Y-65642228D01*
X191878932Y-65642228D02*
X191974170Y-65689847D01*
X191974170Y-65689847D02*
X192117027Y-65689847D01*
X192117027Y-65689847D02*
X192212265Y-65642228D01*
X192212265Y-65642228D02*
X192259884Y-65594608D01*
X192640837Y-65689847D02*
X193164646Y-65023180D01*
X192640837Y-65023180D02*
X193164646Y-65689847D01*
X193545599Y-65308894D02*
X194307504Y-65308894D01*
X195212265Y-65642228D02*
X195117027Y-65689847D01*
X195117027Y-65689847D02*
X194926551Y-65689847D01*
X194926551Y-65689847D02*
X194831313Y-65642228D01*
X194831313Y-65642228D02*
X194783694Y-65594608D01*
X194783694Y-65594608D02*
X194736075Y-65499370D01*
X194736075Y-65499370D02*
X194736075Y-65213656D01*
X194736075Y-65213656D02*
X194783694Y-65118418D01*
X194783694Y-65118418D02*
X194831313Y-65070799D01*
X194831313Y-65070799D02*
X194926551Y-65023180D01*
X194926551Y-65023180D02*
X195117027Y-65023180D01*
X195117027Y-65023180D02*
X195212265Y-65070799D01*
X195783694Y-65689847D02*
X195688456Y-65642228D01*
X195688456Y-65642228D02*
X195640837Y-65594608D01*
X195640837Y-65594608D02*
X195593218Y-65499370D01*
X195593218Y-65499370D02*
X195593218Y-65213656D01*
X195593218Y-65213656D02*
X195640837Y-65118418D01*
X195640837Y-65118418D02*
X195688456Y-65070799D01*
X195688456Y-65070799D02*
X195783694Y-65023180D01*
X195783694Y-65023180D02*
X195926551Y-65023180D01*
X195926551Y-65023180D02*
X196021789Y-65070799D01*
X196021789Y-65070799D02*
X196069408Y-65118418D01*
X196069408Y-65118418D02*
X196117027Y-65213656D01*
X196117027Y-65213656D02*
X196117027Y-65499370D01*
X196117027Y-65499370D02*
X196069408Y-65594608D01*
X196069408Y-65594608D02*
X196021789Y-65642228D01*
X196021789Y-65642228D02*
X195926551Y-65689847D01*
X195926551Y-65689847D02*
X195783694Y-65689847D01*
X196545599Y-65023180D02*
X196545599Y-65689847D01*
X196545599Y-65118418D02*
X196593218Y-65070799D01*
X196593218Y-65070799D02*
X196688456Y-65023180D01*
X196688456Y-65023180D02*
X196831313Y-65023180D01*
X196831313Y-65023180D02*
X196926551Y-65070799D01*
X196926551Y-65070799D02*
X196974170Y-65166037D01*
X196974170Y-65166037D02*
X196974170Y-65689847D01*
X197307504Y-65023180D02*
X197688456Y-65023180D01*
X197450361Y-64689847D02*
X197450361Y-65546989D01*
X197450361Y-65546989D02*
X197497980Y-65642228D01*
X197497980Y-65642228D02*
X197593218Y-65689847D01*
X197593218Y-65689847D02*
X197688456Y-65689847D01*
X198021790Y-65689847D02*
X198021790Y-65023180D01*
X198021790Y-65213656D02*
X198069409Y-65118418D01*
X198069409Y-65118418D02*
X198117028Y-65070799D01*
X198117028Y-65070799D02*
X198212266Y-65023180D01*
X198212266Y-65023180D02*
X198307504Y-65023180D01*
X198783695Y-65689847D02*
X198688457Y-65642228D01*
X198688457Y-65642228D02*
X198640838Y-65594608D01*
X198640838Y-65594608D02*
X198593219Y-65499370D01*
X198593219Y-65499370D02*
X198593219Y-65213656D01*
X198593219Y-65213656D02*
X198640838Y-65118418D01*
X198640838Y-65118418D02*
X198688457Y-65070799D01*
X198688457Y-65070799D02*
X198783695Y-65023180D01*
X198783695Y-65023180D02*
X198926552Y-65023180D01*
X198926552Y-65023180D02*
X199021790Y-65070799D01*
X199021790Y-65070799D02*
X199069409Y-65118418D01*
X199069409Y-65118418D02*
X199117028Y-65213656D01*
X199117028Y-65213656D02*
X199117028Y-65499370D01*
X199117028Y-65499370D02*
X199069409Y-65594608D01*
X199069409Y-65594608D02*
X199021790Y-65642228D01*
X199021790Y-65642228D02*
X198926552Y-65689847D01*
X198926552Y-65689847D02*
X198783695Y-65689847D01*
X199688457Y-65689847D02*
X199593219Y-65642228D01*
X199593219Y-65642228D02*
X199545600Y-65546989D01*
X199545600Y-65546989D02*
X199545600Y-64689847D01*
X200212267Y-65689847D02*
X200117029Y-65642228D01*
X200117029Y-65642228D02*
X200069410Y-65546989D01*
X200069410Y-65546989D02*
X200069410Y-64689847D01*
X200974172Y-65642228D02*
X200878934Y-65689847D01*
X200878934Y-65689847D02*
X200688458Y-65689847D01*
X200688458Y-65689847D02*
X200593220Y-65642228D01*
X200593220Y-65642228D02*
X200545601Y-65546989D01*
X200545601Y-65546989D02*
X200545601Y-65166037D01*
X200545601Y-65166037D02*
X200593220Y-65070799D01*
X200593220Y-65070799D02*
X200688458Y-65023180D01*
X200688458Y-65023180D02*
X200878934Y-65023180D01*
X200878934Y-65023180D02*
X200974172Y-65070799D01*
X200974172Y-65070799D02*
X201021791Y-65166037D01*
X201021791Y-65166037D02*
X201021791Y-65261275D01*
X201021791Y-65261275D02*
X200545601Y-65356513D01*
X201450363Y-65689847D02*
X201450363Y-65023180D01*
X201450363Y-65213656D02*
X201497982Y-65118418D01*
X201497982Y-65118418D02*
X201545601Y-65070799D01*
X201545601Y-65070799D02*
X201640839Y-65023180D01*
X201640839Y-65023180D02*
X201736077Y-65023180D01*
X189402744Y-66633124D02*
X189640839Y-67299791D01*
X189640839Y-67299791D02*
X189878934Y-66633124D01*
X190212268Y-66395029D02*
X190259887Y-66347410D01*
X190259887Y-66347410D02*
X190355125Y-66299791D01*
X190355125Y-66299791D02*
X190593220Y-66299791D01*
X190593220Y-66299791D02*
X190688458Y-66347410D01*
X190688458Y-66347410D02*
X190736077Y-66395029D01*
X190736077Y-66395029D02*
X190783696Y-66490267D01*
X190783696Y-66490267D02*
X190783696Y-66585505D01*
X190783696Y-66585505D02*
X190736077Y-66728362D01*
X190736077Y-66728362D02*
X190164649Y-67299791D01*
X190164649Y-67299791D02*
X190783696Y-67299791D01*
X191926554Y-66395029D02*
X191974173Y-66347410D01*
X191974173Y-66347410D02*
X192069411Y-66299791D01*
X192069411Y-66299791D02*
X192307506Y-66299791D01*
X192307506Y-66299791D02*
X192402744Y-66347410D01*
X192402744Y-66347410D02*
X192450363Y-66395029D01*
X192450363Y-66395029D02*
X192497982Y-66490267D01*
X192497982Y-66490267D02*
X192497982Y-66585505D01*
X192497982Y-66585505D02*
X192450363Y-66728362D01*
X192450363Y-66728362D02*
X191878935Y-67299791D01*
X191878935Y-67299791D02*
X192497982Y-67299791D01*
X193117030Y-66299791D02*
X193212268Y-66299791D01*
X193212268Y-66299791D02*
X193307506Y-66347410D01*
X193307506Y-66347410D02*
X193355125Y-66395029D01*
X193355125Y-66395029D02*
X193402744Y-66490267D01*
X193402744Y-66490267D02*
X193450363Y-66680743D01*
X193450363Y-66680743D02*
X193450363Y-66918838D01*
X193450363Y-66918838D02*
X193402744Y-67109314D01*
X193402744Y-67109314D02*
X193355125Y-67204552D01*
X193355125Y-67204552D02*
X193307506Y-67252172D01*
X193307506Y-67252172D02*
X193212268Y-67299791D01*
X193212268Y-67299791D02*
X193117030Y-67299791D01*
X193117030Y-67299791D02*
X193021792Y-67252172D01*
X193021792Y-67252172D02*
X192974173Y-67204552D01*
X192974173Y-67204552D02*
X192926554Y-67109314D01*
X192926554Y-67109314D02*
X192878935Y-66918838D01*
X192878935Y-66918838D02*
X192878935Y-66680743D01*
X192878935Y-66680743D02*
X192926554Y-66490267D01*
X192926554Y-66490267D02*
X192974173Y-66395029D01*
X192974173Y-66395029D02*
X193021792Y-66347410D01*
X193021792Y-66347410D02*
X193117030Y-66299791D01*
X193831316Y-66395029D02*
X193878935Y-66347410D01*
X193878935Y-66347410D02*
X193974173Y-66299791D01*
X193974173Y-66299791D02*
X194212268Y-66299791D01*
X194212268Y-66299791D02*
X194307506Y-66347410D01*
X194307506Y-66347410D02*
X194355125Y-66395029D01*
X194355125Y-66395029D02*
X194402744Y-66490267D01*
X194402744Y-66490267D02*
X194402744Y-66585505D01*
X194402744Y-66585505D02*
X194355125Y-66728362D01*
X194355125Y-66728362D02*
X193783697Y-67299791D01*
X193783697Y-67299791D02*
X194402744Y-67299791D01*
X195259887Y-66633124D02*
X195259887Y-67299791D01*
X195021792Y-66252172D02*
X194783697Y-66966457D01*
X194783697Y-66966457D02*
X195402744Y-66966457D01*
X195783697Y-66918838D02*
X196545602Y-66918838D01*
X197212268Y-66299791D02*
X197307506Y-66299791D01*
X197307506Y-66299791D02*
X197402744Y-66347410D01*
X197402744Y-66347410D02*
X197450363Y-66395029D01*
X197450363Y-66395029D02*
X197497982Y-66490267D01*
X197497982Y-66490267D02*
X197545601Y-66680743D01*
X197545601Y-66680743D02*
X197545601Y-66918838D01*
X197545601Y-66918838D02*
X197497982Y-67109314D01*
X197497982Y-67109314D02*
X197450363Y-67204552D01*
X197450363Y-67204552D02*
X197402744Y-67252172D01*
X197402744Y-67252172D02*
X197307506Y-67299791D01*
X197307506Y-67299791D02*
X197212268Y-67299791D01*
X197212268Y-67299791D02*
X197117030Y-67252172D01*
X197117030Y-67252172D02*
X197069411Y-67204552D01*
X197069411Y-67204552D02*
X197021792Y-67109314D01*
X197021792Y-67109314D02*
X196974173Y-66918838D01*
X196974173Y-66918838D02*
X196974173Y-66680743D01*
X196974173Y-66680743D02*
X197021792Y-66490267D01*
X197021792Y-66490267D02*
X197069411Y-66395029D01*
X197069411Y-66395029D02*
X197117030Y-66347410D01*
X197117030Y-66347410D02*
X197212268Y-66299791D01*
X198497982Y-67299791D02*
X197926554Y-67299791D01*
X198212268Y-67299791D02*
X198212268Y-66299791D01*
X198212268Y-66299791D02*
X198117030Y-66442648D01*
X198117030Y-66442648D02*
X198021792Y-66537886D01*
X198021792Y-66537886D02*
X197926554Y-66585505D01*
X198926554Y-66918838D02*
X199688459Y-66918838D01*
X200117030Y-66395029D02*
X200164649Y-66347410D01*
X200164649Y-66347410D02*
X200259887Y-66299791D01*
X200259887Y-66299791D02*
X200497982Y-66299791D01*
X200497982Y-66299791D02*
X200593220Y-66347410D01*
X200593220Y-66347410D02*
X200640839Y-66395029D01*
X200640839Y-66395029D02*
X200688458Y-66490267D01*
X200688458Y-66490267D02*
X200688458Y-66585505D01*
X200688458Y-66585505D02*
X200640839Y-66728362D01*
X200640839Y-66728362D02*
X200069411Y-67299791D01*
X200069411Y-67299791D02*
X200688458Y-67299791D01*
X201021792Y-66299791D02*
X201688458Y-66299791D01*
X201688458Y-66299791D02*
X201259887Y-67299791D01*
X170042561Y-124615601D02*
X170090180Y-124520363D01*
X170090180Y-124520363D02*
X170090180Y-124377506D01*
X170090180Y-124377506D02*
X170042561Y-124234649D01*
X170042561Y-124234649D02*
X169947323Y-124139411D01*
X169947323Y-124139411D02*
X169852085Y-124091792D01*
X169852085Y-124091792D02*
X169661609Y-124044173D01*
X169661609Y-124044173D02*
X169518752Y-124044173D01*
X169518752Y-124044173D02*
X169328276Y-124091792D01*
X169328276Y-124091792D02*
X169233038Y-124139411D01*
X169233038Y-124139411D02*
X169137800Y-124234649D01*
X169137800Y-124234649D02*
X169090180Y-124377506D01*
X169090180Y-124377506D02*
X169090180Y-124472744D01*
X169090180Y-124472744D02*
X169137800Y-124615601D01*
X169137800Y-124615601D02*
X169185419Y-124663220D01*
X169185419Y-124663220D02*
X169518752Y-124663220D01*
X169518752Y-124663220D02*
X169518752Y-124472744D01*
X169090180Y-125091792D02*
X170090180Y-125091792D01*
X170090180Y-125091792D02*
X169090180Y-125663220D01*
X169090180Y-125663220D02*
X170090180Y-125663220D01*
X169090180Y-126139411D02*
X170090180Y-126139411D01*
X170090180Y-126139411D02*
X170090180Y-126377506D01*
X170090180Y-126377506D02*
X170042561Y-126520363D01*
X170042561Y-126520363D02*
X169947323Y-126615601D01*
X169947323Y-126615601D02*
X169852085Y-126663220D01*
X169852085Y-126663220D02*
X169661609Y-126710839D01*
X169661609Y-126710839D02*
X169518752Y-126710839D01*
X169518752Y-126710839D02*
X169328276Y-126663220D01*
X169328276Y-126663220D02*
X169233038Y-126615601D01*
X169233038Y-126615601D02*
X169137800Y-126520363D01*
X169137800Y-126520363D02*
X169090180Y-126377506D01*
X169090180Y-126377506D02*
X169090180Y-126139411D01*
X141951316Y-95069819D02*
X141951316Y-94069819D01*
X141951316Y-94069819D02*
X142189411Y-94069819D01*
X142189411Y-94069819D02*
X142332268Y-94117438D01*
X142332268Y-94117438D02*
X142427506Y-94212676D01*
X142427506Y-94212676D02*
X142475125Y-94307914D01*
X142475125Y-94307914D02*
X142522744Y-94498390D01*
X142522744Y-94498390D02*
X142522744Y-94641247D01*
X142522744Y-94641247D02*
X142475125Y-94831723D01*
X142475125Y-94831723D02*
X142427506Y-94926961D01*
X142427506Y-94926961D02*
X142332268Y-95022200D01*
X142332268Y-95022200D02*
X142189411Y-95069819D01*
X142189411Y-95069819D02*
X141951316Y-95069819D01*
X143141792Y-94069819D02*
X143332268Y-94069819D01*
X143332268Y-94069819D02*
X143427506Y-94117438D01*
X143427506Y-94117438D02*
X143522744Y-94212676D01*
X143522744Y-94212676D02*
X143570363Y-94403152D01*
X143570363Y-94403152D02*
X143570363Y-94736485D01*
X143570363Y-94736485D02*
X143522744Y-94926961D01*
X143522744Y-94926961D02*
X143427506Y-95022200D01*
X143427506Y-95022200D02*
X143332268Y-95069819D01*
X143332268Y-95069819D02*
X143141792Y-95069819D01*
X143141792Y-95069819D02*
X143046554Y-95022200D01*
X143046554Y-95022200D02*
X142951316Y-94926961D01*
X142951316Y-94926961D02*
X142903697Y-94736485D01*
X142903697Y-94736485D02*
X142903697Y-94403152D01*
X142903697Y-94403152D02*
X142951316Y-94212676D01*
X142951316Y-94212676D02*
X143046554Y-94117438D01*
X143046554Y-94117438D02*
X143141792Y-94069819D01*
X143903697Y-94069819D02*
X144141792Y-95069819D01*
X144141792Y-95069819D02*
X144332268Y-94355533D01*
X144332268Y-94355533D02*
X144522744Y-95069819D01*
X144522744Y-95069819D02*
X144760840Y-94069819D01*
X145141792Y-95069819D02*
X145141792Y-94069819D01*
X145141792Y-94069819D02*
X145713220Y-95069819D01*
X145713220Y-95069819D02*
X145713220Y-94069819D01*
X144141792Y-88989819D02*
X144141792Y-89799342D01*
X144141792Y-89799342D02*
X144189411Y-89894580D01*
X144189411Y-89894580D02*
X144237030Y-89942200D01*
X144237030Y-89942200D02*
X144332268Y-89989819D01*
X144332268Y-89989819D02*
X144522744Y-89989819D01*
X144522744Y-89989819D02*
X144617982Y-89942200D01*
X144617982Y-89942200D02*
X144665601Y-89894580D01*
X144665601Y-89894580D02*
X144713220Y-89799342D01*
X144713220Y-89799342D02*
X144713220Y-88989819D01*
X145189411Y-89989819D02*
X145189411Y-88989819D01*
X145189411Y-88989819D02*
X145570363Y-88989819D01*
X145570363Y-88989819D02*
X145665601Y-89037438D01*
X145665601Y-89037438D02*
X145713220Y-89085057D01*
X145713220Y-89085057D02*
X145760839Y-89180295D01*
X145760839Y-89180295D02*
X145760839Y-89323152D01*
X145760839Y-89323152D02*
X145713220Y-89418390D01*
X145713220Y-89418390D02*
X145665601Y-89466009D01*
X145665601Y-89466009D02*
X145570363Y-89513628D01*
X145570363Y-89513628D02*
X145189411Y-89513628D01*
X171630180Y-125758458D02*
X172106371Y-125425125D01*
X171630180Y-125187030D02*
X172630180Y-125187030D01*
X172630180Y-125187030D02*
X172630180Y-125567982D01*
X172630180Y-125567982D02*
X172582561Y-125663220D01*
X172582561Y-125663220D02*
X172534942Y-125710839D01*
X172534942Y-125710839D02*
X172439704Y-125758458D01*
X172439704Y-125758458D02*
X172296847Y-125758458D01*
X172296847Y-125758458D02*
X172201609Y-125710839D01*
X172201609Y-125710839D02*
X172153990Y-125663220D01*
X172153990Y-125663220D02*
X172106371Y-125567982D01*
X172106371Y-125567982D02*
X172106371Y-125187030D01*
X172630180Y-126091792D02*
X171630180Y-126758458D01*
X172630180Y-126758458D02*
X171630180Y-126091792D01*
X202006667Y-78237200D02*
X202149524Y-78284819D01*
X202149524Y-78284819D02*
X202387619Y-78284819D01*
X202387619Y-78284819D02*
X202482857Y-78237200D01*
X202482857Y-78237200D02*
X202530476Y-78189580D01*
X202530476Y-78189580D02*
X202578095Y-78094342D01*
X202578095Y-78094342D02*
X202578095Y-77999104D01*
X202578095Y-77999104D02*
X202530476Y-77903866D01*
X202530476Y-77903866D02*
X202482857Y-77856247D01*
X202482857Y-77856247D02*
X202387619Y-77808628D01*
X202387619Y-77808628D02*
X202197143Y-77761009D01*
X202197143Y-77761009D02*
X202101905Y-77713390D01*
X202101905Y-77713390D02*
X202054286Y-77665771D01*
X202054286Y-77665771D02*
X202006667Y-77570533D01*
X202006667Y-77570533D02*
X202006667Y-77475295D01*
X202006667Y-77475295D02*
X202054286Y-77380057D01*
X202054286Y-77380057D02*
X202101905Y-77332438D01*
X202101905Y-77332438D02*
X202197143Y-77284819D01*
X202197143Y-77284819D02*
X202435238Y-77284819D01*
X202435238Y-77284819D02*
X202578095Y-77332438D01*
X202911429Y-77284819D02*
X203149524Y-78284819D01*
X203149524Y-78284819D02*
X203340000Y-77570533D01*
X203340000Y-77570533D02*
X203530476Y-78284819D01*
X203530476Y-78284819D02*
X203768572Y-77284819D01*
X204101905Y-77380057D02*
X204149524Y-77332438D01*
X204149524Y-77332438D02*
X204244762Y-77284819D01*
X204244762Y-77284819D02*
X204482857Y-77284819D01*
X204482857Y-77284819D02*
X204578095Y-77332438D01*
X204578095Y-77332438D02*
X204625714Y-77380057D01*
X204625714Y-77380057D02*
X204673333Y-77475295D01*
X204673333Y-77475295D02*
X204673333Y-77570533D01*
X204673333Y-77570533D02*
X204625714Y-77713390D01*
X204625714Y-77713390D02*
X204054286Y-78284819D01*
X204054286Y-78284819D02*
X204673333Y-78284819D01*
X197386553Y-75384819D02*
X197053220Y-74908628D01*
X196815125Y-75384819D02*
X196815125Y-74384819D01*
X196815125Y-74384819D02*
X197196077Y-74384819D01*
X197196077Y-74384819D02*
X197291315Y-74432438D01*
X197291315Y-74432438D02*
X197338934Y-74480057D01*
X197338934Y-74480057D02*
X197386553Y-74575295D01*
X197386553Y-74575295D02*
X197386553Y-74718152D01*
X197386553Y-74718152D02*
X197338934Y-74813390D01*
X197338934Y-74813390D02*
X197291315Y-74861009D01*
X197291315Y-74861009D02*
X197196077Y-74908628D01*
X197196077Y-74908628D02*
X196815125Y-74908628D01*
X197767506Y-75337200D02*
X197910363Y-75384819D01*
X197910363Y-75384819D02*
X198148458Y-75384819D01*
X198148458Y-75384819D02*
X198243696Y-75337200D01*
X198243696Y-75337200D02*
X198291315Y-75289580D01*
X198291315Y-75289580D02*
X198338934Y-75194342D01*
X198338934Y-75194342D02*
X198338934Y-75099104D01*
X198338934Y-75099104D02*
X198291315Y-75003866D01*
X198291315Y-75003866D02*
X198243696Y-74956247D01*
X198243696Y-74956247D02*
X198148458Y-74908628D01*
X198148458Y-74908628D02*
X197957982Y-74861009D01*
X197957982Y-74861009D02*
X197862744Y-74813390D01*
X197862744Y-74813390D02*
X197815125Y-74765771D01*
X197815125Y-74765771D02*
X197767506Y-74670533D01*
X197767506Y-74670533D02*
X197767506Y-74575295D01*
X197767506Y-74575295D02*
X197815125Y-74480057D01*
X197815125Y-74480057D02*
X197862744Y-74432438D01*
X197862744Y-74432438D02*
X197957982Y-74384819D01*
X197957982Y-74384819D02*
X198196077Y-74384819D01*
X198196077Y-74384819D02*
X198338934Y-74432438D01*
X198624649Y-74384819D02*
X199196077Y-74384819D01*
X198910363Y-75384819D02*
X198910363Y-74384819D01*
X164933333Y-114659580D02*
X164885714Y-114707200D01*
X164885714Y-114707200D02*
X164742857Y-114754819D01*
X164742857Y-114754819D02*
X164647619Y-114754819D01*
X164647619Y-114754819D02*
X164504762Y-114707200D01*
X164504762Y-114707200D02*
X164409524Y-114611961D01*
X164409524Y-114611961D02*
X164361905Y-114516723D01*
X164361905Y-114516723D02*
X164314286Y-114326247D01*
X164314286Y-114326247D02*
X164314286Y-114183390D01*
X164314286Y-114183390D02*
X164361905Y-113992914D01*
X164361905Y-113992914D02*
X164409524Y-113897676D01*
X164409524Y-113897676D02*
X164504762Y-113802438D01*
X164504762Y-113802438D02*
X164647619Y-113754819D01*
X164647619Y-113754819D02*
X164742857Y-113754819D01*
X164742857Y-113754819D02*
X164885714Y-113802438D01*
X164885714Y-113802438D02*
X164933333Y-113850057D01*
X165838095Y-113754819D02*
X165361905Y-113754819D01*
X165361905Y-113754819D02*
X165314286Y-114231009D01*
X165314286Y-114231009D02*
X165361905Y-114183390D01*
X165361905Y-114183390D02*
X165457143Y-114135771D01*
X165457143Y-114135771D02*
X165695238Y-114135771D01*
X165695238Y-114135771D02*
X165790476Y-114183390D01*
X165790476Y-114183390D02*
X165838095Y-114231009D01*
X165838095Y-114231009D02*
X165885714Y-114326247D01*
X165885714Y-114326247D02*
X165885714Y-114564342D01*
X165885714Y-114564342D02*
X165838095Y-114659580D01*
X165838095Y-114659580D02*
X165790476Y-114707200D01*
X165790476Y-114707200D02*
X165695238Y-114754819D01*
X165695238Y-114754819D02*
X165457143Y-114754819D01*
X165457143Y-114754819D02*
X165361905Y-114707200D01*
X165361905Y-114707200D02*
X165314286Y-114659580D01*
X158019761Y-100880057D02*
X157924523Y-100832438D01*
X157924523Y-100832438D02*
X157829285Y-100737200D01*
X157829285Y-100737200D02*
X157686428Y-100594342D01*
X157686428Y-100594342D02*
X157591190Y-100546723D01*
X157591190Y-100546723D02*
X157495952Y-100546723D01*
X157543571Y-100784819D02*
X157448333Y-100737200D01*
X157448333Y-100737200D02*
X157353095Y-100641961D01*
X157353095Y-100641961D02*
X157305476Y-100451485D01*
X157305476Y-100451485D02*
X157305476Y-100118152D01*
X157305476Y-100118152D02*
X157353095Y-99927676D01*
X157353095Y-99927676D02*
X157448333Y-99832438D01*
X157448333Y-99832438D02*
X157543571Y-99784819D01*
X157543571Y-99784819D02*
X157734047Y-99784819D01*
X157734047Y-99784819D02*
X157829285Y-99832438D01*
X157829285Y-99832438D02*
X157924523Y-99927676D01*
X157924523Y-99927676D02*
X157972142Y-100118152D01*
X157972142Y-100118152D02*
X157972142Y-100451485D01*
X157972142Y-100451485D02*
X157924523Y-100641961D01*
X157924523Y-100641961D02*
X157829285Y-100737200D01*
X157829285Y-100737200D02*
X157734047Y-100784819D01*
X157734047Y-100784819D02*
X157543571Y-100784819D01*
X158924523Y-100784819D02*
X158353095Y-100784819D01*
X158638809Y-100784819D02*
X158638809Y-99784819D01*
X158638809Y-99784819D02*
X158543571Y-99927676D01*
X158543571Y-99927676D02*
X158448333Y-100022914D01*
X158448333Y-100022914D02*
X158353095Y-100070533D01*
X187793333Y-130121819D02*
X187460000Y-129645628D01*
X187221905Y-130121819D02*
X187221905Y-129121819D01*
X187221905Y-129121819D02*
X187602857Y-129121819D01*
X187602857Y-129121819D02*
X187698095Y-129169438D01*
X187698095Y-129169438D02*
X187745714Y-129217057D01*
X187745714Y-129217057D02*
X187793333Y-129312295D01*
X187793333Y-129312295D02*
X187793333Y-129455152D01*
X187793333Y-129455152D02*
X187745714Y-129550390D01*
X187745714Y-129550390D02*
X187698095Y-129598009D01*
X187698095Y-129598009D02*
X187602857Y-129645628D01*
X187602857Y-129645628D02*
X187221905Y-129645628D01*
X188698095Y-129121819D02*
X188221905Y-129121819D01*
X188221905Y-129121819D02*
X188174286Y-129598009D01*
X188174286Y-129598009D02*
X188221905Y-129550390D01*
X188221905Y-129550390D02*
X188317143Y-129502771D01*
X188317143Y-129502771D02*
X188555238Y-129502771D01*
X188555238Y-129502771D02*
X188650476Y-129550390D01*
X188650476Y-129550390D02*
X188698095Y-129598009D01*
X188698095Y-129598009D02*
X188745714Y-129693247D01*
X188745714Y-129693247D02*
X188745714Y-129931342D01*
X188745714Y-129931342D02*
X188698095Y-130026580D01*
X188698095Y-130026580D02*
X188650476Y-130074200D01*
X188650476Y-130074200D02*
X188555238Y-130121819D01*
X188555238Y-130121819D02*
X188317143Y-130121819D01*
X188317143Y-130121819D02*
X188221905Y-130074200D01*
X188221905Y-130074200D02*
X188174286Y-130026580D01*
X178427142Y-102529819D02*
X178093809Y-102053628D01*
X177855714Y-102529819D02*
X177855714Y-101529819D01*
X177855714Y-101529819D02*
X178236666Y-101529819D01*
X178236666Y-101529819D02*
X178331904Y-101577438D01*
X178331904Y-101577438D02*
X178379523Y-101625057D01*
X178379523Y-101625057D02*
X178427142Y-101720295D01*
X178427142Y-101720295D02*
X178427142Y-101863152D01*
X178427142Y-101863152D02*
X178379523Y-101958390D01*
X178379523Y-101958390D02*
X178331904Y-102006009D01*
X178331904Y-102006009D02*
X178236666Y-102053628D01*
X178236666Y-102053628D02*
X177855714Y-102053628D01*
X179379523Y-102529819D02*
X178808095Y-102529819D01*
X179093809Y-102529819D02*
X179093809Y-101529819D01*
X179093809Y-101529819D02*
X178998571Y-101672676D01*
X178998571Y-101672676D02*
X178903333Y-101767914D01*
X178903333Y-101767914D02*
X178808095Y-101815533D01*
X179760476Y-101625057D02*
X179808095Y-101577438D01*
X179808095Y-101577438D02*
X179903333Y-101529819D01*
X179903333Y-101529819D02*
X180141428Y-101529819D01*
X180141428Y-101529819D02*
X180236666Y-101577438D01*
X180236666Y-101577438D02*
X180284285Y-101625057D01*
X180284285Y-101625057D02*
X180331904Y-101720295D01*
X180331904Y-101720295D02*
X180331904Y-101815533D01*
X180331904Y-101815533D02*
X180284285Y-101958390D01*
X180284285Y-101958390D02*
X179712857Y-102529819D01*
X179712857Y-102529819D02*
X180331904Y-102529819D01*
X202006667Y-85857200D02*
X202149524Y-85904819D01*
X202149524Y-85904819D02*
X202387619Y-85904819D01*
X202387619Y-85904819D02*
X202482857Y-85857200D01*
X202482857Y-85857200D02*
X202530476Y-85809580D01*
X202530476Y-85809580D02*
X202578095Y-85714342D01*
X202578095Y-85714342D02*
X202578095Y-85619104D01*
X202578095Y-85619104D02*
X202530476Y-85523866D01*
X202530476Y-85523866D02*
X202482857Y-85476247D01*
X202482857Y-85476247D02*
X202387619Y-85428628D01*
X202387619Y-85428628D02*
X202197143Y-85381009D01*
X202197143Y-85381009D02*
X202101905Y-85333390D01*
X202101905Y-85333390D02*
X202054286Y-85285771D01*
X202054286Y-85285771D02*
X202006667Y-85190533D01*
X202006667Y-85190533D02*
X202006667Y-85095295D01*
X202006667Y-85095295D02*
X202054286Y-85000057D01*
X202054286Y-85000057D02*
X202101905Y-84952438D01*
X202101905Y-84952438D02*
X202197143Y-84904819D01*
X202197143Y-84904819D02*
X202435238Y-84904819D01*
X202435238Y-84904819D02*
X202578095Y-84952438D01*
X202911429Y-84904819D02*
X203149524Y-85904819D01*
X203149524Y-85904819D02*
X203340000Y-85190533D01*
X203340000Y-85190533D02*
X203530476Y-85904819D01*
X203530476Y-85904819D02*
X203768572Y-84904819D01*
X204673333Y-85904819D02*
X204101905Y-85904819D01*
X204387619Y-85904819D02*
X204387619Y-84904819D01*
X204387619Y-84904819D02*
X204292381Y-85047676D01*
X204292381Y-85047676D02*
X204197143Y-85142914D01*
X204197143Y-85142914D02*
X204101905Y-85190533D01*
X196005601Y-82481009D02*
X196148458Y-82528628D01*
X196148458Y-82528628D02*
X196196077Y-82576247D01*
X196196077Y-82576247D02*
X196243696Y-82671485D01*
X196243696Y-82671485D02*
X196243696Y-82814342D01*
X196243696Y-82814342D02*
X196196077Y-82909580D01*
X196196077Y-82909580D02*
X196148458Y-82957200D01*
X196148458Y-82957200D02*
X196053220Y-83004819D01*
X196053220Y-83004819D02*
X195672268Y-83004819D01*
X195672268Y-83004819D02*
X195672268Y-82004819D01*
X195672268Y-82004819D02*
X196005601Y-82004819D01*
X196005601Y-82004819D02*
X196100839Y-82052438D01*
X196100839Y-82052438D02*
X196148458Y-82100057D01*
X196148458Y-82100057D02*
X196196077Y-82195295D01*
X196196077Y-82195295D02*
X196196077Y-82290533D01*
X196196077Y-82290533D02*
X196148458Y-82385771D01*
X196148458Y-82385771D02*
X196100839Y-82433390D01*
X196100839Y-82433390D02*
X196005601Y-82481009D01*
X196005601Y-82481009D02*
X195672268Y-82481009D01*
X196862744Y-82004819D02*
X197053220Y-82004819D01*
X197053220Y-82004819D02*
X197148458Y-82052438D01*
X197148458Y-82052438D02*
X197243696Y-82147676D01*
X197243696Y-82147676D02*
X197291315Y-82338152D01*
X197291315Y-82338152D02*
X197291315Y-82671485D01*
X197291315Y-82671485D02*
X197243696Y-82861961D01*
X197243696Y-82861961D02*
X197148458Y-82957200D01*
X197148458Y-82957200D02*
X197053220Y-83004819D01*
X197053220Y-83004819D02*
X196862744Y-83004819D01*
X196862744Y-83004819D02*
X196767506Y-82957200D01*
X196767506Y-82957200D02*
X196672268Y-82861961D01*
X196672268Y-82861961D02*
X196624649Y-82671485D01*
X196624649Y-82671485D02*
X196624649Y-82338152D01*
X196624649Y-82338152D02*
X196672268Y-82147676D01*
X196672268Y-82147676D02*
X196767506Y-82052438D01*
X196767506Y-82052438D02*
X196862744Y-82004819D01*
X197910363Y-82004819D02*
X198100839Y-82004819D01*
X198100839Y-82004819D02*
X198196077Y-82052438D01*
X198196077Y-82052438D02*
X198291315Y-82147676D01*
X198291315Y-82147676D02*
X198338934Y-82338152D01*
X198338934Y-82338152D02*
X198338934Y-82671485D01*
X198338934Y-82671485D02*
X198291315Y-82861961D01*
X198291315Y-82861961D02*
X198196077Y-82957200D01*
X198196077Y-82957200D02*
X198100839Y-83004819D01*
X198100839Y-83004819D02*
X197910363Y-83004819D01*
X197910363Y-83004819D02*
X197815125Y-82957200D01*
X197815125Y-82957200D02*
X197719887Y-82861961D01*
X197719887Y-82861961D02*
X197672268Y-82671485D01*
X197672268Y-82671485D02*
X197672268Y-82338152D01*
X197672268Y-82338152D02*
X197719887Y-82147676D01*
X197719887Y-82147676D02*
X197815125Y-82052438D01*
X197815125Y-82052438D02*
X197910363Y-82004819D01*
X198624649Y-82004819D02*
X199196077Y-82004819D01*
X198910363Y-83004819D02*
X198910363Y-82004819D01*
X177855833Y-109514819D02*
X177522500Y-109038628D01*
X177284405Y-109514819D02*
X177284405Y-108514819D01*
X177284405Y-108514819D02*
X177665357Y-108514819D01*
X177665357Y-108514819D02*
X177760595Y-108562438D01*
X177760595Y-108562438D02*
X177808214Y-108610057D01*
X177808214Y-108610057D02*
X177855833Y-108705295D01*
X177855833Y-108705295D02*
X177855833Y-108848152D01*
X177855833Y-108848152D02*
X177808214Y-108943390D01*
X177808214Y-108943390D02*
X177760595Y-108991009D01*
X177760595Y-108991009D02*
X177665357Y-109038628D01*
X177665357Y-109038628D02*
X177284405Y-109038628D01*
X178332024Y-109514819D02*
X178522500Y-109514819D01*
X178522500Y-109514819D02*
X178617738Y-109467200D01*
X178617738Y-109467200D02*
X178665357Y-109419580D01*
X178665357Y-109419580D02*
X178760595Y-109276723D01*
X178760595Y-109276723D02*
X178808214Y-109086247D01*
X178808214Y-109086247D02*
X178808214Y-108705295D01*
X178808214Y-108705295D02*
X178760595Y-108610057D01*
X178760595Y-108610057D02*
X178712976Y-108562438D01*
X178712976Y-108562438D02*
X178617738Y-108514819D01*
X178617738Y-108514819D02*
X178427262Y-108514819D01*
X178427262Y-108514819D02*
X178332024Y-108562438D01*
X178332024Y-108562438D02*
X178284405Y-108610057D01*
X178284405Y-108610057D02*
X178236786Y-108705295D01*
X178236786Y-108705295D02*
X178236786Y-108943390D01*
X178236786Y-108943390D02*
X178284405Y-109038628D01*
X178284405Y-109038628D02*
X178332024Y-109086247D01*
X178332024Y-109086247D02*
X178427262Y-109133866D01*
X178427262Y-109133866D02*
X178617738Y-109133866D01*
X178617738Y-109133866D02*
X178712976Y-109086247D01*
X178712976Y-109086247D02*
X178760595Y-109038628D01*
X178760595Y-109038628D02*
X178808214Y-108943390D01*
X175887142Y-105069819D02*
X175553809Y-104593628D01*
X175315714Y-105069819D02*
X175315714Y-104069819D01*
X175315714Y-104069819D02*
X175696666Y-104069819D01*
X175696666Y-104069819D02*
X175791904Y-104117438D01*
X175791904Y-104117438D02*
X175839523Y-104165057D01*
X175839523Y-104165057D02*
X175887142Y-104260295D01*
X175887142Y-104260295D02*
X175887142Y-104403152D01*
X175887142Y-104403152D02*
X175839523Y-104498390D01*
X175839523Y-104498390D02*
X175791904Y-104546009D01*
X175791904Y-104546009D02*
X175696666Y-104593628D01*
X175696666Y-104593628D02*
X175315714Y-104593628D01*
X176839523Y-105069819D02*
X176268095Y-105069819D01*
X176553809Y-105069819D02*
X176553809Y-104069819D01*
X176553809Y-104069819D02*
X176458571Y-104212676D01*
X176458571Y-104212676D02*
X176363333Y-104307914D01*
X176363333Y-104307914D02*
X176268095Y-104355533D01*
X177172857Y-104069819D02*
X177791904Y-104069819D01*
X177791904Y-104069819D02*
X177458571Y-104450771D01*
X177458571Y-104450771D02*
X177601428Y-104450771D01*
X177601428Y-104450771D02*
X177696666Y-104498390D01*
X177696666Y-104498390D02*
X177744285Y-104546009D01*
X177744285Y-104546009D02*
X177791904Y-104641247D01*
X177791904Y-104641247D02*
X177791904Y-104879342D01*
X177791904Y-104879342D02*
X177744285Y-104974580D01*
X177744285Y-104974580D02*
X177696666Y-105022200D01*
X177696666Y-105022200D02*
X177601428Y-105069819D01*
X177601428Y-105069819D02*
X177315714Y-105069819D01*
X177315714Y-105069819D02*
X177220476Y-105022200D01*
X177220476Y-105022200D02*
X177172857Y-104974580D01*
X192873333Y-130121819D02*
X192540000Y-129645628D01*
X192301905Y-130121819D02*
X192301905Y-129121819D01*
X192301905Y-129121819D02*
X192682857Y-129121819D01*
X192682857Y-129121819D02*
X192778095Y-129169438D01*
X192778095Y-129169438D02*
X192825714Y-129217057D01*
X192825714Y-129217057D02*
X192873333Y-129312295D01*
X192873333Y-129312295D02*
X192873333Y-129455152D01*
X192873333Y-129455152D02*
X192825714Y-129550390D01*
X192825714Y-129550390D02*
X192778095Y-129598009D01*
X192778095Y-129598009D02*
X192682857Y-129645628D01*
X192682857Y-129645628D02*
X192301905Y-129645628D01*
X193206667Y-129121819D02*
X193825714Y-129121819D01*
X193825714Y-129121819D02*
X193492381Y-129502771D01*
X193492381Y-129502771D02*
X193635238Y-129502771D01*
X193635238Y-129502771D02*
X193730476Y-129550390D01*
X193730476Y-129550390D02*
X193778095Y-129598009D01*
X193778095Y-129598009D02*
X193825714Y-129693247D01*
X193825714Y-129693247D02*
X193825714Y-129931342D01*
X193825714Y-129931342D02*
X193778095Y-130026580D01*
X193778095Y-130026580D02*
X193730476Y-130074200D01*
X193730476Y-130074200D02*
X193635238Y-130121819D01*
X193635238Y-130121819D02*
X193349524Y-130121819D01*
X193349524Y-130121819D02*
X193254286Y-130074200D01*
X193254286Y-130074200D02*
X193206667Y-130026580D01*
X199477333Y-97609819D02*
X199144000Y-97133628D01*
X198905905Y-97609819D02*
X198905905Y-96609819D01*
X198905905Y-96609819D02*
X199286857Y-96609819D01*
X199286857Y-96609819D02*
X199382095Y-96657438D01*
X199382095Y-96657438D02*
X199429714Y-96705057D01*
X199429714Y-96705057D02*
X199477333Y-96800295D01*
X199477333Y-96800295D02*
X199477333Y-96943152D01*
X199477333Y-96943152D02*
X199429714Y-97038390D01*
X199429714Y-97038390D02*
X199382095Y-97086009D01*
X199382095Y-97086009D02*
X199286857Y-97133628D01*
X199286857Y-97133628D02*
X198905905Y-97133628D01*
X200429714Y-97609819D02*
X199858286Y-97609819D01*
X200144000Y-97609819D02*
X200144000Y-96609819D01*
X200144000Y-96609819D02*
X200048762Y-96752676D01*
X200048762Y-96752676D02*
X199953524Y-96847914D01*
X199953524Y-96847914D02*
X199858286Y-96895533D01*
X182924411Y-104864819D02*
X182924411Y-105674342D01*
X182924411Y-105674342D02*
X182972030Y-105769580D01*
X182972030Y-105769580D02*
X183019649Y-105817200D01*
X183019649Y-105817200D02*
X183114887Y-105864819D01*
X183114887Y-105864819D02*
X183305363Y-105864819D01*
X183305363Y-105864819D02*
X183400601Y-105817200D01*
X183400601Y-105817200D02*
X183448220Y-105769580D01*
X183448220Y-105769580D02*
X183495839Y-105674342D01*
X183495839Y-105674342D02*
X183495839Y-104864819D01*
X184495839Y-105864819D02*
X183924411Y-105864819D01*
X184210125Y-105864819D02*
X184210125Y-104864819D01*
X184210125Y-104864819D02*
X184114887Y-105007676D01*
X184114887Y-105007676D02*
X184019649Y-105102914D01*
X184019649Y-105102914D02*
X183924411Y-105150533D01*
X157146666Y-91529819D02*
X157146666Y-92244104D01*
X157146666Y-92244104D02*
X157099047Y-92386961D01*
X157099047Y-92386961D02*
X157003809Y-92482200D01*
X157003809Y-92482200D02*
X156860952Y-92529819D01*
X156860952Y-92529819D02*
X156765714Y-92529819D01*
X157527619Y-91529819D02*
X158146666Y-91529819D01*
X158146666Y-91529819D02*
X157813333Y-91910771D01*
X157813333Y-91910771D02*
X157956190Y-91910771D01*
X157956190Y-91910771D02*
X158051428Y-91958390D01*
X158051428Y-91958390D02*
X158099047Y-92006009D01*
X158099047Y-92006009D02*
X158146666Y-92101247D01*
X158146666Y-92101247D02*
X158146666Y-92339342D01*
X158146666Y-92339342D02*
X158099047Y-92434580D01*
X158099047Y-92434580D02*
X158051428Y-92482200D01*
X158051428Y-92482200D02*
X157956190Y-92529819D01*
X157956190Y-92529819D02*
X157670476Y-92529819D01*
X157670476Y-92529819D02*
X157575238Y-92482200D01*
X157575238Y-92482200D02*
X157527619Y-92434580D01*
D12*
X148114048Y-86129600D02*
X148256905Y-86177219D01*
X148256905Y-86177219D02*
X148495000Y-86177219D01*
X148495000Y-86177219D02*
X148590238Y-86129600D01*
X148590238Y-86129600D02*
X148637857Y-86081980D01*
X148637857Y-86081980D02*
X148685476Y-85986742D01*
X148685476Y-85986742D02*
X148685476Y-85891504D01*
X148685476Y-85891504D02*
X148637857Y-85796266D01*
X148637857Y-85796266D02*
X148590238Y-85748647D01*
X148590238Y-85748647D02*
X148495000Y-85701028D01*
X148495000Y-85701028D02*
X148304524Y-85653409D01*
X148304524Y-85653409D02*
X148209286Y-85605790D01*
X148209286Y-85605790D02*
X148161667Y-85558171D01*
X148161667Y-85558171D02*
X148114048Y-85462933D01*
X148114048Y-85462933D02*
X148114048Y-85367695D01*
X148114048Y-85367695D02*
X148161667Y-85272457D01*
X148161667Y-85272457D02*
X148209286Y-85224838D01*
X148209286Y-85224838D02*
X148304524Y-85177219D01*
X148304524Y-85177219D02*
X148542619Y-85177219D01*
X148542619Y-85177219D02*
X148685476Y-85224838D01*
X149114048Y-86177219D02*
X149114048Y-85177219D01*
X150114047Y-85224838D02*
X150018809Y-85177219D01*
X150018809Y-85177219D02*
X149875952Y-85177219D01*
X149875952Y-85177219D02*
X149733095Y-85224838D01*
X149733095Y-85224838D02*
X149637857Y-85320076D01*
X149637857Y-85320076D02*
X149590238Y-85415314D01*
X149590238Y-85415314D02*
X149542619Y-85605790D01*
X149542619Y-85605790D02*
X149542619Y-85748647D01*
X149542619Y-85748647D02*
X149590238Y-85939123D01*
X149590238Y-85939123D02*
X149637857Y-86034361D01*
X149637857Y-86034361D02*
X149733095Y-86129600D01*
X149733095Y-86129600D02*
X149875952Y-86177219D01*
X149875952Y-86177219D02*
X149971190Y-86177219D01*
X149971190Y-86177219D02*
X150114047Y-86129600D01*
X150114047Y-86129600D02*
X150161666Y-86081980D01*
X150161666Y-86081980D02*
X150161666Y-85748647D01*
X150161666Y-85748647D02*
X149971190Y-85748647D01*
X150590238Y-86177219D02*
X150590238Y-85177219D01*
X150590238Y-85177219D02*
X151161666Y-86177219D01*
X151161666Y-86177219D02*
X151161666Y-85177219D01*
X151590238Y-85891504D02*
X152066428Y-85891504D01*
X151495000Y-86177219D02*
X151828333Y-85177219D01*
X151828333Y-85177219D02*
X152161666Y-86177219D01*
X152971190Y-86177219D02*
X152495000Y-86177219D01*
X152495000Y-86177219D02*
X152495000Y-85177219D01*
D11*
X149269411Y-114389819D02*
X149269411Y-115199342D01*
X149269411Y-115199342D02*
X149317030Y-115294580D01*
X149317030Y-115294580D02*
X149364649Y-115342200D01*
X149364649Y-115342200D02*
X149459887Y-115389819D01*
X149459887Y-115389819D02*
X149650363Y-115389819D01*
X149650363Y-115389819D02*
X149745601Y-115342200D01*
X149745601Y-115342200D02*
X149793220Y-115294580D01*
X149793220Y-115294580D02*
X149840839Y-115199342D01*
X149840839Y-115199342D02*
X149840839Y-114389819D01*
X150269411Y-114485057D02*
X150317030Y-114437438D01*
X150317030Y-114437438D02*
X150412268Y-114389819D01*
X150412268Y-114389819D02*
X150650363Y-114389819D01*
X150650363Y-114389819D02*
X150745601Y-114437438D01*
X150745601Y-114437438D02*
X150793220Y-114485057D01*
X150793220Y-114485057D02*
X150840839Y-114580295D01*
X150840839Y-114580295D02*
X150840839Y-114675533D01*
X150840839Y-114675533D02*
X150793220Y-114818390D01*
X150793220Y-114818390D02*
X150221792Y-115389819D01*
X150221792Y-115389819D02*
X150840839Y-115389819D01*
X166203333Y-121009580D02*
X166155714Y-121057200D01*
X166155714Y-121057200D02*
X166012857Y-121104819D01*
X166012857Y-121104819D02*
X165917619Y-121104819D01*
X165917619Y-121104819D02*
X165774762Y-121057200D01*
X165774762Y-121057200D02*
X165679524Y-120961961D01*
X165679524Y-120961961D02*
X165631905Y-120866723D01*
X165631905Y-120866723D02*
X165584286Y-120676247D01*
X165584286Y-120676247D02*
X165584286Y-120533390D01*
X165584286Y-120533390D02*
X165631905Y-120342914D01*
X165631905Y-120342914D02*
X165679524Y-120247676D01*
X165679524Y-120247676D02*
X165774762Y-120152438D01*
X165774762Y-120152438D02*
X165917619Y-120104819D01*
X165917619Y-120104819D02*
X166012857Y-120104819D01*
X166012857Y-120104819D02*
X166155714Y-120152438D01*
X166155714Y-120152438D02*
X166203333Y-120200057D01*
X167060476Y-120438152D02*
X167060476Y-121104819D01*
X166822381Y-120057200D02*
X166584286Y-120771485D01*
X166584286Y-120771485D02*
X167203333Y-120771485D01*
X145518333Y-99464580D02*
X145470714Y-99512200D01*
X145470714Y-99512200D02*
X145327857Y-99559819D01*
X145327857Y-99559819D02*
X145232619Y-99559819D01*
X145232619Y-99559819D02*
X145089762Y-99512200D01*
X145089762Y-99512200D02*
X144994524Y-99416961D01*
X144994524Y-99416961D02*
X144946905Y-99321723D01*
X144946905Y-99321723D02*
X144899286Y-99131247D01*
X144899286Y-99131247D02*
X144899286Y-98988390D01*
X144899286Y-98988390D02*
X144946905Y-98797914D01*
X144946905Y-98797914D02*
X144994524Y-98702676D01*
X144994524Y-98702676D02*
X145089762Y-98607438D01*
X145089762Y-98607438D02*
X145232619Y-98559819D01*
X145232619Y-98559819D02*
X145327857Y-98559819D01*
X145327857Y-98559819D02*
X145470714Y-98607438D01*
X145470714Y-98607438D02*
X145518333Y-98655057D01*
X145851667Y-98559819D02*
X146470714Y-98559819D01*
X146470714Y-98559819D02*
X146137381Y-98940771D01*
X146137381Y-98940771D02*
X146280238Y-98940771D01*
X146280238Y-98940771D02*
X146375476Y-98988390D01*
X146375476Y-98988390D02*
X146423095Y-99036009D01*
X146423095Y-99036009D02*
X146470714Y-99131247D01*
X146470714Y-99131247D02*
X146470714Y-99369342D01*
X146470714Y-99369342D02*
X146423095Y-99464580D01*
X146423095Y-99464580D02*
X146375476Y-99512200D01*
X146375476Y-99512200D02*
X146280238Y-99559819D01*
X146280238Y-99559819D02*
X145994524Y-99559819D01*
X145994524Y-99559819D02*
X145899286Y-99512200D01*
X145899286Y-99512200D02*
X145851667Y-99464580D01*
X147748666Y-124549819D02*
X147748666Y-125264104D01*
X147748666Y-125264104D02*
X147701047Y-125406961D01*
X147701047Y-125406961D02*
X147605809Y-125502200D01*
X147605809Y-125502200D02*
X147462952Y-125549819D01*
X147462952Y-125549819D02*
X147367714Y-125549819D01*
X148653428Y-124883152D02*
X148653428Y-125549819D01*
X148415333Y-124502200D02*
X148177238Y-125216485D01*
X148177238Y-125216485D02*
X148796285Y-125216485D01*
X162583333Y-95544819D02*
X162250000Y-95068628D01*
X162011905Y-95544819D02*
X162011905Y-94544819D01*
X162011905Y-94544819D02*
X162392857Y-94544819D01*
X162392857Y-94544819D02*
X162488095Y-94592438D01*
X162488095Y-94592438D02*
X162535714Y-94640057D01*
X162535714Y-94640057D02*
X162583333Y-94735295D01*
X162583333Y-94735295D02*
X162583333Y-94878152D01*
X162583333Y-94878152D02*
X162535714Y-94973390D01*
X162535714Y-94973390D02*
X162488095Y-95021009D01*
X162488095Y-95021009D02*
X162392857Y-95068628D01*
X162392857Y-95068628D02*
X162011905Y-95068628D01*
X163154762Y-94973390D02*
X163059524Y-94925771D01*
X163059524Y-94925771D02*
X163011905Y-94878152D01*
X163011905Y-94878152D02*
X162964286Y-94782914D01*
X162964286Y-94782914D02*
X162964286Y-94735295D01*
X162964286Y-94735295D02*
X163011905Y-94640057D01*
X163011905Y-94640057D02*
X163059524Y-94592438D01*
X163059524Y-94592438D02*
X163154762Y-94544819D01*
X163154762Y-94544819D02*
X163345238Y-94544819D01*
X163345238Y-94544819D02*
X163440476Y-94592438D01*
X163440476Y-94592438D02*
X163488095Y-94640057D01*
X163488095Y-94640057D02*
X163535714Y-94735295D01*
X163535714Y-94735295D02*
X163535714Y-94782914D01*
X163535714Y-94782914D02*
X163488095Y-94878152D01*
X163488095Y-94878152D02*
X163440476Y-94925771D01*
X163440476Y-94925771D02*
X163345238Y-94973390D01*
X163345238Y-94973390D02*
X163154762Y-94973390D01*
X163154762Y-94973390D02*
X163059524Y-95021009D01*
X163059524Y-95021009D02*
X163011905Y-95068628D01*
X163011905Y-95068628D02*
X162964286Y-95163866D01*
X162964286Y-95163866D02*
X162964286Y-95354342D01*
X162964286Y-95354342D02*
X163011905Y-95449580D01*
X163011905Y-95449580D02*
X163059524Y-95497200D01*
X163059524Y-95497200D02*
X163154762Y-95544819D01*
X163154762Y-95544819D02*
X163345238Y-95544819D01*
X163345238Y-95544819D02*
X163440476Y-95497200D01*
X163440476Y-95497200D02*
X163488095Y-95449580D01*
X163488095Y-95449580D02*
X163535714Y-95354342D01*
X163535714Y-95354342D02*
X163535714Y-95163866D01*
X163535714Y-95163866D02*
X163488095Y-95068628D01*
X163488095Y-95068628D02*
X163440476Y-95021009D01*
X163440476Y-95021009D02*
X163345238Y-94973390D01*
X161758333Y-114659580D02*
X161710714Y-114707200D01*
X161710714Y-114707200D02*
X161567857Y-114754819D01*
X161567857Y-114754819D02*
X161472619Y-114754819D01*
X161472619Y-114754819D02*
X161329762Y-114707200D01*
X161329762Y-114707200D02*
X161234524Y-114611961D01*
X161234524Y-114611961D02*
X161186905Y-114516723D01*
X161186905Y-114516723D02*
X161139286Y-114326247D01*
X161139286Y-114326247D02*
X161139286Y-114183390D01*
X161139286Y-114183390D02*
X161186905Y-113992914D01*
X161186905Y-113992914D02*
X161234524Y-113897676D01*
X161234524Y-113897676D02*
X161329762Y-113802438D01*
X161329762Y-113802438D02*
X161472619Y-113754819D01*
X161472619Y-113754819D02*
X161567857Y-113754819D01*
X161567857Y-113754819D02*
X161710714Y-113802438D01*
X161710714Y-113802438D02*
X161758333Y-113850057D01*
X162615476Y-113754819D02*
X162425000Y-113754819D01*
X162425000Y-113754819D02*
X162329762Y-113802438D01*
X162329762Y-113802438D02*
X162282143Y-113850057D01*
X162282143Y-113850057D02*
X162186905Y-113992914D01*
X162186905Y-113992914D02*
X162139286Y-114183390D01*
X162139286Y-114183390D02*
X162139286Y-114564342D01*
X162139286Y-114564342D02*
X162186905Y-114659580D01*
X162186905Y-114659580D02*
X162234524Y-114707200D01*
X162234524Y-114707200D02*
X162329762Y-114754819D01*
X162329762Y-114754819D02*
X162520238Y-114754819D01*
X162520238Y-114754819D02*
X162615476Y-114707200D01*
X162615476Y-114707200D02*
X162663095Y-114659580D01*
X162663095Y-114659580D02*
X162710714Y-114564342D01*
X162710714Y-114564342D02*
X162710714Y-114326247D01*
X162710714Y-114326247D02*
X162663095Y-114231009D01*
X162663095Y-114231009D02*
X162615476Y-114183390D01*
X162615476Y-114183390D02*
X162520238Y-114135771D01*
X162520238Y-114135771D02*
X162329762Y-114135771D01*
X162329762Y-114135771D02*
X162234524Y-114183390D01*
X162234524Y-114183390D02*
X162186905Y-114231009D01*
X162186905Y-114231009D02*
X162139286Y-114326247D01*
X154773333Y-109424580D02*
X154725714Y-109472200D01*
X154725714Y-109472200D02*
X154582857Y-109519819D01*
X154582857Y-109519819D02*
X154487619Y-109519819D01*
X154487619Y-109519819D02*
X154344762Y-109472200D01*
X154344762Y-109472200D02*
X154249524Y-109376961D01*
X154249524Y-109376961D02*
X154201905Y-109281723D01*
X154201905Y-109281723D02*
X154154286Y-109091247D01*
X154154286Y-109091247D02*
X154154286Y-108948390D01*
X154154286Y-108948390D02*
X154201905Y-108757914D01*
X154201905Y-108757914D02*
X154249524Y-108662676D01*
X154249524Y-108662676D02*
X154344762Y-108567438D01*
X154344762Y-108567438D02*
X154487619Y-108519819D01*
X154487619Y-108519819D02*
X154582857Y-108519819D01*
X154582857Y-108519819D02*
X154725714Y-108567438D01*
X154725714Y-108567438D02*
X154773333Y-108615057D01*
X155154286Y-108615057D02*
X155201905Y-108567438D01*
X155201905Y-108567438D02*
X155297143Y-108519819D01*
X155297143Y-108519819D02*
X155535238Y-108519819D01*
X155535238Y-108519819D02*
X155630476Y-108567438D01*
X155630476Y-108567438D02*
X155678095Y-108615057D01*
X155678095Y-108615057D02*
X155725714Y-108710295D01*
X155725714Y-108710295D02*
X155725714Y-108805533D01*
X155725714Y-108805533D02*
X155678095Y-108948390D01*
X155678095Y-108948390D02*
X155106667Y-109519819D01*
X155106667Y-109519819D02*
X155725714Y-109519819D01*
X173347142Y-95544819D02*
X173013809Y-95068628D01*
X172775714Y-95544819D02*
X172775714Y-94544819D01*
X172775714Y-94544819D02*
X173156666Y-94544819D01*
X173156666Y-94544819D02*
X173251904Y-94592438D01*
X173251904Y-94592438D02*
X173299523Y-94640057D01*
X173299523Y-94640057D02*
X173347142Y-94735295D01*
X173347142Y-94735295D02*
X173347142Y-94878152D01*
X173347142Y-94878152D02*
X173299523Y-94973390D01*
X173299523Y-94973390D02*
X173251904Y-95021009D01*
X173251904Y-95021009D02*
X173156666Y-95068628D01*
X173156666Y-95068628D02*
X172775714Y-95068628D01*
X174299523Y-95544819D02*
X173728095Y-95544819D01*
X174013809Y-95544819D02*
X174013809Y-94544819D01*
X174013809Y-94544819D02*
X173918571Y-94687676D01*
X173918571Y-94687676D02*
X173823333Y-94782914D01*
X173823333Y-94782914D02*
X173728095Y-94830533D01*
X175156666Y-94878152D02*
X175156666Y-95544819D01*
X174918571Y-94497200D02*
X174680476Y-95211485D01*
X174680476Y-95211485D02*
X175299523Y-95211485D01*
X163734761Y-100880057D02*
X163639523Y-100832438D01*
X163639523Y-100832438D02*
X163544285Y-100737200D01*
X163544285Y-100737200D02*
X163401428Y-100594342D01*
X163401428Y-100594342D02*
X163306190Y-100546723D01*
X163306190Y-100546723D02*
X163210952Y-100546723D01*
X163258571Y-100784819D02*
X163163333Y-100737200D01*
X163163333Y-100737200D02*
X163068095Y-100641961D01*
X163068095Y-100641961D02*
X163020476Y-100451485D01*
X163020476Y-100451485D02*
X163020476Y-100118152D01*
X163020476Y-100118152D02*
X163068095Y-99927676D01*
X163068095Y-99927676D02*
X163163333Y-99832438D01*
X163163333Y-99832438D02*
X163258571Y-99784819D01*
X163258571Y-99784819D02*
X163449047Y-99784819D01*
X163449047Y-99784819D02*
X163544285Y-99832438D01*
X163544285Y-99832438D02*
X163639523Y-99927676D01*
X163639523Y-99927676D02*
X163687142Y-100118152D01*
X163687142Y-100118152D02*
X163687142Y-100451485D01*
X163687142Y-100451485D02*
X163639523Y-100641961D01*
X163639523Y-100641961D02*
X163544285Y-100737200D01*
X163544285Y-100737200D02*
X163449047Y-100784819D01*
X163449047Y-100784819D02*
X163258571Y-100784819D01*
X164068095Y-99880057D02*
X164115714Y-99832438D01*
X164115714Y-99832438D02*
X164210952Y-99784819D01*
X164210952Y-99784819D02*
X164449047Y-99784819D01*
X164449047Y-99784819D02*
X164544285Y-99832438D01*
X164544285Y-99832438D02*
X164591904Y-99880057D01*
X164591904Y-99880057D02*
X164639523Y-99975295D01*
X164639523Y-99975295D02*
X164639523Y-100070533D01*
X164639523Y-100070533D02*
X164591904Y-100213390D01*
X164591904Y-100213390D02*
X164020476Y-100784819D01*
X164020476Y-100784819D02*
X164639523Y-100784819D01*
X169449761Y-100880057D02*
X169354523Y-100832438D01*
X169354523Y-100832438D02*
X169259285Y-100737200D01*
X169259285Y-100737200D02*
X169116428Y-100594342D01*
X169116428Y-100594342D02*
X169021190Y-100546723D01*
X169021190Y-100546723D02*
X168925952Y-100546723D01*
X168973571Y-100784819D02*
X168878333Y-100737200D01*
X168878333Y-100737200D02*
X168783095Y-100641961D01*
X168783095Y-100641961D02*
X168735476Y-100451485D01*
X168735476Y-100451485D02*
X168735476Y-100118152D01*
X168735476Y-100118152D02*
X168783095Y-99927676D01*
X168783095Y-99927676D02*
X168878333Y-99832438D01*
X168878333Y-99832438D02*
X168973571Y-99784819D01*
X168973571Y-99784819D02*
X169164047Y-99784819D01*
X169164047Y-99784819D02*
X169259285Y-99832438D01*
X169259285Y-99832438D02*
X169354523Y-99927676D01*
X169354523Y-99927676D02*
X169402142Y-100118152D01*
X169402142Y-100118152D02*
X169402142Y-100451485D01*
X169402142Y-100451485D02*
X169354523Y-100641961D01*
X169354523Y-100641961D02*
X169259285Y-100737200D01*
X169259285Y-100737200D02*
X169164047Y-100784819D01*
X169164047Y-100784819D02*
X168973571Y-100784819D01*
X169735476Y-99784819D02*
X170354523Y-99784819D01*
X170354523Y-99784819D02*
X170021190Y-100165771D01*
X170021190Y-100165771D02*
X170164047Y-100165771D01*
X170164047Y-100165771D02*
X170259285Y-100213390D01*
X170259285Y-100213390D02*
X170306904Y-100261009D01*
X170306904Y-100261009D02*
X170354523Y-100356247D01*
X170354523Y-100356247D02*
X170354523Y-100594342D01*
X170354523Y-100594342D02*
X170306904Y-100689580D01*
X170306904Y-100689580D02*
X170259285Y-100737200D01*
X170259285Y-100737200D02*
X170164047Y-100784819D01*
X170164047Y-100784819D02*
X169878333Y-100784819D01*
X169878333Y-100784819D02*
X169783095Y-100737200D01*
X169783095Y-100737200D02*
X169735476Y-100689580D01*
X167632142Y-95544819D02*
X167298809Y-95068628D01*
X167060714Y-95544819D02*
X167060714Y-94544819D01*
X167060714Y-94544819D02*
X167441666Y-94544819D01*
X167441666Y-94544819D02*
X167536904Y-94592438D01*
X167536904Y-94592438D02*
X167584523Y-94640057D01*
X167584523Y-94640057D02*
X167632142Y-94735295D01*
X167632142Y-94735295D02*
X167632142Y-94878152D01*
X167632142Y-94878152D02*
X167584523Y-94973390D01*
X167584523Y-94973390D02*
X167536904Y-95021009D01*
X167536904Y-95021009D02*
X167441666Y-95068628D01*
X167441666Y-95068628D02*
X167060714Y-95068628D01*
X168584523Y-95544819D02*
X168013095Y-95544819D01*
X168298809Y-95544819D02*
X168298809Y-94544819D01*
X168298809Y-94544819D02*
X168203571Y-94687676D01*
X168203571Y-94687676D02*
X168108333Y-94782914D01*
X168108333Y-94782914D02*
X168013095Y-94830533D01*
X169536904Y-95544819D02*
X168965476Y-95544819D01*
X169251190Y-95544819D02*
X169251190Y-94544819D01*
X169251190Y-94544819D02*
X169155952Y-94687676D01*
X169155952Y-94687676D02*
X169060714Y-94782914D01*
X169060714Y-94782914D02*
X168965476Y-94830533D01*
X196683333Y-97609819D02*
X196350000Y-97133628D01*
X196111905Y-97609819D02*
X196111905Y-96609819D01*
X196111905Y-96609819D02*
X196492857Y-96609819D01*
X196492857Y-96609819D02*
X196588095Y-96657438D01*
X196588095Y-96657438D02*
X196635714Y-96705057D01*
X196635714Y-96705057D02*
X196683333Y-96800295D01*
X196683333Y-96800295D02*
X196683333Y-96943152D01*
X196683333Y-96943152D02*
X196635714Y-97038390D01*
X196635714Y-97038390D02*
X196588095Y-97086009D01*
X196588095Y-97086009D02*
X196492857Y-97133628D01*
X196492857Y-97133628D02*
X196111905Y-97133628D01*
X197064286Y-96705057D02*
X197111905Y-96657438D01*
X197111905Y-96657438D02*
X197207143Y-96609819D01*
X197207143Y-96609819D02*
X197445238Y-96609819D01*
X197445238Y-96609819D02*
X197540476Y-96657438D01*
X197540476Y-96657438D02*
X197588095Y-96705057D01*
X197588095Y-96705057D02*
X197635714Y-96800295D01*
X197635714Y-96800295D02*
X197635714Y-96895533D01*
X197635714Y-96895533D02*
X197588095Y-97038390D01*
X197588095Y-97038390D02*
X197016667Y-97609819D01*
X197016667Y-97609819D02*
X197635714Y-97609819D01*
X161965533Y-109039819D02*
X161632200Y-108563628D01*
X161394105Y-109039819D02*
X161394105Y-108039819D01*
X161394105Y-108039819D02*
X161775057Y-108039819D01*
X161775057Y-108039819D02*
X161870295Y-108087438D01*
X161870295Y-108087438D02*
X161917914Y-108135057D01*
X161917914Y-108135057D02*
X161965533Y-108230295D01*
X161965533Y-108230295D02*
X161965533Y-108373152D01*
X161965533Y-108373152D02*
X161917914Y-108468390D01*
X161917914Y-108468390D02*
X161870295Y-108516009D01*
X161870295Y-108516009D02*
X161775057Y-108563628D01*
X161775057Y-108563628D02*
X161394105Y-108563628D01*
X162298867Y-108039819D02*
X162965533Y-108039819D01*
X162965533Y-108039819D02*
X162536962Y-109039819D01*
X157146666Y-78194819D02*
X157146666Y-78909104D01*
X157146666Y-78909104D02*
X157099047Y-79051961D01*
X157099047Y-79051961D02*
X157003809Y-79147200D01*
X157003809Y-79147200D02*
X156860952Y-79194819D01*
X156860952Y-79194819D02*
X156765714Y-79194819D01*
X157575238Y-78290057D02*
X157622857Y-78242438D01*
X157622857Y-78242438D02*
X157718095Y-78194819D01*
X157718095Y-78194819D02*
X157956190Y-78194819D01*
X157956190Y-78194819D02*
X158051428Y-78242438D01*
X158051428Y-78242438D02*
X158099047Y-78290057D01*
X158099047Y-78290057D02*
X158146666Y-78385295D01*
X158146666Y-78385295D02*
X158146666Y-78480533D01*
X158146666Y-78480533D02*
X158099047Y-78623390D01*
X158099047Y-78623390D02*
X157527619Y-79194819D01*
X157527619Y-79194819D02*
X158146666Y-79194819D01*
D12*
X148185476Y-74112219D02*
X148185476Y-73112219D01*
X148185476Y-73112219D02*
X148566428Y-73112219D01*
X148566428Y-73112219D02*
X148661666Y-73159838D01*
X148661666Y-73159838D02*
X148709285Y-73207457D01*
X148709285Y-73207457D02*
X148756904Y-73302695D01*
X148756904Y-73302695D02*
X148756904Y-73445552D01*
X148756904Y-73445552D02*
X148709285Y-73540790D01*
X148709285Y-73540790D02*
X148661666Y-73588409D01*
X148661666Y-73588409D02*
X148566428Y-73636028D01*
X148566428Y-73636028D02*
X148185476Y-73636028D01*
X149375952Y-73112219D02*
X149566428Y-73112219D01*
X149566428Y-73112219D02*
X149661666Y-73159838D01*
X149661666Y-73159838D02*
X149756904Y-73255076D01*
X149756904Y-73255076D02*
X149804523Y-73445552D01*
X149804523Y-73445552D02*
X149804523Y-73778885D01*
X149804523Y-73778885D02*
X149756904Y-73969361D01*
X149756904Y-73969361D02*
X149661666Y-74064600D01*
X149661666Y-74064600D02*
X149566428Y-74112219D01*
X149566428Y-74112219D02*
X149375952Y-74112219D01*
X149375952Y-74112219D02*
X149280714Y-74064600D01*
X149280714Y-74064600D02*
X149185476Y-73969361D01*
X149185476Y-73969361D02*
X149137857Y-73778885D01*
X149137857Y-73778885D02*
X149137857Y-73445552D01*
X149137857Y-73445552D02*
X149185476Y-73255076D01*
X149185476Y-73255076D02*
X149280714Y-73159838D01*
X149280714Y-73159838D02*
X149375952Y-73112219D01*
X150137857Y-73112219D02*
X150375952Y-74112219D01*
X150375952Y-74112219D02*
X150566428Y-73397933D01*
X150566428Y-73397933D02*
X150756904Y-74112219D01*
X150756904Y-74112219D02*
X150995000Y-73112219D01*
X151375952Y-73588409D02*
X151709285Y-73588409D01*
X151852142Y-74112219D02*
X151375952Y-74112219D01*
X151375952Y-74112219D02*
X151375952Y-73112219D01*
X151375952Y-73112219D02*
X151852142Y-73112219D01*
X152852142Y-74112219D02*
X152518809Y-73636028D01*
X152280714Y-74112219D02*
X152280714Y-73112219D01*
X152280714Y-73112219D02*
X152661666Y-73112219D01*
X152661666Y-73112219D02*
X152756904Y-73159838D01*
X152756904Y-73159838D02*
X152804523Y-73207457D01*
X152804523Y-73207457D02*
X152852142Y-73302695D01*
X152852142Y-73302695D02*
X152852142Y-73445552D01*
X152852142Y-73445552D02*
X152804523Y-73540790D01*
X152804523Y-73540790D02*
X152756904Y-73588409D01*
X152756904Y-73588409D02*
X152661666Y-73636028D01*
X152661666Y-73636028D02*
X152280714Y-73636028D01*
D11*
X186203333Y-99009580D02*
X186155714Y-99057200D01*
X186155714Y-99057200D02*
X186012857Y-99104819D01*
X186012857Y-99104819D02*
X185917619Y-99104819D01*
X185917619Y-99104819D02*
X185774762Y-99057200D01*
X185774762Y-99057200D02*
X185679524Y-98961961D01*
X185679524Y-98961961D02*
X185631905Y-98866723D01*
X185631905Y-98866723D02*
X185584286Y-98676247D01*
X185584286Y-98676247D02*
X185584286Y-98533390D01*
X185584286Y-98533390D02*
X185631905Y-98342914D01*
X185631905Y-98342914D02*
X185679524Y-98247676D01*
X185679524Y-98247676D02*
X185774762Y-98152438D01*
X185774762Y-98152438D02*
X185917619Y-98104819D01*
X185917619Y-98104819D02*
X186012857Y-98104819D01*
X186012857Y-98104819D02*
X186155714Y-98152438D01*
X186155714Y-98152438D02*
X186203333Y-98200057D01*
X187155714Y-99104819D02*
X186584286Y-99104819D01*
X186870000Y-99104819D02*
X186870000Y-98104819D01*
X186870000Y-98104819D02*
X186774762Y-98247676D01*
X186774762Y-98247676D02*
X186679524Y-98342914D01*
X186679524Y-98342914D02*
X186584286Y-98390533D01*
X167255979Y-109039819D02*
X166922646Y-108563628D01*
X166684551Y-109039819D02*
X166684551Y-108039819D01*
X166684551Y-108039819D02*
X167065503Y-108039819D01*
X167065503Y-108039819D02*
X167160741Y-108087438D01*
X167160741Y-108087438D02*
X167208360Y-108135057D01*
X167208360Y-108135057D02*
X167255979Y-108230295D01*
X167255979Y-108230295D02*
X167255979Y-108373152D01*
X167255979Y-108373152D02*
X167208360Y-108468390D01*
X167208360Y-108468390D02*
X167160741Y-108516009D01*
X167160741Y-108516009D02*
X167065503Y-108563628D01*
X167065503Y-108563628D02*
X166684551Y-108563628D01*
X168208360Y-109039819D02*
X167636932Y-109039819D01*
X167922646Y-109039819D02*
X167922646Y-108039819D01*
X167922646Y-108039819D02*
X167827408Y-108182676D01*
X167827408Y-108182676D02*
X167732170Y-108277914D01*
X167732170Y-108277914D02*
X167636932Y-108325533D01*
X168827408Y-108039819D02*
X168922646Y-108039819D01*
X168922646Y-108039819D02*
X169017884Y-108087438D01*
X169017884Y-108087438D02*
X169065503Y-108135057D01*
X169065503Y-108135057D02*
X169113122Y-108230295D01*
X169113122Y-108230295D02*
X169160741Y-108420771D01*
X169160741Y-108420771D02*
X169160741Y-108658866D01*
X169160741Y-108658866D02*
X169113122Y-108849342D01*
X169113122Y-108849342D02*
X169065503Y-108944580D01*
X169065503Y-108944580D02*
X169017884Y-108992200D01*
X169017884Y-108992200D02*
X168922646Y-109039819D01*
X168922646Y-109039819D02*
X168827408Y-109039819D01*
X168827408Y-109039819D02*
X168732170Y-108992200D01*
X168732170Y-108992200D02*
X168684551Y-108944580D01*
X168684551Y-108944580D02*
X168636932Y-108849342D01*
X168636932Y-108849342D02*
X168589313Y-108658866D01*
X168589313Y-108658866D02*
X168589313Y-108420771D01*
X168589313Y-108420771D02*
X168636932Y-108230295D01*
X168636932Y-108230295D02*
X168684551Y-108135057D01*
X168684551Y-108135057D02*
X168732170Y-108087438D01*
X168732170Y-108087438D02*
X168827408Y-108039819D01*
X190333333Y-130121819D02*
X190000000Y-129645628D01*
X189761905Y-130121819D02*
X189761905Y-129121819D01*
X189761905Y-129121819D02*
X190142857Y-129121819D01*
X190142857Y-129121819D02*
X190238095Y-129169438D01*
X190238095Y-129169438D02*
X190285714Y-129217057D01*
X190285714Y-129217057D02*
X190333333Y-129312295D01*
X190333333Y-129312295D02*
X190333333Y-129455152D01*
X190333333Y-129455152D02*
X190285714Y-129550390D01*
X190285714Y-129550390D02*
X190238095Y-129598009D01*
X190238095Y-129598009D02*
X190142857Y-129645628D01*
X190142857Y-129645628D02*
X189761905Y-129645628D01*
X191190476Y-129455152D02*
X191190476Y-130121819D01*
X190952381Y-129074200D02*
X190714286Y-129788485D01*
X190714286Y-129788485D02*
X191333333Y-129788485D01*
X171505833Y-111419819D02*
X171172500Y-110943628D01*
X170934405Y-111419819D02*
X170934405Y-110419819D01*
X170934405Y-110419819D02*
X171315357Y-110419819D01*
X171315357Y-110419819D02*
X171410595Y-110467438D01*
X171410595Y-110467438D02*
X171458214Y-110515057D01*
X171458214Y-110515057D02*
X171505833Y-110610295D01*
X171505833Y-110610295D02*
X171505833Y-110753152D01*
X171505833Y-110753152D02*
X171458214Y-110848390D01*
X171458214Y-110848390D02*
X171410595Y-110896009D01*
X171410595Y-110896009D02*
X171315357Y-110943628D01*
X171315357Y-110943628D02*
X170934405Y-110943628D01*
X172362976Y-110419819D02*
X172172500Y-110419819D01*
X172172500Y-110419819D02*
X172077262Y-110467438D01*
X172077262Y-110467438D02*
X172029643Y-110515057D01*
X172029643Y-110515057D02*
X171934405Y-110657914D01*
X171934405Y-110657914D02*
X171886786Y-110848390D01*
X171886786Y-110848390D02*
X171886786Y-111229342D01*
X171886786Y-111229342D02*
X171934405Y-111324580D01*
X171934405Y-111324580D02*
X171982024Y-111372200D01*
X171982024Y-111372200D02*
X172077262Y-111419819D01*
X172077262Y-111419819D02*
X172267738Y-111419819D01*
X172267738Y-111419819D02*
X172362976Y-111372200D01*
X172362976Y-111372200D02*
X172410595Y-111324580D01*
X172410595Y-111324580D02*
X172458214Y-111229342D01*
X172458214Y-111229342D02*
X172458214Y-110991247D01*
X172458214Y-110991247D02*
X172410595Y-110896009D01*
X172410595Y-110896009D02*
X172362976Y-110848390D01*
X172362976Y-110848390D02*
X172267738Y-110800771D01*
X172267738Y-110800771D02*
X172077262Y-110800771D01*
X172077262Y-110800771D02*
X171982024Y-110848390D01*
X171982024Y-110848390D02*
X171934405Y-110896009D01*
X171934405Y-110896009D02*
X171886786Y-110991247D01*
X179371666Y-128359819D02*
X179371666Y-129074104D01*
X179371666Y-129074104D02*
X179324047Y-129216961D01*
X179324047Y-129216961D02*
X179228809Y-129312200D01*
X179228809Y-129312200D02*
X179085952Y-129359819D01*
X179085952Y-129359819D02*
X178990714Y-129359819D01*
X180371666Y-129359819D02*
X179800238Y-129359819D01*
X180085952Y-129359819D02*
X180085952Y-128359819D01*
X180085952Y-128359819D02*
X179990714Y-128502676D01*
X179990714Y-128502676D02*
X179895476Y-128597914D01*
X179895476Y-128597914D02*
X179800238Y-128645533D01*
D12*
X171759762Y-131532219D02*
X171759762Y-132341742D01*
X171759762Y-132341742D02*
X171807381Y-132436980D01*
X171807381Y-132436980D02*
X171855000Y-132484600D01*
X171855000Y-132484600D02*
X171950238Y-132532219D01*
X171950238Y-132532219D02*
X172140714Y-132532219D01*
X172140714Y-132532219D02*
X172235952Y-132484600D01*
X172235952Y-132484600D02*
X172283571Y-132436980D01*
X172283571Y-132436980D02*
X172331190Y-132341742D01*
X172331190Y-132341742D02*
X172331190Y-131532219D01*
X172759762Y-132246504D02*
X173235952Y-132246504D01*
X172664524Y-132532219D02*
X172997857Y-131532219D01*
X172997857Y-131532219D02*
X173331190Y-132532219D01*
X174235952Y-132532219D02*
X173902619Y-132056028D01*
X173664524Y-132532219D02*
X173664524Y-131532219D01*
X173664524Y-131532219D02*
X174045476Y-131532219D01*
X174045476Y-131532219D02*
X174140714Y-131579838D01*
X174140714Y-131579838D02*
X174188333Y-131627457D01*
X174188333Y-131627457D02*
X174235952Y-131722695D01*
X174235952Y-131722695D02*
X174235952Y-131865552D01*
X174235952Y-131865552D02*
X174188333Y-131960790D01*
X174188333Y-131960790D02*
X174140714Y-132008409D01*
X174140714Y-132008409D02*
X174045476Y-132056028D01*
X174045476Y-132056028D02*
X173664524Y-132056028D01*
X174521667Y-131532219D02*
X175093095Y-131532219D01*
X174807381Y-132532219D02*
X174807381Y-131532219D01*
D13*
%TO.C,SW2*%
X201190000Y-73280000D02*
X201190000Y-73880000D01*
X201190000Y-75980000D02*
X201190000Y-76580000D01*
X201190000Y-76580000D02*
X205490000Y-76580000D01*
X205490000Y-73280000D02*
X201190000Y-73280000D01*
X205490000Y-73880000D02*
X205490000Y-73280000D01*
X205490000Y-76580000D02*
X205490000Y-75980000D01*
%TO.C,C5*%
X164365000Y-116893748D02*
X164365000Y-117416252D01*
X165835000Y-116893748D02*
X165835000Y-117416252D01*
%TO.C,Q1*%
X158780000Y-101640000D02*
X158780000Y-100990000D01*
X158780000Y-101640000D02*
X158780000Y-103315000D01*
X161900000Y-101640000D02*
X161900000Y-100990000D01*
X161900000Y-101640000D02*
X161900000Y-102290000D01*
%TO.C,R5*%
X187437500Y-127427258D02*
X187437500Y-126952742D01*
X188482500Y-127427258D02*
X188482500Y-126952742D01*
%TO.C,R12*%
X178832742Y-102982500D02*
X179307258Y-102982500D01*
X178832742Y-104027500D02*
X179307258Y-104027500D01*
%TO.C,SW1*%
X201190000Y-80900000D02*
X201190000Y-81500000D01*
X201190000Y-83600000D02*
X201190000Y-84200000D01*
X201190000Y-84200000D02*
X205490000Y-84200000D01*
X205490000Y-80900000D02*
X201190000Y-80900000D01*
X205490000Y-81500000D02*
X205490000Y-80900000D01*
X205490000Y-84200000D02*
X205490000Y-83600000D01*
%TO.C,R9*%
X177785242Y-109967500D02*
X178259758Y-109967500D01*
X177785242Y-111012500D02*
X178259758Y-111012500D01*
%TO.C,R13*%
X176292742Y-105522500D02*
X176767258Y-105522500D01*
X176292742Y-106567500D02*
X176767258Y-106567500D01*
%TO.C,R3*%
X192517500Y-126952742D02*
X192517500Y-127427258D01*
X193562500Y-126952742D02*
X193562500Y-127427258D01*
%TO.C,R1*%
X199121500Y-99932258D02*
X199121500Y-99457742D01*
X200166500Y-99932258D02*
X200166500Y-99457742D01*
%TO.C,U1*%
X185070000Y-104930000D02*
X185690000Y-104930000D01*
X185070000Y-107050000D02*
X185070000Y-104930000D01*
X185070000Y-121170000D02*
X185070000Y-119050000D01*
X185690000Y-121170000D02*
X185070000Y-121170000D01*
X201690000Y-104930000D02*
X201690000Y-104320000D01*
X201690000Y-104930000D02*
X209310000Y-104930000D01*
X209310000Y-104930000D02*
X209310000Y-121170000D01*
X209310000Y-121170000D02*
X201690000Y-121170000D01*
%TO.C,J3*%
X144580000Y-86975000D02*
X144580000Y-88395000D01*
X144580000Y-88395000D02*
X149080000Y-88395000D01*
X144580000Y-95675000D02*
X149080000Y-95675000D01*
X144580000Y-97095000D02*
X144580000Y-95675000D01*
X146490000Y-94235000D02*
X147090000Y-94535000D01*
X146490000Y-94835000D02*
X146490000Y-94235000D01*
X147090000Y-94535000D02*
X146490000Y-94835000D01*
X150190000Y-89285000D02*
X150190000Y-89785000D01*
X150190000Y-89785000D02*
X155690000Y-89785000D01*
X150190000Y-91785000D02*
X150190000Y-92285000D01*
X150190000Y-92285000D02*
X155690000Y-92285000D01*
X150190000Y-94285000D02*
X150190000Y-94785000D01*
X150190000Y-94785000D02*
X155690000Y-94785000D01*
X155690000Y-89285000D02*
X150190000Y-89285000D01*
X155690000Y-89785000D02*
X155690000Y-89285000D01*
X155690000Y-91785000D02*
X150190000Y-91785000D01*
X155690000Y-92285000D02*
X155690000Y-91785000D01*
X155690000Y-94285000D02*
X150190000Y-94285000D01*
X155690000Y-94785000D02*
X155690000Y-94285000D01*
X156300000Y-86975000D02*
X144580000Y-86975000D01*
X156300000Y-92035000D02*
X156300000Y-86975000D01*
X156300000Y-92035000D02*
X156300000Y-97095000D01*
X156300000Y-97095000D02*
X144580000Y-97095000D01*
%TO.C,U2*%
X151530000Y-113025000D02*
X152790000Y-113025000D01*
X151530000Y-119035000D02*
X151530000Y-113025000D01*
X158350000Y-113025000D02*
X157090000Y-113025000D01*
X158350000Y-116785000D02*
X158350000Y-113025000D01*
%TO.C,C4*%
X161040199Y-121360000D02*
X161440199Y-121360000D01*
X161240199Y-121160000D02*
X161240199Y-121560000D01*
X163310000Y-120475000D02*
X163310000Y-121715000D01*
X163310000Y-123395000D02*
X163310000Y-124635000D01*
X163350000Y-120475000D02*
X163350000Y-121715000D01*
X163350000Y-123395000D02*
X163350000Y-124635000D01*
X163390000Y-120476000D02*
X163390000Y-121715000D01*
X163390000Y-123395000D02*
X163390000Y-124634000D01*
X163430000Y-120478000D02*
X163430000Y-121715000D01*
X163430000Y-123395000D02*
X163430000Y-124632000D01*
X163470000Y-120481000D02*
X163470000Y-121715000D01*
X163470000Y-123395000D02*
X163470000Y-124629000D01*
X163510000Y-120484000D02*
X163510000Y-121715000D01*
X163510000Y-123395000D02*
X163510000Y-124626000D01*
X163550000Y-120488000D02*
X163550000Y-121715000D01*
X163550000Y-123395000D02*
X163550000Y-124622000D01*
X163590000Y-120493000D02*
X163590000Y-121715000D01*
X163590000Y-123395000D02*
X163590000Y-124617000D01*
X163630000Y-120499000D02*
X163630000Y-121715000D01*
X163630000Y-123395000D02*
X163630000Y-124611000D01*
X163670000Y-120505000D02*
X163670000Y-121715000D01*
X163670000Y-123395000D02*
X163670000Y-124605000D01*
X163710000Y-120513000D02*
X163710000Y-121715000D01*
X163710000Y-123395000D02*
X163710000Y-124597000D01*
X163750000Y-120521000D02*
X163750000Y-121715000D01*
X163750000Y-123395000D02*
X163750000Y-124589000D01*
X163790000Y-120530000D02*
X163790000Y-121715000D01*
X163790000Y-123395000D02*
X163790000Y-124580000D01*
X163830000Y-120539000D02*
X163830000Y-121715000D01*
X163830000Y-123395000D02*
X163830000Y-124571000D01*
X163870000Y-120550000D02*
X163870000Y-121715000D01*
X163870000Y-123395000D02*
X163870000Y-124560000D01*
X163910000Y-120561000D02*
X163910000Y-121715000D01*
X163910000Y-123395000D02*
X163910000Y-124549000D01*
X163950000Y-120573000D02*
X163950000Y-121715000D01*
X163950000Y-123395000D02*
X163950000Y-124537000D01*
X163990000Y-120587000D02*
X163990000Y-121715000D01*
X163990000Y-123395000D02*
X163990000Y-124523000D01*
X164031000Y-120601000D02*
X164031000Y-121715000D01*
X164031000Y-123395000D02*
X164031000Y-124509000D01*
X164071000Y-120615000D02*
X164071000Y-121715000D01*
X164071000Y-123395000D02*
X164071000Y-124495000D01*
X164111000Y-120631000D02*
X164111000Y-121715000D01*
X164111000Y-123395000D02*
X164111000Y-124479000D01*
X164151000Y-120648000D02*
X164151000Y-121715000D01*
X164151000Y-123395000D02*
X164151000Y-124462000D01*
X164191000Y-120666000D02*
X164191000Y-121715000D01*
X164191000Y-123395000D02*
X164191000Y-124444000D01*
X164231000Y-120685000D02*
X164231000Y-121715000D01*
X164231000Y-123395000D02*
X164231000Y-124425000D01*
X164271000Y-120704000D02*
X164271000Y-121715000D01*
X164271000Y-123395000D02*
X164271000Y-124406000D01*
X164311000Y-120725000D02*
X164311000Y-121715000D01*
X164311000Y-123395000D02*
X164311000Y-124385000D01*
X164351000Y-120747000D02*
X164351000Y-121715000D01*
X164351000Y-123395000D02*
X164351000Y-124363000D01*
X164391000Y-120770000D02*
X164391000Y-121715000D01*
X164391000Y-123395000D02*
X164391000Y-124340000D01*
X164431000Y-120795000D02*
X164431000Y-121715000D01*
X164431000Y-123395000D02*
X164431000Y-124315000D01*
X164471000Y-120820000D02*
X164471000Y-121715000D01*
X164471000Y-123395000D02*
X164471000Y-124290000D01*
X164511000Y-120847000D02*
X164511000Y-121715000D01*
X164511000Y-123395000D02*
X164511000Y-124263000D01*
X164551000Y-120875000D02*
X164551000Y-121715000D01*
X164551000Y-123395000D02*
X164551000Y-124235000D01*
X164591000Y-120905000D02*
X164591000Y-121715000D01*
X164591000Y-123395000D02*
X164591000Y-124205000D01*
X164631000Y-120936000D02*
X164631000Y-121715000D01*
X164631000Y-123395000D02*
X164631000Y-124174000D01*
X164671000Y-120968000D02*
X164671000Y-121715000D01*
X164671000Y-123395000D02*
X164671000Y-124142000D01*
X164711000Y-121003000D02*
X164711000Y-121715000D01*
X164711000Y-123395000D02*
X164711000Y-124107000D01*
X164751000Y-121039000D02*
X164751000Y-121715000D01*
X164751000Y-123395000D02*
X164751000Y-124071000D01*
X164791000Y-121077000D02*
X164791000Y-121715000D01*
X164791000Y-123395000D02*
X164791000Y-124033000D01*
X164831000Y-121117000D02*
X164831000Y-121715000D01*
X164831000Y-123395000D02*
X164831000Y-123993000D01*
X164871000Y-121159000D02*
X164871000Y-121715000D01*
X164871000Y-123395000D02*
X164871000Y-123951000D01*
X164911000Y-121204000D02*
X164911000Y-123906000D01*
X164951000Y-121251000D02*
X164951000Y-123859000D01*
X164991000Y-121301000D02*
X164991000Y-123809000D01*
X165031000Y-121355000D02*
X165031000Y-123755000D01*
X165071000Y-121413000D02*
X165071000Y-123697000D01*
X165111000Y-121475000D02*
X165111000Y-123635000D01*
X165151000Y-121542000D02*
X165151000Y-123568000D01*
X165191000Y-121615000D02*
X165191000Y-123495000D01*
X165231000Y-121696000D02*
X165231000Y-123414000D01*
X165271000Y-121787000D02*
X165271000Y-123323000D01*
X165311000Y-121891000D02*
X165311000Y-123219000D01*
X165351000Y-122018000D02*
X165351000Y-123092000D01*
X165391000Y-122185000D02*
X165391000Y-122925000D01*
X165430000Y-122555000D02*
G75*
G02*
X161190000Y-122555000I-2120000J0D01*
G01*
X161190000Y-122555000D02*
G75*
G02*
X165430000Y-122555000I2120000J0D01*
G01*
%TO.C,C3*%
X141935000Y-101505000D02*
X142565000Y-101505000D01*
X142250000Y-101190000D02*
X142250000Y-101820000D01*
X145685000Y-106875000D02*
G75*
G02*
X145685000Y-100135000I0J3370000D01*
G01*
X145685000Y-100135000D02*
X145685000Y-100135000D01*
G75*
G02*
X145685000Y-106875000I0J-3370000D01*
G01*
X145685000Y-104505000D01*
X147685000Y-104505000D01*
X147685000Y-102505000D01*
X145685000Y-102505000D01*
X145685000Y-100135000D01*
G36*
X145685000Y-100135000D02*
G01*
X145685000Y-100135000D01*
G75*
G02*
X145685000Y-106875000I0J-3370000D01*
G01*
X145685000Y-104505000D01*
X147685000Y-104505000D01*
X147685000Y-102505000D01*
X145685000Y-102505000D01*
X145685000Y-100135000D01*
G37*
D14*
%TO.C,J4*%
X149475000Y-124065000D02*
X150475000Y-124065000D01*
X149475000Y-125065000D02*
X149475000Y-124065000D01*
X149675000Y-124265000D02*
X151805000Y-124265000D01*
X149675000Y-135295000D02*
X158935000Y-135295000D01*
X149675000Y-138725000D02*
X149675000Y-124265000D01*
X156805000Y-124265000D02*
X158935000Y-124265000D01*
X158935000Y-124265000D02*
X158935000Y-125595000D01*
X158935000Y-129595000D02*
X158935000Y-138725000D01*
X158935000Y-138725000D02*
X149675000Y-138725000D01*
D13*
%TO.C,R8*%
X162512742Y-95997500D02*
X162987258Y-95997500D01*
X162512742Y-97042500D02*
X162987258Y-97042500D01*
%TO.C,C6*%
X161190000Y-116893748D02*
X161190000Y-117416252D01*
X162660000Y-116893748D02*
X162660000Y-117416252D01*
%TO.C,C2*%
X153340000Y-108250000D02*
X157425000Y-108250000D01*
X157425000Y-106380000D02*
X153340000Y-106380000D01*
X157425000Y-108250000D02*
X157425000Y-106380000D01*
%TO.C,R14*%
X173752742Y-95997500D02*
X174227258Y-95997500D01*
X173752742Y-97042500D02*
X174227258Y-97042500D01*
%TO.C,Q2*%
X164495000Y-101640000D02*
X164495000Y-100990000D01*
X164495000Y-101640000D02*
X164495000Y-103315000D01*
X167615000Y-101640000D02*
X167615000Y-100990000D01*
X167615000Y-101640000D02*
X167615000Y-102290000D01*
%TO.C,Q3*%
X170210000Y-101640000D02*
X170210000Y-100990000D01*
X170210000Y-101640000D02*
X170210000Y-103315000D01*
X173330000Y-101640000D02*
X173330000Y-100990000D01*
X173330000Y-101640000D02*
X173330000Y-102290000D01*
%TO.C,R11*%
X168037742Y-95997500D02*
X168512258Y-95997500D01*
X168037742Y-97042500D02*
X168512258Y-97042500D01*
%TO.C,R2*%
X196327500Y-99932258D02*
X196327500Y-99457742D01*
X197372500Y-99932258D02*
X197372500Y-99457742D01*
%TO.C,R7*%
X162941666Y-107165593D02*
X162606133Y-106830060D01*
X163680593Y-106426666D02*
X163345060Y-106091133D01*
%TO.C,J2*%
X144580000Y-74910000D02*
X144580000Y-76330000D01*
X144580000Y-76330000D02*
X149080000Y-76330000D01*
X144580000Y-81110000D02*
X149080000Y-81110000D01*
X144580000Y-82530000D02*
X144580000Y-81110000D01*
X146490000Y-79670000D02*
X147090000Y-79970000D01*
X146490000Y-80270000D02*
X146490000Y-79670000D01*
X147090000Y-79970000D02*
X146490000Y-80270000D01*
X150190000Y-77220000D02*
X150190000Y-77720000D01*
X150190000Y-77720000D02*
X155690000Y-77720000D01*
X150190000Y-79720000D02*
X150190000Y-80220000D01*
X150190000Y-80220000D02*
X155690000Y-80220000D01*
X155690000Y-77220000D02*
X150190000Y-77220000D01*
X155690000Y-77720000D02*
X155690000Y-77220000D01*
X155690000Y-79720000D02*
X150190000Y-79720000D01*
X155690000Y-80220000D02*
X155690000Y-79720000D01*
X156300000Y-74910000D02*
X144580000Y-74910000D01*
X156300000Y-78720000D02*
X156300000Y-74910000D01*
X156300000Y-78720000D02*
X156300000Y-82530000D01*
X156300000Y-82530000D02*
X144580000Y-82530000D01*
%TO.C,C1*%
X186108748Y-99595000D02*
X186631252Y-99595000D01*
X186108748Y-101065000D02*
X186631252Y-101065000D01*
%TO.C,R10*%
X168708303Y-107217230D02*
X168372770Y-106881697D01*
X169447230Y-106478303D02*
X169111697Y-106142770D01*
%TO.C,R4*%
X189977500Y-126952742D02*
X189977500Y-127427258D01*
X191022500Y-126952742D02*
X191022500Y-127427258D01*
%TO.C,R6*%
X171435242Y-111872500D02*
X171909758Y-111872500D01*
X171435242Y-112917500D02*
X171909758Y-112917500D01*
%TO.C,J1*%
X168215000Y-127575000D02*
X168215000Y-130235000D01*
X175895000Y-127575000D02*
X168215000Y-127575000D01*
X175895000Y-127575000D02*
X175895000Y-130235000D01*
X175895000Y-130235000D02*
X168215000Y-130235000D01*
X177165000Y-127575000D02*
X178495000Y-127575000D01*
X178495000Y-127575000D02*
X178495000Y-128905000D01*
%TD*%
%LPC*%
D15*
%TO.C,SW2*%
X205740000Y-74930000D03*
X200940000Y-74930000D03*
%TD*%
D16*
%TO.C,C5*%
X165100000Y-116205000D03*
X165100000Y-118105000D03*
%TD*%
D17*
%TO.C,Q1*%
X159390000Y-102577500D03*
X161290000Y-102577500D03*
X160340000Y-100702500D03*
%TD*%
D18*
%TO.C,R5*%
X187960000Y-128015000D03*
X187960000Y-126365000D03*
%TD*%
D19*
%TO.C,H1*%
X198120000Y-129540000D03*
%TD*%
D20*
%TO.C,R12*%
X178245000Y-103505000D03*
X179895000Y-103505000D03*
%TD*%
D15*
%TO.C,SW1*%
X205740000Y-82550000D03*
X200940000Y-82550000D03*
%TD*%
D20*
%TO.C,R9*%
X177197500Y-110490000D03*
X178847500Y-110490000D03*
%TD*%
%TO.C,R13*%
X175705000Y-106045000D03*
X177355000Y-106045000D03*
%TD*%
D21*
%TO.C,R3*%
X193040000Y-126365000D03*
X193040000Y-128015000D03*
%TD*%
D18*
%TO.C,R1*%
X199644000Y-100520000D03*
X199644000Y-98870000D03*
%TD*%
D22*
%TO.C,U1*%
X200690000Y-105450000D03*
X198690000Y-105450000D03*
X196690000Y-105450000D03*
X194690000Y-105450000D03*
X192690000Y-105450000D03*
X190690000Y-105450000D03*
X188690000Y-105450000D03*
X186690000Y-105450000D03*
D23*
X185190000Y-108050000D03*
X185190000Y-110050000D03*
X185190000Y-112050000D03*
X185190000Y-114050000D03*
X185190000Y-116050000D03*
X185190000Y-118050000D03*
D22*
X186690000Y-120650000D03*
X188690000Y-120650000D03*
X190690000Y-120650000D03*
X192690000Y-120650000D03*
X194690000Y-120650000D03*
X196690000Y-120650000D03*
X198690000Y-120650000D03*
X200690000Y-120650000D03*
%TD*%
D24*
%TO.C,J3*%
X148590000Y-94535000D03*
D25*
X148590000Y-92035000D03*
X148590000Y-89535000D03*
%TD*%
D26*
%TO.C,U2*%
X152640000Y-118085000D03*
X154940000Y-118085000D03*
D27*
X154940000Y-111785000D03*
D26*
X157240000Y-118085000D03*
%TD*%
D28*
%TO.C,C4*%
X162560000Y-122555000D03*
D29*
X164060000Y-122555000D03*
%TD*%
D19*
%TO.C,H4*%
X205740000Y-67310000D03*
%TD*%
D30*
%TO.C,C3*%
X144685000Y-103505000D03*
D31*
X146685000Y-103505000D03*
%TD*%
D32*
%TO.C,J4*%
X154305000Y-125095000D03*
D33*
X154305000Y-131095000D03*
D34*
X159105000Y-127595000D03*
%TD*%
D19*
%TO.C,H3*%
X143510000Y-67310000D03*
%TD*%
D20*
%TO.C,R8*%
X161925000Y-96520000D03*
X163575000Y-96520000D03*
%TD*%
D16*
%TO.C,C6*%
X161925000Y-116205000D03*
X161925000Y-118105000D03*
%TD*%
D35*
%TO.C,C2*%
X156377500Y-107315000D03*
X153502500Y-107315000D03*
%TD*%
D20*
%TO.C,R14*%
X173165000Y-96520000D03*
X174815000Y-96520000D03*
%TD*%
D17*
%TO.C,Q2*%
X165105000Y-102577500D03*
X167005000Y-102577500D03*
X166055000Y-100702500D03*
%TD*%
%TO.C,Q3*%
X170820000Y-102577500D03*
X172720000Y-102577500D03*
X171770000Y-100702500D03*
%TD*%
D20*
%TO.C,R11*%
X167450000Y-96520000D03*
X169100000Y-96520000D03*
%TD*%
D18*
%TO.C,R2*%
X196850000Y-100520000D03*
X196850000Y-98870000D03*
%TD*%
D36*
%TO.C,R7*%
X163726726Y-107211726D03*
X162560000Y-106045000D03*
%TD*%
D37*
%TO.C,J2*%
X148590000Y-79970000D03*
D38*
X148590000Y-77470000D03*
%TD*%
D19*
%TO.C,H2*%
X143510000Y-129540000D03*
%TD*%
D39*
%TO.C,C1*%
X185420000Y-100330000D03*
X187320000Y-100330000D03*
%TD*%
D36*
%TO.C,R10*%
X169493363Y-107263363D03*
X168326637Y-106096637D03*
%TD*%
D21*
%TO.C,R4*%
X190500000Y-126365000D03*
X190500000Y-128015000D03*
%TD*%
D20*
%TO.C,R6*%
X170847500Y-112395000D03*
X172497500Y-112395000D03*
%TD*%
D40*
%TO.C,J1*%
X177165000Y-128905000D03*
D41*
X174625000Y-128905000D03*
X172085000Y-128905000D03*
X169545000Y-128905000D03*
%TD*%
%LPD*%
M02*
