%TF.GenerationSoftware,KiCad,Pcbnew,9.0.3*%
%TF.CreationDate,2026-01-18T14:54:31+02:00*%
%TF.ProjectId,velux-controller,76656c75-782d-4636-9f6e-74726f6c6c65,rev?*%
%TF.SameCoordinates,Original*%
%TF.FileFunction,Copper,L1,Top*%
%TF.FilePolarity,Positive*%
%FSLAX46Y46*%
G04 Gerber Fmt 4.6, Leading zero omitted, Abs format (unit mm)*
G04 Created by KiCad (PCBNEW 9.0.3) date 2026-01-18 14:54:31*
%MOMM*%
%LPD*%
G01*
G04 APERTURE LIST*
G04 Aperture macros list*
%AMRoundRect*
0 Rectangle with rounded corners*
0 $1 Rounding radius*
0 $2 $3 $4 $5 $6 $7 $8 $9 X,Y pos of 4 corners*
0 Add a 4 corners polygon primitive as box body*
4,1,4,$2,$3,$4,$5,$6,$7,$8,$9,$2,$3,0*
0 Add four circle primitives for the rounded corners*
1,1,$1+$1,$2,$3*
1,1,$1+$1,$4,$5*
1,1,$1+$1,$6,$7*
1,1,$1+$1,$8,$9*
0 Add four rect primitives between the rounded corners*
20,1,$1+$1,$2,$3,$4,$5,0*
20,1,$1+$1,$4,$5,$6,$7,0*
20,1,$1+$1,$6,$7,$8,$9,0*
20,1,$1+$1,$8,$9,$2,$3,0*%
G04 Aperture macros list end*
%TA.AperFunction,SMDPad,CuDef*%
%ADD10R,1.200000X1.600000*%
%TD*%
%TA.AperFunction,SMDPad,CuDef*%
%ADD11RoundRect,0.250000X-0.475000X0.250000X-0.475000X-0.250000X0.475000X-0.250000X0.475000X0.250000X0*%
%TD*%
%TA.AperFunction,SMDPad,CuDef*%
%ADD12RoundRect,0.150000X0.150000X-0.587500X0.150000X0.587500X-0.150000X0.587500X-0.150000X-0.587500X0*%
%TD*%
%TA.AperFunction,SMDPad,CuDef*%
%ADD13RoundRect,0.200000X0.275000X-0.200000X0.275000X0.200000X-0.275000X0.200000X-0.275000X-0.200000X0*%
%TD*%
%TA.AperFunction,SMDPad,CuDef*%
%ADD14RoundRect,0.200000X-0.200000X-0.275000X0.200000X-0.275000X0.200000X0.275000X-0.200000X0.275000X0*%
%TD*%
%TA.AperFunction,SMDPad,CuDef*%
%ADD15RoundRect,0.200000X-0.275000X0.200000X-0.275000X-0.200000X0.275000X-0.200000X0.275000X0.200000X0*%
%TD*%
%TA.AperFunction,SMDPad,CuDef*%
%ADD16R,1.000000X2.500000*%
%TD*%
%TA.AperFunction,SMDPad,CuDef*%
%ADD17R,1.800000X1.000000*%
%TD*%
%TA.AperFunction,ComponentPad*%
%ADD18RoundRect,0.250000X0.725000X-0.600000X0.725000X0.600000X-0.725000X0.600000X-0.725000X-0.600000X0*%
%TD*%
%TA.AperFunction,ComponentPad*%
%ADD19O,1.950000X1.700000*%
%TD*%
%TA.AperFunction,SMDPad,CuDef*%
%ADD20R,1.500000X2.000000*%
%TD*%
%TA.AperFunction,SMDPad,CuDef*%
%ADD21R,3.800000X2.000000*%
%TD*%
%TA.AperFunction,ComponentPad*%
%ADD22R,1.200000X1.200000*%
%TD*%
%TA.AperFunction,ComponentPad*%
%ADD23C,1.200000*%
%TD*%
%TA.AperFunction,ComponentPad*%
%ADD24R,1.600000X1.600000*%
%TD*%
%TA.AperFunction,ComponentPad*%
%ADD25C,1.600000*%
%TD*%
%TA.AperFunction,ComponentPad*%
%ADD26R,4.500000X3.000000*%
%TD*%
%TA.AperFunction,ComponentPad*%
%ADD27RoundRect,0.750000X1.000000X-0.750000X1.000000X0.750000X-1.000000X0.750000X-1.000000X-0.750000X0*%
%TD*%
%TA.AperFunction,ComponentPad*%
%ADD28RoundRect,0.750000X0.750000X-1.000000X0.750000X1.000000X-0.750000X1.000000X-0.750000X-1.000000X0*%
%TD*%
%TA.AperFunction,SMDPad,CuDef*%
%ADD29RoundRect,0.250000X0.537500X0.425000X-0.537500X0.425000X-0.537500X-0.425000X0.537500X-0.425000X0*%
%TD*%
%TA.AperFunction,SMDPad,CuDef*%
%ADD30RoundRect,0.200000X0.335876X0.053033X0.053033X0.335876X-0.335876X-0.053033X-0.053033X-0.335876X0*%
%TD*%
%TA.AperFunction,ComponentPad*%
%ADD31RoundRect,0.250000X0.750000X-0.600000X0.750000X0.600000X-0.750000X0.600000X-0.750000X-0.600000X0*%
%TD*%
%TA.AperFunction,ComponentPad*%
%ADD32O,2.000000X1.700000*%
%TD*%
%TA.AperFunction,SMDPad,CuDef*%
%ADD33RoundRect,0.250000X-0.250000X-0.475000X0.250000X-0.475000X0.250000X0.475000X-0.250000X0.475000X0*%
%TD*%
%TA.AperFunction,ComponentPad*%
%ADD34R,1.700000X1.700000*%
%TD*%
%TA.AperFunction,ComponentPad*%
%ADD35O,1.700000X1.700000*%
%TD*%
%TA.AperFunction,ViaPad*%
%ADD36C,0.800000*%
%TD*%
%TA.AperFunction,Conductor*%
%ADD37C,0.250000*%
%TD*%
%TA.AperFunction,Conductor*%
%ADD38C,1.000000*%
%TD*%
%TA.AperFunction,Conductor*%
%ADD39C,0.500000*%
%TD*%
G04 APERTURE END LIST*
D10*
%TO.P,SW2,1,1*%
%TO.N,GND*%
X205740000Y-74930000D03*
%TO.P,SW2,2,2*%
%TO.N,/RST*%
X200940000Y-74930000D03*
%TD*%
D11*
%TO.P,C5,1*%
%TO.N,GND*%
X165100000Y-116205000D03*
%TO.P,C5,2*%
%TO.N,VCC*%
X165100000Y-118105000D03*
%TD*%
D12*
%TO.P,Q1,1,B*%
%TO.N,Net-(Q1-B)*%
X159390000Y-102577500D03*
%TO.P,Q1,2,E*%
%TO.N,GND*%
X161290000Y-102577500D03*
%TO.P,Q1,3,C*%
%TO.N,/LINE_DOWN*%
X160340000Y-100702500D03*
%TD*%
D13*
%TO.P,R5,1*%
%TO.N,GND*%
X187960000Y-128015000D03*
%TO.P,R5,2*%
%TO.N,/GPIO15*%
X187960000Y-126365000D03*
%TD*%
D14*
%TO.P,R12,1*%
%TO.N,Net-(Q3-B)*%
X178245000Y-103505000D03*
%TO.P,R12,2*%
%TO.N,/GPIO12*%
X179895000Y-103505000D03*
%TD*%
D10*
%TO.P,SW1,1,1*%
%TO.N,GND*%
X205740000Y-82550000D03*
%TO.P,SW1,2,2*%
%TO.N,/GPIO0*%
X200940000Y-82550000D03*
%TD*%
D14*
%TO.P,R9,1*%
%TO.N,Net-(Q2-B)*%
X177197500Y-110490000D03*
%TO.P,R9,2*%
%TO.N,/GPIO5*%
X178847500Y-110490000D03*
%TD*%
%TO.P,R13,1*%
%TO.N,Net-(Q3-B)*%
X175705000Y-106045000D03*
%TO.P,R13,2*%
%TO.N,GND*%
X177355000Y-106045000D03*
%TD*%
D15*
%TO.P,R3,1*%
%TO.N,/GPIO0*%
X193040000Y-126365000D03*
%TO.P,R3,2*%
%TO.N,+3.3V*%
X193040000Y-128015000D03*
%TD*%
D13*
%TO.P,R1,1*%
%TO.N,/RST*%
X199644000Y-100520000D03*
%TO.P,R1,2*%
%TO.N,+3.3V*%
X199644000Y-98870000D03*
%TD*%
D16*
%TO.P,U1,1,~{RST}*%
%TO.N,/RST*%
X200690000Y-105450000D03*
%TO.P,U1,2,ADC*%
%TO.N,unconnected-(U1-ADC-Pad2)*%
X198690000Y-105450000D03*
%TO.P,U1,3,EN*%
%TO.N,/EN*%
X196690000Y-105450000D03*
%TO.P,U1,4,GPIO16*%
%TO.N,/GPIO16*%
X194690000Y-105450000D03*
%TO.P,U1,5,GPIO14*%
%TO.N,/GPIO14*%
X192690000Y-105450000D03*
%TO.P,U1,6,GPIO12*%
%TO.N,/GPIO12*%
X190690000Y-105450000D03*
%TO.P,U1,7,GPIO13*%
%TO.N,/GPIO13*%
X188690000Y-105450000D03*
%TO.P,U1,8,VCC*%
%TO.N,+3.3V*%
X186690000Y-105450000D03*
D17*
%TO.P,U1,9,CS0*%
%TO.N,unconnected-(U1-CS0-Pad9)*%
X185190000Y-108050000D03*
%TO.P,U1,10,MISO*%
%TO.N,unconnected-(U1-MISO-Pad10)*%
X185190000Y-110050000D03*
%TO.P,U1,11,GPIO9*%
%TO.N,unconnected-(U1-GPIO9-Pad11)*%
X185190000Y-112050000D03*
%TO.P,U1,12,GPIO10*%
%TO.N,unconnected-(U1-GPIO10-Pad12)*%
X185190000Y-114050000D03*
%TO.P,U1,13,MOSI*%
%TO.N,unconnected-(U1-MOSI-Pad13)*%
X185190000Y-116050000D03*
%TO.P,U1,14,SCLK*%
%TO.N,unconnected-(U1-SCLK-Pad14)*%
X185190000Y-118050000D03*
D16*
%TO.P,U1,15,GND*%
%TO.N,GND*%
X186690000Y-120650000D03*
%TO.P,U1,16,GPIO15*%
%TO.N,/GPIO15*%
X188690000Y-120650000D03*
%TO.P,U1,17,GPIO2*%
%TO.N,/GPIO2*%
X190690000Y-120650000D03*
%TO.P,U1,18,GPIO0*%
%TO.N,/GPIO0*%
X192690000Y-120650000D03*
%TO.P,U1,19,GPIO4*%
%TO.N,/GPIO4*%
X194690000Y-120650000D03*
%TO.P,U1,20,GPIO5*%
%TO.N,/GPIO5*%
X196690000Y-120650000D03*
%TO.P,U1,21,GPIO3/RXD*%
%TO.N,/RXD*%
X198690000Y-120650000D03*
%TO.P,U1,22,GPIO1/TXD*%
%TO.N,/TXD*%
X200690000Y-120650000D03*
%TD*%
D18*
%TO.P,J3,1,Pin_1*%
%TO.N,/LINE_DOWN*%
X148590000Y-94535000D03*
D19*
%TO.P,J3,2,Pin_2*%
%TO.N,/LINE_STOP*%
X148590000Y-92035000D03*
%TO.P,J3,3,Pin_3*%
%TO.N,/LINE_UP*%
X148590000Y-89535000D03*
%TD*%
D20*
%TO.P,U2,1,GND*%
%TO.N,GND*%
X152640000Y-118085000D03*
%TO.P,U2,2,VO*%
%TO.N,+3.3V*%
X154940000Y-118085000D03*
D21*
X154940000Y-111785000D03*
D20*
%TO.P,U2,3,VI*%
%TO.N,VCC*%
X157240000Y-118085000D03*
%TD*%
D22*
%TO.P,C4,1*%
%TO.N,VCC*%
X162560000Y-122555000D03*
D23*
%TO.P,C4,2*%
%TO.N,GND*%
X164060000Y-122555000D03*
%TD*%
D24*
%TO.P,C3,1*%
%TO.N,+3.3V*%
X144685000Y-103505000D03*
D25*
%TO.P,C3,2*%
%TO.N,GND*%
X146685000Y-103505000D03*
%TD*%
D26*
%TO.P,J4,1*%
%TO.N,VCC*%
X154305000Y-125095000D03*
D27*
%TO.P,J4,2*%
%TO.N,GND*%
X154305000Y-131095000D03*
D28*
%TO.P,J4,3*%
%TO.N,unconnected-(J4-Pad3)*%
X159105000Y-127595000D03*
%TD*%
D14*
%TO.P,R8,1*%
%TO.N,/LINE_DOWN*%
X161925000Y-96520000D03*
%TO.P,R8,2*%
%TO.N,/GPIO13*%
X163575000Y-96520000D03*
%TD*%
D11*
%TO.P,C6,1*%
%TO.N,GND*%
X161925000Y-116205000D03*
%TO.P,C6,2*%
%TO.N,VCC*%
X161925000Y-118105000D03*
%TD*%
D29*
%TO.P,C2,1*%
%TO.N,+3.3V*%
X156377500Y-107315000D03*
%TO.P,C2,2*%
%TO.N,GND*%
X153502500Y-107315000D03*
%TD*%
D14*
%TO.P,R14,1*%
%TO.N,/LINE_UP*%
X173165000Y-96520000D03*
%TO.P,R14,2*%
%TO.N,/GPIO16*%
X174815000Y-96520000D03*
%TD*%
D12*
%TO.P,Q2,1,B*%
%TO.N,Net-(Q2-B)*%
X165105000Y-102577500D03*
%TO.P,Q2,2,E*%
%TO.N,GND*%
X167005000Y-102577500D03*
%TO.P,Q2,3,C*%
%TO.N,/LINE_STOP*%
X166055000Y-100702500D03*
%TD*%
%TO.P,Q3,1,B*%
%TO.N,Net-(Q3-B)*%
X170820000Y-102577500D03*
%TO.P,Q3,2,E*%
%TO.N,GND*%
X172720000Y-102577500D03*
%TO.P,Q3,3,C*%
%TO.N,/LINE_UP*%
X171770000Y-100702500D03*
%TD*%
D14*
%TO.P,R11,1*%
%TO.N,/LINE_STOP*%
X167450000Y-96520000D03*
%TO.P,R11,2*%
%TO.N,/GPIO14*%
X169100000Y-96520000D03*
%TD*%
D13*
%TO.P,R2,1*%
%TO.N,/EN*%
X196850000Y-100520000D03*
%TO.P,R2,2*%
%TO.N,+3.3V*%
X196850000Y-98870000D03*
%TD*%
D30*
%TO.P,R7,1*%
%TO.N,Net-(Q1-B)*%
X163726726Y-107211726D03*
%TO.P,R7,2*%
%TO.N,GND*%
X162560000Y-106045000D03*
%TD*%
D31*
%TO.P,J2,1,Pin_1*%
%TO.N,+3.3V*%
X148590000Y-79970000D03*
D32*
%TO.P,J2,2,Pin_2*%
%TO.N,GND*%
X148590000Y-77470000D03*
%TD*%
D33*
%TO.P,C1,1*%
%TO.N,GND*%
X185420000Y-100330000D03*
%TO.P,C1,2*%
%TO.N,+3.3V*%
X187320000Y-100330000D03*
%TD*%
D30*
%TO.P,R10,1*%
%TO.N,Net-(Q2-B)*%
X169493363Y-107263363D03*
%TO.P,R10,2*%
%TO.N,GND*%
X168326637Y-106096637D03*
%TD*%
D15*
%TO.P,R4,1*%
%TO.N,/GPIO2*%
X190500000Y-126365000D03*
%TO.P,R4,2*%
%TO.N,+3.3V*%
X190500000Y-128015000D03*
%TD*%
D14*
%TO.P,R6,1*%
%TO.N,Net-(Q1-B)*%
X170847500Y-112395000D03*
%TO.P,R6,2*%
%TO.N,/GPIO4*%
X172497500Y-112395000D03*
%TD*%
D34*
%TO.P,J1,1,Pin_1*%
%TO.N,+3.3V*%
X177165000Y-128905000D03*
D35*
%TO.P,J1,2,Pin_2*%
%TO.N,/TXD*%
X174625000Y-128905000D03*
%TO.P,J1,3,Pin_3*%
%TO.N,/RXD*%
X172085000Y-128905000D03*
%TO.P,J1,4,Pin_4*%
%TO.N,GND*%
X169545000Y-128905000D03*
%TD*%
D36*
%TO.N,GND*%
X184150000Y-121920000D03*
X167005000Y-116205000D03*
X185420000Y-120650000D03*
X167005000Y-104775000D03*
X184150000Y-120650000D03*
X172720000Y-104775000D03*
X179070000Y-106045000D03*
X207645000Y-74930000D03*
X184785000Y-98425000D03*
X207645000Y-82550000D03*
X151765000Y-107315000D03*
X161290000Y-104775000D03*
X186690000Y-128905000D03*
%TO.N,/TXD*%
X198755000Y-124460000D03*
%TO.N,/RXD*%
X197485000Y-123190000D03*
%TO.N,/GPIO4*%
X174212500Y-112395000D03*
X194310000Y-112395000D03*
%TO.N,/GPIO5*%
X194945000Y-110490000D03*
X180562500Y-110490000D03*
%TO.N,/GPIO12*%
X181610000Y-103505000D03*
X190500000Y-103505000D03*
%TO.N,/RST*%
X200660000Y-78105000D03*
X200660000Y-102235000D03*
%TO.N,/GPIO0*%
X198755000Y-83820000D03*
X193040000Y-109220000D03*
%TO.N,/GPIO14*%
X169545000Y-98425000D03*
X192405000Y-101600000D03*
%TO.N,/GPIO16*%
X175260000Y-98425000D03*
X194310000Y-99695000D03*
%TO.N,/GPIO13*%
X163830000Y-98425000D03*
X188595000Y-108585000D03*
%TD*%
D37*
%TO.N,GND*%
X187960000Y-128015000D02*
X187580000Y-128015000D01*
D38*
X184150000Y-120650000D02*
X184150000Y-121920000D01*
D39*
X161925000Y-116205000D02*
X165100000Y-116205000D01*
D38*
X186690000Y-120650000D02*
X184150000Y-120650000D01*
D37*
X161290000Y-104775000D02*
X162560000Y-106045000D01*
X187580000Y-128015000D02*
X186690000Y-128905000D01*
X205740000Y-82550000D02*
X207645000Y-82550000D01*
X185420000Y-100330000D02*
X185420000Y-99060000D01*
X167005000Y-102577500D02*
X167005000Y-104775000D01*
X177355000Y-106045000D02*
X179070000Y-106045000D01*
D38*
X151355000Y-131035000D02*
X154305000Y-131035000D01*
D37*
X151765000Y-107315000D02*
X153502500Y-107315000D01*
X167005000Y-116205000D02*
X165100000Y-116205000D01*
X205740000Y-74930000D02*
X207645000Y-74930000D01*
D38*
X152640000Y-118085000D02*
X149225000Y-121500000D01*
D37*
X185420000Y-99060000D02*
X184785000Y-98425000D01*
D38*
X149225000Y-121500000D02*
X149225000Y-128905000D01*
D37*
X167005000Y-104775000D02*
X168326637Y-106096637D01*
X161290000Y-102577500D02*
X161290000Y-104775000D01*
X172720000Y-102577500D02*
X172720000Y-104775000D01*
D38*
X149225000Y-128905000D02*
X151355000Y-131035000D01*
%TO.N,VCC*%
X161900000Y-118085000D02*
X161925000Y-118110000D01*
X156030000Y-123010000D02*
X154305000Y-124735000D01*
X162560000Y-122555000D02*
X156485000Y-122555000D01*
X157240000Y-121800000D02*
X156030000Y-123010000D01*
D39*
X161925000Y-118105000D02*
X165100000Y-118105000D01*
X157240000Y-118085000D02*
X161900000Y-118085000D01*
D38*
X157240000Y-118085000D02*
X157240000Y-121800000D01*
D37*
%TO.N,/TXD*%
X198755000Y-124460000D02*
X200690000Y-122525000D01*
X200690000Y-122525000D02*
X200690000Y-120650000D01*
%TO.N,/RXD*%
X198690000Y-120650000D02*
X198690000Y-121985000D01*
X198690000Y-121985000D02*
X197485000Y-123190000D01*
%TO.N,/GPIO4*%
X194690000Y-112775000D02*
X194310000Y-112395000D01*
X174212500Y-112395000D02*
X172497500Y-112395000D01*
X194690000Y-120650000D02*
X194690000Y-112775000D01*
%TO.N,/GPIO5*%
X180562500Y-110490000D02*
X178847500Y-110490000D01*
X196690000Y-112235000D02*
X194945000Y-110490000D01*
X196690000Y-120650000D02*
X196690000Y-112235000D01*
%TO.N,/GPIO12*%
X190690000Y-105450000D02*
X190690000Y-103695000D01*
X190690000Y-103695000D02*
X190500000Y-103505000D01*
X181610000Y-103505000D02*
X179895000Y-103505000D01*
%TO.N,/RST*%
X200690000Y-105450000D02*
X200690000Y-102265000D01*
X200690000Y-102205000D02*
X200690000Y-101566000D01*
X200940000Y-77825000D02*
X200660000Y-78105000D01*
X200690000Y-102265000D02*
X200660000Y-102235000D01*
X200660000Y-102235000D02*
X200690000Y-102205000D01*
X200690000Y-101566000D02*
X199644000Y-100520000D01*
X200940000Y-74930000D02*
X200940000Y-77825000D01*
%TO.N,/EN*%
X196690000Y-105450000D02*
X196690000Y-100680000D01*
%TO.N,/GPIO0*%
X192690000Y-120650000D02*
X192690000Y-109570000D01*
X198755000Y-83820000D02*
X200025000Y-82550000D01*
X200025000Y-82550000D02*
X200940000Y-82550000D01*
X192690000Y-109570000D02*
X193040000Y-109220000D01*
X192690000Y-120650000D02*
X192690000Y-126365000D01*
%TO.N,/GPIO2*%
X190690000Y-120650000D02*
X190690000Y-126365000D01*
%TO.N,/GPIO15*%
X188690000Y-120650000D02*
X188690000Y-125635000D01*
X188690000Y-125635000D02*
X187960000Y-126365000D01*
%TO.N,/GPIO14*%
X169545000Y-96965000D02*
X169100000Y-96520000D01*
X169545000Y-98425000D02*
X169545000Y-96965000D01*
X192690000Y-105450000D02*
X192690000Y-101885000D01*
X192690000Y-101885000D02*
X192405000Y-101600000D01*
%TO.N,/GPIO16*%
X194690000Y-105450000D02*
X194690000Y-100075000D01*
X175260000Y-96965000D02*
X174815000Y-96520000D01*
X175260000Y-98425000D02*
X175260000Y-96965000D01*
X194690000Y-100075000D02*
X194310000Y-99695000D01*
%TO.N,/GPIO13*%
X163830000Y-96775000D02*
X163575000Y-96520000D01*
X188690000Y-105450000D02*
X188690000Y-108490000D01*
X188690000Y-108490000D02*
X188595000Y-108585000D01*
X163830000Y-98425000D02*
X163830000Y-96775000D01*
%TO.N,/LINE_UP*%
X173165000Y-96520000D02*
X172405000Y-96520000D01*
X170180000Y-89535000D02*
X148590000Y-89535000D01*
X171770000Y-95885000D02*
X171770000Y-91125000D01*
X171770000Y-91125000D02*
X170180000Y-89535000D01*
X172405000Y-96520000D02*
X171770000Y-95885000D01*
X171770000Y-100702500D02*
X171770000Y-95885000D01*
%TO.N,/LINE_STOP*%
X166055000Y-93625000D02*
X164465000Y-92035000D01*
X164465000Y-92035000D02*
X148590000Y-92035000D01*
X166690000Y-96520000D02*
X166055000Y-95885000D01*
X166055000Y-100702500D02*
X166055000Y-95885000D01*
X167450000Y-96520000D02*
X166690000Y-96520000D01*
X166055000Y-95885000D02*
X166055000Y-93625000D01*
%TO.N,/LINE_DOWN*%
X158750000Y-94535000D02*
X148590000Y-94535000D01*
X161925000Y-96520000D02*
X160735000Y-96520000D01*
X160735000Y-96520000D02*
X160340000Y-96125000D01*
X160340000Y-100702500D02*
X160340000Y-97155000D01*
X160340000Y-96125000D02*
X158750000Y-94535000D01*
X160340000Y-97155000D02*
X160340000Y-96125000D01*
%TO.N,Net-(Q1-B)*%
X163726726Y-107211726D02*
X163726726Y-109116726D01*
X159385000Y-104775000D02*
X159385000Y-102582500D01*
X159385000Y-102582500D02*
X159390000Y-102577500D01*
X167005000Y-112395000D02*
X159385000Y-104775000D01*
X170847500Y-112395000D02*
X167005000Y-112395000D01*
%TO.N,Net-(Q2-B)*%
X170815000Y-110490000D02*
X165100000Y-104775000D01*
X165100000Y-104775000D02*
X165100000Y-102582500D01*
X169493363Y-107263363D02*
X169493363Y-109168363D01*
X177197500Y-110490000D02*
X170815000Y-110490000D01*
X165100000Y-102582500D02*
X165105000Y-102577500D01*
%TO.N,Net-(Q3-B)*%
X170820000Y-104780000D02*
X170820000Y-102577500D01*
X175895000Y-103505000D02*
X178245000Y-103505000D01*
X173355000Y-106045000D02*
X175705000Y-106045000D01*
X172085000Y-106045000D02*
X170820000Y-104780000D01*
X175895000Y-103505000D02*
X173355000Y-106045000D01*
X173355000Y-106045000D02*
X172085000Y-106045000D01*
%TD*%
%TA.AperFunction,Conductor*%
%TO.N,+3.3V*%
G36*
X207014118Y-64000770D02*
G01*
X207043311Y-64002683D01*
X207267976Y-64017408D01*
X207284294Y-64019556D01*
X207529768Y-64068384D01*
X207545677Y-64072647D01*
X207782669Y-64153095D01*
X207797880Y-64159396D01*
X208022351Y-64270092D01*
X208036608Y-64278323D01*
X208244705Y-64417369D01*
X208257770Y-64427394D01*
X208445941Y-64592416D01*
X208457583Y-64604058D01*
X208622601Y-64792224D01*
X208632634Y-64805300D01*
X208771671Y-65013383D01*
X208779912Y-65027657D01*
X208890599Y-65252109D01*
X208896906Y-65267336D01*
X208977351Y-65504319D01*
X208981617Y-65520239D01*
X209030441Y-65765693D01*
X209032592Y-65782033D01*
X209049230Y-66035880D01*
X209049500Y-66044121D01*
X209049500Y-86355878D01*
X209049230Y-86364119D01*
X209032592Y-86617966D01*
X209030441Y-86634306D01*
X208981617Y-86879760D01*
X208977351Y-86895680D01*
X208896906Y-87132663D01*
X208890599Y-87147890D01*
X208779912Y-87372342D01*
X208771671Y-87386616D01*
X208632634Y-87594699D01*
X208622601Y-87607775D01*
X208457589Y-87795935D01*
X208445935Y-87807589D01*
X208257775Y-87972601D01*
X208244699Y-87982634D01*
X208036616Y-88121671D01*
X208022342Y-88129912D01*
X207797890Y-88240599D01*
X207782663Y-88246906D01*
X207545680Y-88327351D01*
X207529760Y-88331617D01*
X207284306Y-88380441D01*
X207267966Y-88382592D01*
X207014119Y-88399230D01*
X207005878Y-88399500D01*
X204310650Y-88399500D01*
X203993705Y-88432812D01*
X203681976Y-88499072D01*
X203378900Y-88597548D01*
X203378882Y-88597554D01*
X203087752Y-88727173D01*
X203087739Y-88727179D01*
X202811755Y-88886520D01*
X202811743Y-88886528D01*
X202553924Y-89073845D01*
X202317090Y-89287090D01*
X202103845Y-89523924D01*
X201916528Y-89781743D01*
X201916520Y-89781755D01*
X201757179Y-90057739D01*
X201757173Y-90057752D01*
X201627554Y-90348882D01*
X201627548Y-90348900D01*
X201529072Y-90651976D01*
X201462812Y-90963705D01*
X201429500Y-91280650D01*
X201429500Y-101111350D01*
X201409498Y-101179471D01*
X201355842Y-101225964D01*
X201285568Y-101236068D01*
X201220988Y-101206574D01*
X201199501Y-101180826D01*
X201199403Y-101180903D01*
X201197265Y-101178147D01*
X201195047Y-101175489D01*
X201194545Y-101174640D01*
X201194540Y-101174634D01*
X201180218Y-101160312D01*
X201167377Y-101145279D01*
X201155471Y-101128892D01*
X201121405Y-101100710D01*
X201112626Y-101092721D01*
X200664404Y-100644499D01*
X200630378Y-100582187D01*
X200627499Y-100555404D01*
X200627499Y-100262738D01*
X200621013Y-100191353D01*
X200621013Y-100191352D01*
X200569829Y-100027093D01*
X200569827Y-100027088D01*
X200569827Y-100027087D01*
X200480816Y-99879845D01*
X200480815Y-99879844D01*
X200480811Y-99879839D01*
X200384713Y-99783741D01*
X200350687Y-99721429D01*
X200355752Y-99650614D01*
X200384713Y-99605551D01*
X200480413Y-99509850D01*
X200480421Y-99509840D01*
X200569366Y-99362706D01*
X200620518Y-99198553D01*
X200620518Y-99198552D01*
X200627000Y-99127222D01*
X200627000Y-99124000D01*
X198661001Y-99124000D01*
X198661001Y-99127221D01*
X198667481Y-99198553D01*
X198718633Y-99362706D01*
X198807578Y-99509840D01*
X198807586Y-99509850D01*
X198903287Y-99605551D01*
X198937313Y-99667863D01*
X198932248Y-99738678D01*
X198903287Y-99783741D01*
X198807188Y-99879839D01*
X198807184Y-99879844D01*
X198718172Y-100027088D01*
X198718170Y-100027093D01*
X198666986Y-100191353D01*
X198660500Y-100262737D01*
X198660500Y-100777261D01*
X198666986Y-100848646D01*
X198666986Y-100848647D01*
X198718170Y-101012906D01*
X198718172Y-101012911D01*
X198807184Y-101160155D01*
X198807188Y-101160160D01*
X198928839Y-101281811D01*
X198928844Y-101281815D01*
X198928845Y-101281816D01*
X199076087Y-101370827D01*
X199076091Y-101370828D01*
X199076093Y-101370829D01*
X199100213Y-101378345D01*
X199240351Y-101422013D01*
X199311735Y-101428500D01*
X199604405Y-101428499D01*
X199672525Y-101448501D01*
X199693500Y-101465404D01*
X199854494Y-101626398D01*
X199888520Y-101688710D01*
X199883455Y-101759525D01*
X199874519Y-101778492D01*
X199825474Y-101863440D01*
X199825473Y-101863443D01*
X199825473Y-101863444D01*
X199810999Y-101907986D01*
X199766457Y-102045072D01*
X199746496Y-102235000D01*
X199766457Y-102424927D01*
X199777540Y-102459035D01*
X199825473Y-102606556D01*
X199853841Y-102655691D01*
X199890499Y-102719185D01*
X199920960Y-102771944D01*
X200024137Y-102886534D01*
X200054853Y-102950538D01*
X200056500Y-102970842D01*
X200056500Y-103619591D01*
X200036498Y-103687712D01*
X199982842Y-103734205D01*
X199974534Y-103737646D01*
X199943795Y-103749111D01*
X199943792Y-103749112D01*
X199826740Y-103836737D01*
X199790868Y-103884657D01*
X199734032Y-103927203D01*
X199663216Y-103932267D01*
X199600904Y-103898242D01*
X199589132Y-103884657D01*
X199553527Y-103837095D01*
X199553261Y-103836739D01*
X199553259Y-103836738D01*
X199553259Y-103836737D01*
X199436207Y-103749112D01*
X199436202Y-103749110D01*
X199299204Y-103698011D01*
X199299196Y-103698009D01*
X199238649Y-103691500D01*
X199238638Y-103691500D01*
X198141362Y-103691500D01*
X198141350Y-103691500D01*
X198080803Y-103698009D01*
X198080795Y-103698011D01*
X197943797Y-103749110D01*
X197943792Y-103749112D01*
X197826740Y-103836737D01*
X197790868Y-103884657D01*
X197734032Y-103927203D01*
X197663216Y-103932267D01*
X197600904Y-103898242D01*
X197589132Y-103884657D01*
X197553527Y-103837095D01*
X197553261Y-103836739D01*
X197553259Y-103836738D01*
X197553259Y-103836737D01*
X197436207Y-103749112D01*
X197436204Y-103749111D01*
X197405466Y-103737646D01*
X197348631Y-103695099D01*
X197323821Y-103628578D01*
X197323500Y-103619591D01*
X197323500Y-101492959D01*
X197343502Y-101424838D01*
X197397158Y-101378345D01*
X197412009Y-101372666D01*
X197417913Y-101370827D01*
X197417915Y-101370825D01*
X197417917Y-101370825D01*
X197461326Y-101344582D01*
X197565155Y-101281816D01*
X197686816Y-101160155D01*
X197775827Y-101012913D01*
X197827013Y-100848649D01*
X197833500Y-100777265D01*
X197833499Y-100262736D01*
X197827013Y-100191351D01*
X197778338Y-100035144D01*
X197775829Y-100027093D01*
X197775827Y-100027088D01*
X197775827Y-100027087D01*
X197686816Y-99879845D01*
X197686815Y-99879844D01*
X197686811Y-99879839D01*
X197590713Y-99783741D01*
X197556687Y-99721429D01*
X197561752Y-99650614D01*
X197590713Y-99605551D01*
X197686413Y-99509850D01*
X197686421Y-99509840D01*
X197775366Y-99362706D01*
X197826518Y-99198553D01*
X197826518Y-99198552D01*
X197833000Y-99127222D01*
X197833000Y-99124000D01*
X195867001Y-99124000D01*
X195867001Y-99127221D01*
X195873481Y-99198553D01*
X195924633Y-99362706D01*
X196013578Y-99509840D01*
X196013586Y-99509850D01*
X196109287Y-99605551D01*
X196143313Y-99667863D01*
X196138248Y-99738678D01*
X196109287Y-99783741D01*
X196013188Y-99879839D01*
X196013184Y-99879844D01*
X195924172Y-100027088D01*
X195924170Y-100027093D01*
X195872986Y-100191353D01*
X195866500Y-100262737D01*
X195866500Y-100777261D01*
X195872986Y-100848646D01*
X195872986Y-100848647D01*
X195924170Y-101012906D01*
X195924172Y-101012911D01*
X195924173Y-101012913D01*
X196013184Y-101160155D01*
X196019593Y-101166564D01*
X196053619Y-101228873D01*
X196056500Y-101255661D01*
X196056500Y-103619591D01*
X196036498Y-103687712D01*
X195982842Y-103734205D01*
X195974534Y-103737646D01*
X195943795Y-103749111D01*
X195943792Y-103749112D01*
X195826740Y-103836737D01*
X195790868Y-103884657D01*
X195734032Y-103927203D01*
X195663216Y-103932267D01*
X195600904Y-103898242D01*
X195589132Y-103884657D01*
X195553527Y-103837095D01*
X195553261Y-103836739D01*
X195553259Y-103836738D01*
X195553259Y-103836737D01*
X195436207Y-103749112D01*
X195436204Y-103749111D01*
X195405466Y-103737646D01*
X195348631Y-103695099D01*
X195323821Y-103628578D01*
X195323500Y-103619591D01*
X195323500Y-100158855D01*
X195325249Y-100143014D01*
X195324956Y-100142987D01*
X195325701Y-100135094D01*
X195325702Y-100135091D01*
X195323562Y-100067013D01*
X195323500Y-100063054D01*
X195323500Y-100035149D01*
X195323500Y-100035144D01*
X195322992Y-100031130D01*
X195322061Y-100019297D01*
X195321806Y-100011170D01*
X195320673Y-99975110D01*
X195315022Y-99955663D01*
X195311012Y-99936300D01*
X195308474Y-99916203D01*
X195292195Y-99875090D01*
X195288353Y-99863869D01*
X195276018Y-99821407D01*
X195265706Y-99803970D01*
X195257010Y-99786221D01*
X195249552Y-99767383D01*
X195247565Y-99764648D01*
X195246673Y-99762147D01*
X195245733Y-99760438D01*
X195246008Y-99760286D01*
X195225028Y-99701479D01*
X195224194Y-99701567D01*
X195223832Y-99698125D01*
X195223709Y-99697780D01*
X195223676Y-99696644D01*
X195223503Y-99695003D01*
X195223504Y-99695000D01*
X195203542Y-99505072D01*
X195144527Y-99323444D01*
X195049040Y-99158056D01*
X195049038Y-99158054D01*
X195049034Y-99158048D01*
X194921255Y-99016135D01*
X194766752Y-98903882D01*
X194592288Y-98826206D01*
X194405487Y-98786500D01*
X194214513Y-98786500D01*
X194027711Y-98826206D01*
X193853247Y-98903882D01*
X193698744Y-99016135D01*
X193570965Y-99158048D01*
X193570958Y-99158058D01*
X193475476Y-99323438D01*
X193475473Y-99323445D01*
X193416457Y-99505072D01*
X193396496Y-99695000D01*
X193416457Y-99884927D01*
X193426619Y-99916200D01*
X193475473Y-100066556D01*
X193475476Y-100066561D01*
X193570958Y-100231941D01*
X193570965Y-100231951D01*
X193698744Y-100373864D01*
X193698747Y-100373866D01*
X193853248Y-100486118D01*
X193981749Y-100543330D01*
X194035844Y-100589309D01*
X194056494Y-100657236D01*
X194056500Y-100658436D01*
X194056500Y-103619591D01*
X194036498Y-103687712D01*
X193982842Y-103734205D01*
X193974534Y-103737646D01*
X193943795Y-103749111D01*
X193943792Y-103749112D01*
X193826740Y-103836737D01*
X193790868Y-103884657D01*
X193734032Y-103927203D01*
X193663216Y-103932267D01*
X193600904Y-103898242D01*
X193589132Y-103884657D01*
X193553527Y-103837095D01*
X193553261Y-103836739D01*
X193553259Y-103836738D01*
X193553259Y-103836737D01*
X193436207Y-103749112D01*
X193436204Y-103749111D01*
X193405466Y-103737646D01*
X193348631Y-103695099D01*
X193323821Y-103628578D01*
X193323500Y-103619591D01*
X193323500Y-101968853D01*
X193325249Y-101953011D01*
X193324956Y-101952984D01*
X193325702Y-101945091D01*
X193323562Y-101877000D01*
X193323500Y-101873042D01*
X193323500Y-101845150D01*
X193323500Y-101845144D01*
X193322993Y-101841135D01*
X193322062Y-101829306D01*
X193320674Y-101785111D01*
X193315017Y-101765642D01*
X193311012Y-101746296D01*
X193308535Y-101726685D01*
X193308232Y-101697729D01*
X193315729Y-101626398D01*
X193318504Y-101600000D01*
X193298542Y-101410072D01*
X193239527Y-101228444D01*
X193144040Y-101063056D01*
X193144038Y-101063054D01*
X193144034Y-101063048D01*
X193016255Y-100921135D01*
X192861752Y-100808882D01*
X192687288Y-100731206D01*
X192500487Y-100691500D01*
X192309513Y-100691500D01*
X192122711Y-100731206D01*
X191948247Y-100808882D01*
X191793744Y-100921135D01*
X191665965Y-101063048D01*
X191665958Y-101063058D01*
X191570476Y-101228438D01*
X191570473Y-101228444D01*
X191567996Y-101236068D01*
X191511457Y-101410072D01*
X191491496Y-101600000D01*
X191511457Y-101789927D01*
X191526183Y-101835247D01*
X191570473Y-101971556D01*
X191570476Y-101971561D01*
X191665958Y-102136941D01*
X191665965Y-102136951D01*
X191793744Y-102278864D01*
X191793743Y-102278864D01*
X191948244Y-102391116D01*
X191948247Y-102391117D01*
X191948248Y-102391118D01*
X191981748Y-102406033D01*
X192035843Y-102452010D01*
X192056494Y-102519936D01*
X192056500Y-102521139D01*
X192056500Y-103619591D01*
X192036498Y-103687712D01*
X191982842Y-103734205D01*
X191974534Y-103737646D01*
X191943795Y-103749111D01*
X191943792Y-103749112D01*
X191826740Y-103836737D01*
X191790868Y-103884657D01*
X191734032Y-103927203D01*
X191663216Y-103932267D01*
X191600904Y-103898242D01*
X191589132Y-103884657D01*
X191553260Y-103836738D01*
X191532616Y-103821284D01*
X191448652Y-103758429D01*
X191406107Y-103701596D01*
X191398852Y-103644398D01*
X191413504Y-103505000D01*
X191393542Y-103315072D01*
X191334527Y-103133444D01*
X191239040Y-102968056D01*
X191239038Y-102968054D01*
X191239034Y-102968048D01*
X191111255Y-102826135D01*
X190956752Y-102713882D01*
X190782288Y-102636206D01*
X190595487Y-102596500D01*
X190404513Y-102596500D01*
X190217711Y-102636206D01*
X190043247Y-102713882D01*
X189888744Y-102826135D01*
X189760965Y-102968048D01*
X189760958Y-102968058D01*
X189665476Y-103133438D01*
X189665473Y-103133445D01*
X189606457Y-103315072D01*
X189586496Y-103505000D01*
X189598067Y-103615096D01*
X189585294Y-103684935D01*
X189536792Y-103736781D01*
X189467959Y-103754175D01*
X189428724Y-103746321D01*
X189299204Y-103698011D01*
X189299196Y-103698009D01*
X189238649Y-103691500D01*
X189238638Y-103691500D01*
X188141362Y-103691500D01*
X188141350Y-103691500D01*
X188080803Y-103698009D01*
X188080795Y-103698011D01*
X187943797Y-103749110D01*
X187943792Y-103749112D01*
X187826737Y-103836739D01*
X187790554Y-103885074D01*
X187733718Y-103927620D01*
X187662902Y-103932684D01*
X187600590Y-103898658D01*
X187588818Y-103885072D01*
X187552903Y-103837095D01*
X187435965Y-103749555D01*
X187299093Y-103698505D01*
X187238597Y-103692000D01*
X186944000Y-103692000D01*
X186944000Y-107208000D01*
X187238585Y-107208000D01*
X187238597Y-107207999D01*
X187299093Y-107201494D01*
X187435964Y-107150444D01*
X187435965Y-107150444D01*
X187552903Y-107062904D01*
X187588818Y-107014927D01*
X187645653Y-106972380D01*
X187716468Y-106967314D01*
X187778781Y-107001338D01*
X187790555Y-107014925D01*
X187790868Y-107015343D01*
X187825046Y-107061000D01*
X187826740Y-107063262D01*
X187943796Y-107150889D01*
X187974531Y-107162353D01*
X188031368Y-107204899D01*
X188056179Y-107271419D01*
X188056500Y-107280409D01*
X188056500Y-107789075D01*
X188036498Y-107857196D01*
X188004563Y-107891010D01*
X187983742Y-107906137D01*
X187855965Y-108048048D01*
X187855958Y-108048058D01*
X187760530Y-108213345D01*
X187760473Y-108213444D01*
X187757206Y-108223500D01*
X187701457Y-108395072D01*
X187681496Y-108585000D01*
X187701457Y-108774927D01*
X187731526Y-108867470D01*
X187760473Y-108956556D01*
X187760476Y-108956561D01*
X187855958Y-109121941D01*
X187855965Y-109121951D01*
X187983744Y-109263864D01*
X187983747Y-109263866D01*
X188138248Y-109376118D01*
X188312712Y-109453794D01*
X188499513Y-109493500D01*
X188690487Y-109493500D01*
X188877288Y-109453794D01*
X189051752Y-109376118D01*
X189206253Y-109263866D01*
X189206255Y-109263864D01*
X189334034Y-109121951D01*
X189334035Y-109121949D01*
X189334040Y-109121944D01*
X189429527Y-108956556D01*
X189488542Y-108774928D01*
X189508504Y-108585000D01*
X189488542Y-108395072D01*
X189429527Y-108213444D01*
X189400389Y-108162977D01*
X189340381Y-108059037D01*
X189323500Y-107996037D01*
X189323500Y-107280409D01*
X189343502Y-107212288D01*
X189397158Y-107165795D01*
X189405469Y-107162353D01*
X189429501Y-107153389D01*
X189436204Y-107150889D01*
X189553261Y-107063261D01*
X189589132Y-107015342D01*
X189645967Y-106972796D01*
X189716783Y-106967731D01*
X189779095Y-107001756D01*
X189790868Y-107015343D01*
X189826738Y-107063261D01*
X189943792Y-107150887D01*
X189943794Y-107150888D01*
X189943796Y-107150889D01*
X189974532Y-107162353D01*
X190080795Y-107201988D01*
X190080803Y-107201990D01*
X190141350Y-107208499D01*
X190141355Y-107208499D01*
X190141362Y-107208500D01*
X190141368Y-107208500D01*
X191238632Y-107208500D01*
X191238638Y-107208500D01*
X191238645Y-107208499D01*
X191238649Y-107208499D01*
X191299196Y-107201990D01*
X191299199Y-107201989D01*
X191299201Y-107201989D01*
X191436204Y-107150889D01*
X191436799Y-107150444D01*
X191553261Y-107063261D01*
X191589132Y-107015343D01*
X191645967Y-106972796D01*
X191716783Y-106967731D01*
X191779095Y-107001756D01*
X191790868Y-107015343D01*
X191826738Y-107063261D01*
X191943792Y-107150887D01*
X191943794Y-107150888D01*
X191943796Y-107150889D01*
X191974532Y-107162353D01*
X192080795Y-107201988D01*
X192080803Y-107201990D01*
X192141350Y-107208499D01*
X192141355Y-107208499D01*
X192141362Y-107208500D01*
X192141368Y-107208500D01*
X193238632Y-107208500D01*
X193238638Y-107208500D01*
X193238645Y-107208499D01*
X193238649Y-107208499D01*
X193299196Y-107201990D01*
X193299199Y-107201989D01*
X193299201Y-107201989D01*
X193436204Y-107150889D01*
X193436799Y-107150444D01*
X193553261Y-107063261D01*
X193589132Y-107015343D01*
X193645967Y-106972796D01*
X193716783Y-106967731D01*
X193779095Y-107001756D01*
X193790868Y-107015343D01*
X193826738Y-107063261D01*
X193943792Y-107150887D01*
X193943794Y-107150888D01*
X193943796Y-107150889D01*
X193974532Y-107162353D01*
X194080795Y-107201988D01*
X194080803Y-107201990D01*
X194141350Y-107208499D01*
X194141355Y-107208499D01*
X194141362Y-107208500D01*
X194141368Y-107208500D01*
X195238632Y-107208500D01*
X195238638Y-107208500D01*
X195238645Y-107208499D01*
X195238649Y-107208499D01*
X195299196Y-107201990D01*
X195299199Y-107201989D01*
X195299201Y-107201989D01*
X195436204Y-107150889D01*
X195436799Y-107150444D01*
X195553261Y-107063261D01*
X195589132Y-107015343D01*
X195645967Y-106972796D01*
X195716783Y-106967731D01*
X195779095Y-107001756D01*
X195790868Y-107015343D01*
X195826738Y-107063261D01*
X195943792Y-107150887D01*
X195943794Y-107150888D01*
X195943796Y-107150889D01*
X195974532Y-107162353D01*
X196080795Y-107201988D01*
X196080803Y-107201990D01*
X196141350Y-107208499D01*
X196141355Y-107208499D01*
X196141362Y-107208500D01*
X196141368Y-107208500D01*
X197238632Y-107208500D01*
X197238638Y-107208500D01*
X197238645Y-107208499D01*
X197238649Y-107208499D01*
X197299196Y-107201990D01*
X197299199Y-107201989D01*
X197299201Y-107201989D01*
X197436204Y-107150889D01*
X197436799Y-107150444D01*
X197553261Y-107063261D01*
X197589132Y-107015343D01*
X197645967Y-106972796D01*
X197716783Y-106967731D01*
X197779095Y-107001756D01*
X197790868Y-107015343D01*
X197826738Y-107063261D01*
X197943792Y-107150887D01*
X197943794Y-107150888D01*
X197943796Y-107150889D01*
X197974532Y-107162353D01*
X198080795Y-107201988D01*
X198080803Y-107201990D01*
X198141350Y-107208499D01*
X198141355Y-107208499D01*
X198141362Y-107208500D01*
X198141368Y-107208500D01*
X199238632Y-107208500D01*
X199238638Y-107208500D01*
X199238645Y-107208499D01*
X199238649Y-107208499D01*
X199299196Y-107201990D01*
X199299199Y-107201989D01*
X199299201Y-107201989D01*
X199436204Y-107150889D01*
X199436799Y-107150444D01*
X199553261Y-107063261D01*
X199589132Y-107015343D01*
X199645967Y-106972796D01*
X199716783Y-106967731D01*
X199779095Y-107001756D01*
X199790868Y-107015343D01*
X199826738Y-107063261D01*
X199943792Y-107150887D01*
X199943794Y-107150888D01*
X199943796Y-107150889D01*
X199974532Y-107162353D01*
X200080795Y-107201988D01*
X200080803Y-107201990D01*
X200141350Y-107208499D01*
X200141355Y-107208499D01*
X200141362Y-107208500D01*
X200141368Y-107208500D01*
X201238632Y-107208500D01*
X201238638Y-107208500D01*
X201238645Y-107208499D01*
X201238649Y-107208499D01*
X201290032Y-107202975D01*
X201359900Y-107215581D01*
X201411862Y-107263959D01*
X201429500Y-107328253D01*
X201429500Y-118771746D01*
X201409498Y-118839867D01*
X201355842Y-118886360D01*
X201290034Y-118897024D01*
X201238654Y-118891501D01*
X201238642Y-118891500D01*
X201238638Y-118891500D01*
X200141362Y-118891500D01*
X200141350Y-118891500D01*
X200080803Y-118898009D01*
X200080795Y-118898011D01*
X199943797Y-118949110D01*
X199943792Y-118949112D01*
X199826740Y-119036737D01*
X199790868Y-119084657D01*
X199734032Y-119127203D01*
X199663216Y-119132267D01*
X199600904Y-119098242D01*
X199589132Y-119084657D01*
X199569550Y-119058499D01*
X199553261Y-119036739D01*
X199553259Y-119036738D01*
X199553259Y-119036737D01*
X199436207Y-118949112D01*
X199436202Y-118949110D01*
X199299204Y-118898011D01*
X199299196Y-118898009D01*
X199238649Y-118891500D01*
X199238638Y-118891500D01*
X198141362Y-118891500D01*
X198141350Y-118891500D01*
X198080803Y-118898009D01*
X198080795Y-118898011D01*
X197943797Y-118949110D01*
X197943792Y-118949112D01*
X197826740Y-119036737D01*
X197790868Y-119084657D01*
X197734032Y-119127203D01*
X197663216Y-119132267D01*
X197600904Y-119098242D01*
X197589132Y-119084657D01*
X197569550Y-119058499D01*
X197553261Y-119036739D01*
X197553259Y-119036738D01*
X197553259Y-119036737D01*
X197436207Y-118949112D01*
X197436204Y-118949111D01*
X197405466Y-118937646D01*
X197348631Y-118895099D01*
X197323821Y-118828578D01*
X197323500Y-118819591D01*
X197323500Y-112318854D01*
X197325249Y-112303012D01*
X197324956Y-112302985D01*
X197325700Y-112295099D01*
X197325702Y-112295092D01*
X197323562Y-112227000D01*
X197323500Y-112223042D01*
X197323500Y-112195150D01*
X197323500Y-112195144D01*
X197322993Y-112191135D01*
X197322062Y-112179306D01*
X197320674Y-112135111D01*
X197315020Y-112115652D01*
X197311012Y-112096297D01*
X197308474Y-112076203D01*
X197292195Y-112035087D01*
X197288356Y-112023872D01*
X197276019Y-111981407D01*
X197265703Y-111963964D01*
X197257005Y-111946209D01*
X197249552Y-111927383D01*
X197223563Y-111891612D01*
X197217052Y-111881700D01*
X197194542Y-111843638D01*
X197180214Y-111829310D01*
X197167384Y-111814289D01*
X197155472Y-111797893D01*
X197155469Y-111797891D01*
X197155469Y-111797890D01*
X197121394Y-111769700D01*
X197112616Y-111761712D01*
X196487271Y-111136367D01*
X195892119Y-110541214D01*
X195858095Y-110478905D01*
X195855908Y-110465309D01*
X195838542Y-110300072D01*
X195779527Y-110118444D01*
X195684040Y-109953056D01*
X195684038Y-109953054D01*
X195684034Y-109953048D01*
X195556255Y-109811135D01*
X195401752Y-109698882D01*
X195227288Y-109621206D01*
X195040487Y-109581500D01*
X194849513Y-109581500D01*
X194662711Y-109621206D01*
X194488247Y-109698882D01*
X194333744Y-109811135D01*
X194205965Y-109953048D01*
X194205958Y-109953058D01*
X194110476Y-110118438D01*
X194110473Y-110118445D01*
X194051457Y-110300072D01*
X194031496Y-110490000D01*
X194051457Y-110679927D01*
X194081526Y-110772470D01*
X194110473Y-110861556D01*
X194110476Y-110861561D01*
X194205958Y-111026941D01*
X194205965Y-111026951D01*
X194333744Y-111168864D01*
X194457205Y-111258564D01*
X194500559Y-111314786D01*
X194506634Y-111385523D01*
X194473502Y-111448314D01*
X194411682Y-111483226D01*
X194383144Y-111486500D01*
X194214513Y-111486500D01*
X194027711Y-111526206D01*
X193853247Y-111603882D01*
X193698744Y-111716135D01*
X193570965Y-111858048D01*
X193570961Y-111858055D01*
X193558619Y-111879432D01*
X193507236Y-111928425D01*
X193437522Y-111941860D01*
X193371611Y-111915473D01*
X193330430Y-111857641D01*
X193323500Y-111816431D01*
X193323500Y-110170079D01*
X193343502Y-110101958D01*
X193397158Y-110055465D01*
X193398142Y-110055021D01*
X193496752Y-110011118D01*
X193651253Y-109898866D01*
X193668814Y-109879363D01*
X193779034Y-109756951D01*
X193779035Y-109756949D01*
X193779040Y-109756944D01*
X193874527Y-109591556D01*
X193933542Y-109409928D01*
X193953504Y-109220000D01*
X193933542Y-109030072D01*
X193874527Y-108848444D01*
X193779040Y-108683056D01*
X193779038Y-108683054D01*
X193779034Y-108683048D01*
X193651255Y-108541135D01*
X193496752Y-108428882D01*
X193322288Y-108351206D01*
X193135487Y-108311500D01*
X192944513Y-108311500D01*
X192757711Y-108351206D01*
X192583247Y-108428882D01*
X192428744Y-108541135D01*
X192300965Y-108683048D01*
X192300958Y-108683058D01*
X192205476Y-108848438D01*
X192205473Y-108848444D01*
X192195041Y-108880550D01*
X192146457Y-109030072D01*
X192126496Y-109219999D01*
X192127665Y-109231128D01*
X192114888Y-109300965D01*
X192112770Y-109304989D01*
X192096305Y-109334939D01*
X192096303Y-109334944D01*
X192091267Y-109354559D01*
X192084864Y-109373262D01*
X192076819Y-109391852D01*
X192069901Y-109435525D01*
X192067495Y-109447142D01*
X192056500Y-109489968D01*
X192056500Y-109510223D01*
X192054949Y-109529933D01*
X192051780Y-109549943D01*
X192054763Y-109581500D01*
X192055941Y-109593961D01*
X192056500Y-109605819D01*
X192056500Y-118819591D01*
X192036498Y-118887712D01*
X191982842Y-118934205D01*
X191974534Y-118937646D01*
X191943795Y-118949111D01*
X191943792Y-118949112D01*
X191826740Y-119036737D01*
X191790868Y-119084657D01*
X191734032Y-119127203D01*
X191663216Y-119132267D01*
X191600904Y-119098242D01*
X191589132Y-119084657D01*
X191569550Y-119058499D01*
X191553261Y-119036739D01*
X191553259Y-119036738D01*
X191553259Y-119036737D01*
X191436207Y-118949112D01*
X191436202Y-118949110D01*
X191299204Y-118898011D01*
X191299196Y-118898009D01*
X191238649Y-118891500D01*
X191238638Y-118891500D01*
X190141362Y-118891500D01*
X190141350Y-118891500D01*
X190080803Y-118898009D01*
X190080795Y-118898011D01*
X189943797Y-118949110D01*
X189943792Y-118949112D01*
X189826740Y-119036737D01*
X189790868Y-119084657D01*
X189734032Y-119127203D01*
X189663216Y-119132267D01*
X189600904Y-119098242D01*
X189589132Y-119084657D01*
X189569550Y-119058499D01*
X189553261Y-119036739D01*
X189553259Y-119036738D01*
X189553259Y-119036737D01*
X189436207Y-118949112D01*
X189436202Y-118949110D01*
X189299204Y-118898011D01*
X189299196Y-118898009D01*
X189238649Y-118891500D01*
X189238638Y-118891500D01*
X188141362Y-118891500D01*
X188141350Y-118891500D01*
X188080803Y-118898009D01*
X188080795Y-118898011D01*
X187943797Y-118949110D01*
X187943792Y-118949112D01*
X187826740Y-119036737D01*
X187790868Y-119084657D01*
X187734032Y-119127203D01*
X187663216Y-119132267D01*
X187600904Y-119098242D01*
X187589132Y-119084657D01*
X187569550Y-119058499D01*
X187553261Y-119036739D01*
X187553259Y-119036738D01*
X187553259Y-119036737D01*
X187436207Y-118949112D01*
X187436202Y-118949110D01*
X187299204Y-118898011D01*
X187299196Y-118898009D01*
X187238649Y-118891500D01*
X187238638Y-118891500D01*
X186686820Y-118891500D01*
X186618699Y-118871498D01*
X186572206Y-118817842D01*
X186562102Y-118747568D01*
X186568765Y-118721467D01*
X186591988Y-118659204D01*
X186591990Y-118659196D01*
X186598499Y-118598649D01*
X186598500Y-118598632D01*
X186598500Y-117501367D01*
X186598499Y-117501350D01*
X186591990Y-117440803D01*
X186591988Y-117440795D01*
X186543052Y-117309595D01*
X186540889Y-117303796D01*
X186540888Y-117303794D01*
X186540887Y-117303792D01*
X186453261Y-117186738D01*
X186405343Y-117150868D01*
X186362796Y-117094033D01*
X186357731Y-117023217D01*
X186391756Y-116960905D01*
X186405343Y-116949132D01*
X186453261Y-116913261D01*
X186540887Y-116796207D01*
X186540887Y-116796206D01*
X186540889Y-116796204D01*
X186591989Y-116659201D01*
X186594687Y-116634112D01*
X186598499Y-116598649D01*
X186598500Y-116598632D01*
X186598500Y-115501367D01*
X186598499Y-115501350D01*
X186591990Y-115440803D01*
X186591988Y-115440795D01*
X186540889Y-115303797D01*
X186540887Y-115303792D01*
X186453261Y-115186738D01*
X186405343Y-115150868D01*
X186362796Y-115094033D01*
X186357731Y-115023217D01*
X186391756Y-114960905D01*
X186405343Y-114949132D01*
X186453261Y-114913261D01*
X186540887Y-114796207D01*
X186540887Y-114796206D01*
X186540889Y-114796204D01*
X186591989Y-114659201D01*
X186598500Y-114598638D01*
X186598500Y-113501362D01*
X186598499Y-113501350D01*
X186591990Y-113440803D01*
X186591988Y-113440795D01*
X186540889Y-113303797D01*
X186540887Y-113303792D01*
X186453261Y-113186738D01*
X186405343Y-113150868D01*
X186362796Y-113094033D01*
X186357731Y-113023217D01*
X186391756Y-112960905D01*
X186405343Y-112949132D01*
X186428308Y-112931941D01*
X186453261Y-112913261D01*
X186499559Y-112851414D01*
X186540887Y-112796207D01*
X186540887Y-112796206D01*
X186540889Y-112796204D01*
X186591989Y-112659201D01*
X186592370Y-112655664D01*
X186598499Y-112598649D01*
X186598500Y-112598632D01*
X186598500Y-111501367D01*
X186598499Y-111501350D01*
X186591990Y-111440803D01*
X186591988Y-111440795D01*
X186540889Y-111303797D01*
X186540887Y-111303792D01*
X186453261Y-111186738D01*
X186405343Y-111150868D01*
X186362796Y-111094033D01*
X186357731Y-111023217D01*
X186391756Y-110960905D01*
X186405343Y-110949132D01*
X186453261Y-110913261D01*
X186540887Y-110796207D01*
X186540887Y-110796206D01*
X186540889Y-110796204D01*
X186591989Y-110659201D01*
X186598500Y-110598638D01*
X186598500Y-109501362D01*
X186597655Y-109493500D01*
X186591990Y-109440803D01*
X186591988Y-109440795D01*
X186540889Y-109303797D01*
X186540887Y-109303792D01*
X186453261Y-109186738D01*
X186405343Y-109150868D01*
X186362796Y-109094033D01*
X186357731Y-109023217D01*
X186391756Y-108960905D01*
X186405343Y-108949132D01*
X186453261Y-108913261D01*
X186540887Y-108796207D01*
X186540887Y-108796206D01*
X186540889Y-108796204D01*
X186591989Y-108659201D01*
X186598500Y-108598638D01*
X186598500Y-107501362D01*
X186598499Y-107501350D01*
X186591990Y-107440803D01*
X186591988Y-107440795D01*
X186540889Y-107303797D01*
X186540887Y-107303792D01*
X186461132Y-107197252D01*
X186436321Y-107130732D01*
X186436000Y-107121743D01*
X186436000Y-105704000D01*
X185682000Y-105704000D01*
X185682000Y-106748597D01*
X185688505Y-106809092D01*
X185711770Y-106871467D01*
X185716835Y-106942283D01*
X185682810Y-107004595D01*
X185620498Y-107038620D01*
X185593714Y-107041500D01*
X184241350Y-107041500D01*
X184180803Y-107048009D01*
X184180795Y-107048011D01*
X184043797Y-107099110D01*
X184043792Y-107099112D01*
X183926738Y-107186738D01*
X183839112Y-107303792D01*
X183839110Y-107303797D01*
X183788011Y-107440795D01*
X183788009Y-107440803D01*
X183781500Y-107501350D01*
X183781500Y-108598649D01*
X183788009Y-108659196D01*
X183788011Y-108659204D01*
X183839110Y-108796202D01*
X183839112Y-108796207D01*
X183926737Y-108913259D01*
X183926738Y-108913259D01*
X183926739Y-108913261D01*
X183966281Y-108942862D01*
X183974657Y-108949132D01*
X184017203Y-109005968D01*
X184022267Y-109076784D01*
X183988242Y-109139096D01*
X183974657Y-109150868D01*
X183926737Y-109186740D01*
X183839112Y-109303792D01*
X183839110Y-109303797D01*
X183788011Y-109440795D01*
X183788009Y-109440803D01*
X183781500Y-109501350D01*
X183781500Y-110598649D01*
X183788009Y-110659196D01*
X183788011Y-110659204D01*
X183839110Y-110796202D01*
X183839112Y-110796207D01*
X183926737Y-110913259D01*
X183926738Y-110913259D01*
X183926739Y-110913261D01*
X183967343Y-110943657D01*
X183974657Y-110949132D01*
X184017203Y-111005968D01*
X184022267Y-111076784D01*
X183988242Y-111139096D01*
X183974657Y-111150868D01*
X183926737Y-111186740D01*
X183839112Y-111303792D01*
X183839110Y-111303797D01*
X183788011Y-111440795D01*
X183788009Y-111440803D01*
X183781500Y-111501350D01*
X183781500Y-112598649D01*
X183788009Y-112659196D01*
X183788011Y-112659204D01*
X183839110Y-112796202D01*
X183839112Y-112796207D01*
X183926737Y-112913259D01*
X183926738Y-112913259D01*
X183926739Y-112913261D01*
X183968619Y-112944612D01*
X183974657Y-112949132D01*
X184017203Y-113005968D01*
X184022267Y-113076784D01*
X183988242Y-113139096D01*
X183974657Y-113150868D01*
X183926737Y-113186740D01*
X183839112Y-113303792D01*
X183839110Y-113303797D01*
X183788011Y-113440795D01*
X183788009Y-113440803D01*
X183781500Y-113501350D01*
X183781500Y-114598649D01*
X183788009Y-114659196D01*
X183788011Y-114659204D01*
X183839110Y-114796202D01*
X183839112Y-114796207D01*
X183926737Y-114913259D01*
X183926738Y-114913259D01*
X183926739Y-114913261D01*
X183974657Y-114949132D01*
X184017203Y-115005968D01*
X184022267Y-115076784D01*
X183988242Y-115139096D01*
X183974657Y-115150868D01*
X183926737Y-115186740D01*
X183839112Y-115303792D01*
X183839110Y-115303797D01*
X183788011Y-115440795D01*
X183788009Y-115440803D01*
X183781500Y-115501350D01*
X183781500Y-116598649D01*
X183788009Y-116659196D01*
X183788011Y-116659204D01*
X183839110Y-116796202D01*
X183839112Y-116796207D01*
X183926737Y-116913259D01*
X183926738Y-116913259D01*
X183926739Y-116913261D01*
X183947299Y-116928652D01*
X183974657Y-116949132D01*
X184017203Y-117005968D01*
X184022267Y-117076784D01*
X183988242Y-117139096D01*
X183974657Y-117150868D01*
X183926737Y-117186740D01*
X183839112Y-117303792D01*
X183839110Y-117303797D01*
X183788011Y-117440795D01*
X183788009Y-117440803D01*
X183781500Y-117501350D01*
X183781500Y-118598649D01*
X183788009Y-118659196D01*
X183788011Y-118659204D01*
X183839110Y-118796202D01*
X183839112Y-118796207D01*
X183926738Y-118913261D01*
X184043792Y-119000887D01*
X184043794Y-119000888D01*
X184043796Y-119000889D01*
X184102875Y-119022924D01*
X184180795Y-119051988D01*
X184180803Y-119051990D01*
X184241350Y-119058499D01*
X184241355Y-119058499D01*
X184241362Y-119058500D01*
X185593180Y-119058500D01*
X185661301Y-119078502D01*
X185707794Y-119132158D01*
X185717898Y-119202432D01*
X185711235Y-119228533D01*
X185688011Y-119290795D01*
X185688009Y-119290803D01*
X185681500Y-119351350D01*
X185681500Y-119515500D01*
X185661498Y-119583621D01*
X185607842Y-119630114D01*
X185555500Y-119641500D01*
X184205734Y-119641500D01*
X184193385Y-119640893D01*
X184178132Y-119639390D01*
X184150002Y-119636620D01*
X184149998Y-119636620D01*
X184116968Y-119639873D01*
X184100453Y-119641500D01*
X183952305Y-119656090D01*
X183762195Y-119713759D01*
X183586995Y-119807405D01*
X183433432Y-119933432D01*
X183307405Y-120086995D01*
X183213759Y-120262195D01*
X183156090Y-120452305D01*
X183136620Y-120649996D01*
X183136620Y-120650001D01*
X183140893Y-120693383D01*
X183141500Y-120705734D01*
X183141500Y-121969553D01*
X183156090Y-122117694D01*
X183156091Y-122117700D01*
X183156092Y-122117701D01*
X183213759Y-122307804D01*
X183307405Y-122483004D01*
X183433432Y-122636568D01*
X183586996Y-122762595D01*
X183762196Y-122856241D01*
X183952299Y-122913908D01*
X183952303Y-122913908D01*
X183952305Y-122913909D01*
X184149997Y-122933380D01*
X184150000Y-122933380D01*
X184150003Y-122933380D01*
X184347694Y-122913909D01*
X184347695Y-122913908D01*
X184347701Y-122913908D01*
X184537804Y-122856241D01*
X184713004Y-122762595D01*
X184866568Y-122636568D01*
X184992595Y-122483004D01*
X185086241Y-122307804D01*
X185143908Y-122117701D01*
X185158500Y-121969547D01*
X185158500Y-121784500D01*
X185178502Y-121716379D01*
X185232158Y-121669886D01*
X185284500Y-121658500D01*
X185555500Y-121658500D01*
X185623621Y-121678502D01*
X185670114Y-121732158D01*
X185681500Y-121784500D01*
X185681500Y-121948649D01*
X185688009Y-122009196D01*
X185688011Y-122009204D01*
X185739110Y-122146202D01*
X185739112Y-122146207D01*
X185826738Y-122263261D01*
X185943792Y-122350887D01*
X185943794Y-122350888D01*
X185943796Y-122350889D01*
X185974532Y-122362353D01*
X186080795Y-122401988D01*
X186080803Y-122401990D01*
X186141350Y-122408499D01*
X186141355Y-122408499D01*
X186141362Y-122408500D01*
X186141368Y-122408500D01*
X187238632Y-122408500D01*
X187238638Y-122408500D01*
X187238645Y-122408499D01*
X187238649Y-122408499D01*
X187299196Y-122401990D01*
X187299199Y-122401989D01*
X187299201Y-122401989D01*
X187299577Y-122401849D01*
X187323502Y-122392925D01*
X187436204Y-122350889D01*
X187436803Y-122350441D01*
X187553261Y-122263261D01*
X187589132Y-122215343D01*
X187645967Y-122172796D01*
X187716783Y-122167731D01*
X187779095Y-122201756D01*
X187790868Y-122215343D01*
X187826738Y-122263261D01*
X187943796Y-122350889D01*
X187974531Y-122362353D01*
X188031368Y-122404899D01*
X188056179Y-122471419D01*
X188056500Y-122480409D01*
X188056500Y-125320405D01*
X188036498Y-125388526D01*
X188019595Y-125409499D01*
X188009495Y-125419600D01*
X187947181Y-125453622D01*
X187920404Y-125456500D01*
X187627738Y-125456500D01*
X187556353Y-125462986D01*
X187556352Y-125462986D01*
X187392093Y-125514170D01*
X187392088Y-125514172D01*
X187244844Y-125603184D01*
X187244839Y-125603188D01*
X187123188Y-125724839D01*
X187123184Y-125724844D01*
X187034172Y-125872088D01*
X187034170Y-125872093D01*
X186982986Y-126036353D01*
X186976500Y-126107737D01*
X186976500Y-126622261D01*
X186982986Y-126693646D01*
X186982986Y-126693647D01*
X187034170Y-126857906D01*
X187034172Y-126857911D01*
X187123184Y-127005155D01*
X187123188Y-127005160D01*
X187218933Y-127100905D01*
X187252959Y-127163217D01*
X187247894Y-127234032D01*
X187218933Y-127279095D01*
X187123188Y-127374839D01*
X187123184Y-127374844D01*
X187034172Y-127522088D01*
X187034170Y-127522093D01*
X186981004Y-127692715D01*
X186979753Y-127692325D01*
X186950140Y-127748926D01*
X186948572Y-127750522D01*
X186739501Y-127959595D01*
X186677189Y-127993620D01*
X186650405Y-127996500D01*
X186594513Y-127996500D01*
X186407711Y-128036206D01*
X186233247Y-128113882D01*
X186078744Y-128226135D01*
X185950965Y-128368048D01*
X185950958Y-128368058D01*
X185855476Y-128533438D01*
X185855473Y-128533445D01*
X185796457Y-128715072D01*
X185776496Y-128905000D01*
X185796457Y-129094927D01*
X185815106Y-129152320D01*
X185855473Y-129276556D01*
X185855476Y-129276561D01*
X185950958Y-129441941D01*
X185950965Y-129441951D01*
X186078744Y-129583864D01*
X186078747Y-129583866D01*
X186233248Y-129696118D01*
X186407712Y-129773794D01*
X186594513Y-129813500D01*
X186785487Y-129813500D01*
X186972288Y-129773794D01*
X187146752Y-129696118D01*
X187301253Y-129583866D01*
X187318253Y-129564986D01*
X187340750Y-129540000D01*
X196764341Y-129540000D01*
X196784937Y-129775411D01*
X196846096Y-130003661D01*
X196846098Y-130003665D01*
X196945966Y-130217832D01*
X197081498Y-130411392D01*
X197081502Y-130411397D01*
X197081505Y-130411401D01*
X197248599Y-130578495D01*
X197248603Y-130578498D01*
X197248607Y-130578501D01*
X197442167Y-130714033D01*
X197442166Y-130714033D01*
X197506662Y-130744108D01*
X197656337Y-130813903D01*
X197884592Y-130875063D01*
X198061034Y-130890500D01*
X198061041Y-130890500D01*
X198178959Y-130890500D01*
X198178966Y-130890500D01*
X198355408Y-130875063D01*
X198583663Y-130813903D01*
X198797829Y-130714035D01*
X198991401Y-130578495D01*
X199158495Y-130411401D01*
X199294035Y-130217830D01*
X199393903Y-130003663D01*
X199455063Y-129775408D01*
X199475659Y-129540000D01*
X199455063Y-129304592D01*
X199451904Y-129292804D01*
X199414263Y-129152323D01*
X199393903Y-129076337D01*
X199294035Y-128862171D01*
X199294034Y-128862169D01*
X199294033Y-128862167D01*
X199158501Y-128668607D01*
X199158497Y-128668602D01*
X199158495Y-128668599D01*
X198991401Y-128501505D01*
X198991397Y-128501502D01*
X198991392Y-128501498D01*
X198797832Y-128365966D01*
X198797833Y-128365966D01*
X198583665Y-128266098D01*
X198583661Y-128266096D01*
X198355411Y-128204937D01*
X198302475Y-128200305D01*
X198178966Y-128189500D01*
X198061034Y-128189500D01*
X197948752Y-128199323D01*
X197884588Y-128204937D01*
X197656338Y-128266096D01*
X197656334Y-128266098D01*
X197442167Y-128365966D01*
X197248607Y-128501498D01*
X197248596Y-128501507D01*
X197081507Y-128668596D01*
X197081502Y-128668602D01*
X196945965Y-128862169D01*
X196846098Y-129076334D01*
X196846096Y-129076338D01*
X196784937Y-129304588D01*
X196764341Y-129540000D01*
X187340750Y-129540000D01*
X187429034Y-129441951D01*
X187429035Y-129441949D01*
X187429040Y-129441944D01*
X187524527Y-129276556D01*
X187583542Y-129094928D01*
X187589700Y-129036329D01*
X187616712Y-128970674D01*
X187674932Y-128930043D01*
X187715004Y-128923499D01*
X188292264Y-128923499D01*
X188363649Y-128917013D01*
X188527913Y-128865827D01*
X188675155Y-128776816D01*
X188796816Y-128655155D01*
X188885827Y-128507913D01*
X188937013Y-128343649D01*
X188943500Y-128272265D01*
X188943500Y-128269000D01*
X189517001Y-128269000D01*
X189517001Y-128272221D01*
X189523481Y-128343553D01*
X189574633Y-128507706D01*
X189663578Y-128654840D01*
X189663586Y-128654850D01*
X189785149Y-128776413D01*
X189785159Y-128776421D01*
X189932293Y-128865366D01*
X190096447Y-128916518D01*
X190167777Y-128922999D01*
X190245999Y-128922998D01*
X190246000Y-128922998D01*
X190246000Y-128269000D01*
X190754000Y-128269000D01*
X190754000Y-128922999D01*
X190832222Y-128922999D01*
X190903553Y-128916518D01*
X191067706Y-128865366D01*
X191214840Y-128776421D01*
X191214850Y-128776413D01*
X191336413Y-128654850D01*
X191336421Y-128654840D01*
X191425366Y-128507706D01*
X191476518Y-128343553D01*
X191476518Y-128343552D01*
X191483000Y-128272222D01*
X191483000Y-128269000D01*
X192057001Y-128269000D01*
X192057001Y-128272221D01*
X192063481Y-128343553D01*
X192114633Y-128507706D01*
X192203578Y-128654840D01*
X192203586Y-128654850D01*
X192325149Y-128776413D01*
X192325159Y-128776421D01*
X192472293Y-128865366D01*
X192636447Y-128916518D01*
X192707777Y-128922999D01*
X192785999Y-128922998D01*
X192786000Y-128922998D01*
X192786000Y-128269000D01*
X193294000Y-128269000D01*
X193294000Y-128922999D01*
X193372222Y-128922999D01*
X193443553Y-128916518D01*
X193607706Y-128865366D01*
X193754840Y-128776421D01*
X193754850Y-128776413D01*
X193876413Y-128654850D01*
X193876421Y-128654840D01*
X193965366Y-128507706D01*
X194016518Y-128343553D01*
X194016518Y-128343552D01*
X194023000Y-128272222D01*
X194023000Y-128269000D01*
X193294000Y-128269000D01*
X192786000Y-128269000D01*
X192057001Y-128269000D01*
X191483000Y-128269000D01*
X190754000Y-128269000D01*
X190246000Y-128269000D01*
X189517001Y-128269000D01*
X188943500Y-128269000D01*
X188943499Y-127757736D01*
X188937013Y-127686351D01*
X188885827Y-127522087D01*
X188796816Y-127374845D01*
X188796815Y-127374844D01*
X188796811Y-127374839D01*
X188701067Y-127279095D01*
X188667041Y-127216783D01*
X188672106Y-127145968D01*
X188701067Y-127100905D01*
X188796811Y-127005160D01*
X188796816Y-127005155D01*
X188885827Y-126857913D01*
X188937013Y-126693649D01*
X188943500Y-126622265D01*
X188943499Y-126329594D01*
X188963501Y-126261475D01*
X188980399Y-126240503D01*
X189078659Y-126142243D01*
X189091097Y-126132282D01*
X189090908Y-126132054D01*
X189097012Y-126127003D01*
X189097018Y-126127000D01*
X189143662Y-126077327D01*
X189146352Y-126074551D01*
X189166135Y-126054770D01*
X189168614Y-126051573D01*
X189176311Y-126042559D01*
X189206586Y-126010321D01*
X189216346Y-125992565D01*
X189227195Y-125976050D01*
X189239614Y-125960041D01*
X189257179Y-125919446D01*
X189262384Y-125908821D01*
X189283695Y-125870060D01*
X189288733Y-125850434D01*
X189295137Y-125831732D01*
X189303180Y-125813147D01*
X189303179Y-125813147D01*
X189303181Y-125813145D01*
X189310096Y-125769481D01*
X189312504Y-125757852D01*
X189323500Y-125715030D01*
X189323500Y-125694775D01*
X189325051Y-125675063D01*
X189328220Y-125655057D01*
X189324059Y-125611036D01*
X189323500Y-125599179D01*
X189323500Y-122480409D01*
X189343502Y-122412288D01*
X189397158Y-122365795D01*
X189405469Y-122362353D01*
X189429501Y-122353389D01*
X189436204Y-122350889D01*
X189553261Y-122263261D01*
X189589132Y-122215342D01*
X189645967Y-122172796D01*
X189716783Y-122167731D01*
X189779095Y-122201756D01*
X189790868Y-122215343D01*
X189826738Y-122263261D01*
X189943796Y-122350889D01*
X189974531Y-122362353D01*
X190031368Y-122404899D01*
X190056179Y-122471419D01*
X190056500Y-122480409D01*
X190056500Y-125382691D01*
X190036498Y-125450812D01*
X189982842Y-125497305D01*
X189967988Y-125502985D01*
X189932089Y-125514172D01*
X189932086Y-125514173D01*
X189784844Y-125603184D01*
X189784839Y-125603188D01*
X189663188Y-125724839D01*
X189663184Y-125724844D01*
X189574172Y-125872088D01*
X189574170Y-125872093D01*
X189522986Y-126036353D01*
X189516500Y-126107737D01*
X189516500Y-126622261D01*
X189522986Y-126693646D01*
X189522986Y-126693647D01*
X189574170Y-126857906D01*
X189574172Y-126857911D01*
X189663184Y-127005155D01*
X189663188Y-127005160D01*
X189759287Y-127101259D01*
X189793313Y-127163571D01*
X189788248Y-127234386D01*
X189759287Y-127279449D01*
X189663586Y-127375149D01*
X189663578Y-127375159D01*
X189574633Y-127522293D01*
X189523481Y-127686446D01*
X189523481Y-127686447D01*
X189517000Y-127757777D01*
X189517000Y-127761000D01*
X191482999Y-127761000D01*
X191482999Y-127757778D01*
X191476518Y-127686446D01*
X191425366Y-127522293D01*
X191336421Y-127375159D01*
X191336413Y-127375149D01*
X191240713Y-127279449D01*
X191206687Y-127217137D01*
X191211752Y-127146322D01*
X191240713Y-127101259D01*
X191336811Y-127005160D01*
X191336816Y-127005155D01*
X191425827Y-126857913D01*
X191477013Y-126693649D01*
X191483500Y-126622265D01*
X191483499Y-126107736D01*
X191477013Y-126036351D01*
X191425827Y-125872087D01*
X191341671Y-125732877D01*
X191323500Y-125667693D01*
X191323500Y-122480409D01*
X191343502Y-122412288D01*
X191397158Y-122365795D01*
X191405469Y-122362353D01*
X191429501Y-122353389D01*
X191436204Y-122350889D01*
X191553261Y-122263261D01*
X191589132Y-122215342D01*
X191645967Y-122172796D01*
X191716783Y-122167731D01*
X191779095Y-122201756D01*
X191790868Y-122215343D01*
X191826738Y-122263261D01*
X191943796Y-122350889D01*
X191974531Y-122362353D01*
X192031368Y-122404899D01*
X192056179Y-122471419D01*
X192056500Y-122480409D01*
X192056500Y-126622261D01*
X192062986Y-126693646D01*
X192062986Y-126693647D01*
X192114170Y-126857906D01*
X192114172Y-126857911D01*
X192203184Y-127005155D01*
X192203188Y-127005160D01*
X192299287Y-127101259D01*
X192333313Y-127163571D01*
X192328248Y-127234386D01*
X192299287Y-127279449D01*
X192203586Y-127375149D01*
X192203578Y-127375159D01*
X192114633Y-127522293D01*
X192063481Y-127686446D01*
X192063481Y-127686447D01*
X192057000Y-127757777D01*
X192057000Y-127761000D01*
X194022999Y-127761000D01*
X194022999Y-127757778D01*
X194016518Y-127686446D01*
X193965366Y-127522293D01*
X193876421Y-127375159D01*
X193876413Y-127375149D01*
X193780713Y-127279449D01*
X193746687Y-127217137D01*
X193751752Y-127146322D01*
X193780713Y-127101259D01*
X193876811Y-127005160D01*
X193876816Y-127005155D01*
X193965827Y-126857913D01*
X194017013Y-126693649D01*
X194023500Y-126622265D01*
X194023499Y-126107736D01*
X194017013Y-126036351D01*
X193965827Y-125872087D01*
X193876816Y-125724845D01*
X193876815Y-125724844D01*
X193876811Y-125724839D01*
X193755160Y-125603188D01*
X193755155Y-125603184D01*
X193607911Y-125514172D01*
X193607906Y-125514170D01*
X193443647Y-125462986D01*
X193438096Y-125462482D01*
X193372065Y-125436397D01*
X193330619Y-125378753D01*
X193323500Y-125336999D01*
X193323500Y-122480409D01*
X193343502Y-122412288D01*
X193397158Y-122365795D01*
X193405469Y-122362353D01*
X193429501Y-122353389D01*
X193436204Y-122350889D01*
X193553261Y-122263261D01*
X193589132Y-122215342D01*
X193645967Y-122172796D01*
X193716783Y-122167731D01*
X193779095Y-122201756D01*
X193790868Y-122215343D01*
X193826738Y-122263261D01*
X193943792Y-122350887D01*
X193943794Y-122350888D01*
X193943796Y-122350889D01*
X193974532Y-122362353D01*
X194080795Y-122401988D01*
X194080803Y-122401990D01*
X194141350Y-122408499D01*
X194141355Y-122408499D01*
X194141362Y-122408500D01*
X194141368Y-122408500D01*
X195238632Y-122408500D01*
X195238638Y-122408500D01*
X195238645Y-122408499D01*
X195238649Y-122408499D01*
X195299196Y-122401990D01*
X195299199Y-122401989D01*
X195299201Y-122401989D01*
X195299577Y-122401849D01*
X195323502Y-122392925D01*
X195436204Y-122350889D01*
X195436803Y-122350441D01*
X195553261Y-122263261D01*
X195589132Y-122215343D01*
X195645967Y-122172796D01*
X195716783Y-122167731D01*
X195779095Y-122201756D01*
X195790868Y-122215343D01*
X195826738Y-122263261D01*
X195943792Y-122350887D01*
X195943794Y-122350888D01*
X195943796Y-122350889D01*
X195974532Y-122362353D01*
X196080795Y-122401988D01*
X196080803Y-122401990D01*
X196141350Y-122408499D01*
X196141355Y-122408499D01*
X196141362Y-122408500D01*
X196683158Y-122408500D01*
X196751279Y-122428502D01*
X196797772Y-122482158D01*
X196807876Y-122552432D01*
X196778382Y-122617012D01*
X196776795Y-122618810D01*
X196745961Y-122653054D01*
X196745958Y-122653058D01*
X196658803Y-122804016D01*
X196650473Y-122818444D01*
X196638192Y-122856240D01*
X196591457Y-123000072D01*
X196571496Y-123190000D01*
X196591457Y-123379927D01*
X196612079Y-123443392D01*
X196650473Y-123561556D01*
X196676069Y-123605889D01*
X196745958Y-123726941D01*
X196745965Y-123726951D01*
X196873744Y-123868864D01*
X196873747Y-123868866D01*
X197028248Y-123981118D01*
X197202712Y-124058794D01*
X197389513Y-124098500D01*
X197580491Y-124098500D01*
X197703305Y-124072394D01*
X197728714Y-124066993D01*
X197799505Y-124072394D01*
X197856138Y-124115210D01*
X197880632Y-124181848D01*
X197874746Y-124229173D01*
X197861457Y-124270072D01*
X197841496Y-124460000D01*
X197861457Y-124649927D01*
X197891526Y-124742470D01*
X197920473Y-124831556D01*
X197920476Y-124831561D01*
X198015958Y-124996941D01*
X198015965Y-124996951D01*
X198143744Y-125138864D01*
X198143747Y-125138866D01*
X198298248Y-125251118D01*
X198472712Y-125328794D01*
X198659513Y-125368500D01*
X198850487Y-125368500D01*
X199037288Y-125328794D01*
X199211752Y-125251118D01*
X199366253Y-125138866D01*
X199494040Y-124996944D01*
X199589527Y-124831556D01*
X199648542Y-124649928D01*
X199665907Y-124484703D01*
X199692920Y-124419048D01*
X199702113Y-124408789D01*
X201078657Y-123032245D01*
X201091092Y-123022284D01*
X201090905Y-123022057D01*
X201097016Y-123017001D01*
X201097015Y-123017001D01*
X201097018Y-123017000D01*
X201143676Y-122967312D01*
X201146367Y-122964535D01*
X201166134Y-122944770D01*
X201168617Y-122941567D01*
X201176307Y-122932564D01*
X201206586Y-122900321D01*
X201206586Y-122900319D01*
X201211651Y-122894927D01*
X201272864Y-122858962D01*
X201343804Y-122861801D01*
X201401948Y-122902542D01*
X201428835Y-122968251D01*
X201429500Y-122981181D01*
X201429500Y-130805878D01*
X201429230Y-130814119D01*
X201412592Y-131067966D01*
X201410441Y-131084306D01*
X201361617Y-131329760D01*
X201357351Y-131345680D01*
X201276906Y-131582663D01*
X201270599Y-131597890D01*
X201159912Y-131822342D01*
X201151671Y-131836616D01*
X201012634Y-132044699D01*
X201002601Y-132057775D01*
X200837589Y-132245935D01*
X200825935Y-132257589D01*
X200637775Y-132422601D01*
X200624699Y-132432634D01*
X200416616Y-132571671D01*
X200402342Y-132579912D01*
X200177890Y-132690599D01*
X200162663Y-132696906D01*
X199925680Y-132777351D01*
X199909760Y-132781617D01*
X199664306Y-132830441D01*
X199647966Y-132832592D01*
X199394119Y-132849230D01*
X199385878Y-132849500D01*
X156380677Y-132849500D01*
X156312556Y-132829498D01*
X156266063Y-132775842D01*
X156255959Y-132705568D01*
X156277105Y-132651745D01*
X156348752Y-132548327D01*
X156403994Y-132468591D01*
X156497679Y-132262336D01*
X156553030Y-132042669D01*
X156563500Y-131909636D01*
X156563500Y-130280364D01*
X156553030Y-130147331D01*
X156497679Y-129927664D01*
X156427415Y-129772972D01*
X156403995Y-129721411D01*
X156403990Y-129721402D01*
X156274988Y-129535200D01*
X156274984Y-129535195D01*
X156114804Y-129375015D01*
X156114799Y-129375011D01*
X155928597Y-129246009D01*
X155928588Y-129246004D01*
X155722341Y-129152323D01*
X155722338Y-129152322D01*
X155722336Y-129152321D01*
X155502669Y-129096970D01*
X155369636Y-129086500D01*
X153240364Y-129086500D01*
X153107331Y-129096970D01*
X153107327Y-129096970D01*
X153107326Y-129096971D01*
X152887667Y-129152320D01*
X152887658Y-129152323D01*
X152681411Y-129246004D01*
X152681402Y-129246009D01*
X152495200Y-129375011D01*
X152495195Y-129375015D01*
X152335015Y-129535195D01*
X152335011Y-129535200D01*
X152206009Y-129721402D01*
X152206004Y-129721411D01*
X152112323Y-129927658D01*
X152112322Y-129927661D01*
X152112321Y-129927664D01*
X152111409Y-129931283D01*
X152110537Y-129932762D01*
X152110452Y-129933007D01*
X152110403Y-129932990D01*
X152075373Y-129992451D01*
X152011986Y-130024428D01*
X151989228Y-130026500D01*
X151824924Y-130026500D01*
X151756803Y-130006498D01*
X151735829Y-129989595D01*
X150270405Y-128524171D01*
X150236379Y-128461859D01*
X150233500Y-128435076D01*
X150233500Y-126643649D01*
X151546500Y-126643649D01*
X151553009Y-126704196D01*
X151553011Y-126704204D01*
X151604110Y-126841202D01*
X151604112Y-126841207D01*
X151691738Y-126958261D01*
X151808792Y-127045887D01*
X151808794Y-127045888D01*
X151808796Y-127045889D01*
X151867875Y-127067924D01*
X151945795Y-127096988D01*
X151945803Y-127096990D01*
X152006350Y-127103499D01*
X152006355Y-127103499D01*
X152006362Y-127103500D01*
X152006368Y-127103500D01*
X156603632Y-127103500D01*
X156603638Y-127103500D01*
X156603645Y-127103499D01*
X156603649Y-127103499D01*
X156664196Y-127096990D01*
X156664199Y-127096989D01*
X156664201Y-127096989D01*
X156801204Y-127045889D01*
X156801207Y-127045887D01*
X156894991Y-126975681D01*
X156961511Y-126950870D01*
X157030885Y-126965961D01*
X157081087Y-127016163D01*
X157096500Y-127076549D01*
X157096500Y-128659636D01*
X157106970Y-128792669D01*
X157106970Y-128792672D01*
X157106971Y-128792673D01*
X157162320Y-129012332D01*
X157162323Y-129012341D01*
X157256004Y-129218588D01*
X157256009Y-129218597D01*
X157385011Y-129404799D01*
X157385015Y-129404804D01*
X157545195Y-129564984D01*
X157545200Y-129564988D01*
X157731402Y-129693990D01*
X157731408Y-129693993D01*
X157731409Y-129693994D01*
X157937664Y-129787679D01*
X158157331Y-129843030D01*
X158290364Y-129853500D01*
X158290367Y-129853500D01*
X159919633Y-129853500D01*
X159919636Y-129853500D01*
X160052669Y-129843030D01*
X160272336Y-129787679D01*
X160478591Y-129693994D01*
X160531221Y-129657532D01*
X160664799Y-129564988D01*
X160664798Y-129564988D01*
X160664802Y-129564986D01*
X160824986Y-129404802D01*
X160867988Y-129342731D01*
X160953990Y-129218597D01*
X160953990Y-129218595D01*
X160953994Y-129218591D01*
X161047679Y-129012336D01*
X161074725Y-128905000D01*
X168181844Y-128905000D01*
X168199232Y-129114844D01*
X168200437Y-129129375D01*
X168255702Y-129347612D01*
X168255703Y-129347613D01*
X168255704Y-129347616D01*
X168337985Y-129535200D01*
X168346141Y-129553793D01*
X168469275Y-129742265D01*
X168469279Y-129742270D01*
X168621762Y-129907908D01*
X168654009Y-129933007D01*
X168799424Y-130046189D01*
X168997426Y-130153342D01*
X168997427Y-130153342D01*
X168997428Y-130153343D01*
X169109227Y-130191723D01*
X169210365Y-130226444D01*
X169432431Y-130263500D01*
X169432435Y-130263500D01*
X169657565Y-130263500D01*
X169657569Y-130263500D01*
X169879635Y-130226444D01*
X170092574Y-130153342D01*
X170290576Y-130046189D01*
X170468240Y-129907906D01*
X170620722Y-129742268D01*
X170709518Y-129606354D01*
X170763520Y-129560268D01*
X170833868Y-129550692D01*
X170898225Y-129580669D01*
X170920480Y-129606353D01*
X170930420Y-129621566D01*
X171009275Y-129742265D01*
X171009279Y-129742270D01*
X171161762Y-129907908D01*
X171194009Y-129933007D01*
X171339424Y-130046189D01*
X171537426Y-130153342D01*
X171537427Y-130153342D01*
X171537428Y-130153343D01*
X171649227Y-130191723D01*
X171750365Y-130226444D01*
X171972431Y-130263500D01*
X171972435Y-130263500D01*
X172197565Y-130263500D01*
X172197569Y-130263500D01*
X172419635Y-130226444D01*
X172632574Y-130153342D01*
X172830576Y-130046189D01*
X173008240Y-129907906D01*
X173160722Y-129742268D01*
X173249518Y-129606354D01*
X173303520Y-129560268D01*
X173373868Y-129550692D01*
X173438225Y-129580669D01*
X173460480Y-129606353D01*
X173470420Y-129621566D01*
X173549275Y-129742265D01*
X173549279Y-129742270D01*
X173701762Y-129907908D01*
X173734009Y-129933007D01*
X173879424Y-130046189D01*
X174077426Y-130153342D01*
X174077427Y-130153342D01*
X174077428Y-130153343D01*
X174189227Y-130191723D01*
X174290365Y-130226444D01*
X174512431Y-130263500D01*
X174512435Y-130263500D01*
X174737565Y-130263500D01*
X174737569Y-130263500D01*
X174959635Y-130226444D01*
X175172574Y-130153342D01*
X175370576Y-130046189D01*
X175548240Y-129907906D01*
X175609626Y-129841222D01*
X175670476Y-129804654D01*
X175741441Y-129806787D01*
X175799986Y-129846949D01*
X175820380Y-129882529D01*
X175864553Y-130000961D01*
X175864555Y-130000965D01*
X175952095Y-130117904D01*
X176069034Y-130205444D01*
X176205906Y-130256494D01*
X176266402Y-130262999D01*
X176266415Y-130263000D01*
X176911000Y-130263000D01*
X176911000Y-129338674D01*
X177022685Y-129389680D01*
X177129237Y-129405000D01*
X177200763Y-129405000D01*
X177307315Y-129389680D01*
X177419000Y-129338674D01*
X177419000Y-130263000D01*
X178063585Y-130263000D01*
X178063597Y-130262999D01*
X178124093Y-130256494D01*
X178260964Y-130205444D01*
X178260965Y-130205444D01*
X178377904Y-130117904D01*
X178465444Y-130000965D01*
X178465444Y-130000964D01*
X178516494Y-129864093D01*
X178522999Y-129803597D01*
X178523000Y-129803585D01*
X178523000Y-129159000D01*
X177596116Y-129159000D01*
X177624493Y-129114844D01*
X177665000Y-128976889D01*
X177665000Y-128833111D01*
X177624493Y-128695156D01*
X177596116Y-128651000D01*
X178523000Y-128651000D01*
X178523000Y-128006414D01*
X178522999Y-128006402D01*
X178516494Y-127945906D01*
X178465444Y-127809035D01*
X178465444Y-127809034D01*
X178377904Y-127692095D01*
X178260965Y-127604555D01*
X178124093Y-127553505D01*
X178063597Y-127547000D01*
X177419000Y-127547000D01*
X177419000Y-128471325D01*
X177307315Y-128420320D01*
X177200763Y-128405000D01*
X177129237Y-128405000D01*
X177022685Y-128420320D01*
X176911000Y-128471325D01*
X176911000Y-127547000D01*
X176266402Y-127547000D01*
X176205906Y-127553505D01*
X176069035Y-127604555D01*
X176069034Y-127604555D01*
X175952095Y-127692095D01*
X175864555Y-127809034D01*
X175864553Y-127809039D01*
X175820380Y-127927470D01*
X175777833Y-127984306D01*
X175711313Y-128009116D01*
X175641939Y-127994024D01*
X175609626Y-127968777D01*
X175548240Y-127902094D01*
X175548239Y-127902093D01*
X175548237Y-127902091D01*
X175428679Y-127809035D01*
X175370576Y-127763811D01*
X175172574Y-127656658D01*
X175172572Y-127656657D01*
X175172571Y-127656656D01*
X174959639Y-127583557D01*
X174959630Y-127583555D01*
X174915476Y-127576187D01*
X174737569Y-127546500D01*
X174512431Y-127546500D01*
X174364211Y-127571233D01*
X174290369Y-127583555D01*
X174290360Y-127583557D01*
X174077428Y-127656656D01*
X174077426Y-127656658D01*
X173879426Y-127763810D01*
X173879424Y-127763811D01*
X173701762Y-127902091D01*
X173549279Y-128067729D01*
X173460483Y-128203643D01*
X173406479Y-128249731D01*
X173336131Y-128259306D01*
X173271774Y-128229329D01*
X173249517Y-128203643D01*
X173160720Y-128067729D01*
X173008237Y-127902091D01*
X172888679Y-127809035D01*
X172830576Y-127763811D01*
X172632574Y-127656658D01*
X172632572Y-127656657D01*
X172632571Y-127656656D01*
X172419639Y-127583557D01*
X172419630Y-127583555D01*
X172375476Y-127576187D01*
X172197569Y-127546500D01*
X171972431Y-127546500D01*
X171824211Y-127571233D01*
X171750369Y-127583555D01*
X171750360Y-127583557D01*
X171537428Y-127656656D01*
X171537426Y-127656658D01*
X171339426Y-127763810D01*
X171339424Y-127763811D01*
X171161762Y-127902091D01*
X171009279Y-128067729D01*
X170920483Y-128203643D01*
X170866479Y-128249731D01*
X170796131Y-128259306D01*
X170731774Y-128229329D01*
X170709517Y-128203643D01*
X170620720Y-128067729D01*
X170468237Y-127902091D01*
X170348679Y-127809035D01*
X170290576Y-127763811D01*
X170092574Y-127656658D01*
X170092572Y-127656657D01*
X170092571Y-127656656D01*
X169879639Y-127583557D01*
X169879630Y-127583555D01*
X169835476Y-127576187D01*
X169657569Y-127546500D01*
X169432431Y-127546500D01*
X169284211Y-127571233D01*
X169210369Y-127583555D01*
X169210360Y-127583557D01*
X168997428Y-127656656D01*
X168997426Y-127656658D01*
X168799426Y-127763810D01*
X168799424Y-127763811D01*
X168621762Y-127902091D01*
X168469279Y-128067729D01*
X168469275Y-128067734D01*
X168346141Y-128256206D01*
X168255703Y-128462386D01*
X168255702Y-128462387D01*
X168200437Y-128680624D01*
X168200436Y-128680630D01*
X168200436Y-128680632D01*
X168181844Y-128905000D01*
X161074725Y-128905000D01*
X161103030Y-128792669D01*
X161113500Y-128659636D01*
X161113500Y-126530364D01*
X161103030Y-126397331D01*
X161047679Y-126177664D01*
X160963609Y-125992577D01*
X160953995Y-125971411D01*
X160953990Y-125971402D01*
X160824988Y-125785200D01*
X160824984Y-125785195D01*
X160664804Y-125625015D01*
X160664799Y-125625011D01*
X160478597Y-125496009D01*
X160478588Y-125496004D01*
X160272341Y-125402323D01*
X160272338Y-125402322D01*
X160272336Y-125402321D01*
X160052669Y-125346970D01*
X159919636Y-125336500D01*
X158290364Y-125336500D01*
X158157331Y-125346970D01*
X158157327Y-125346970D01*
X158157326Y-125346971D01*
X157937667Y-125402320D01*
X157937658Y-125402323D01*
X157731411Y-125496004D01*
X157731402Y-125496009D01*
X157545200Y-125625011D01*
X157545195Y-125625015D01*
X157385015Y-125785195D01*
X157385011Y-125785200D01*
X157293072Y-125917906D01*
X157237836Y-125962511D01*
X157167254Y-125970172D01*
X157103735Y-125938457D01*
X157067446Y-125877436D01*
X157063500Y-125846151D01*
X157063500Y-123689500D01*
X157083502Y-123621379D01*
X157137158Y-123574886D01*
X157189500Y-123563500D01*
X161615234Y-123563500D01*
X161683355Y-123583502D01*
X161690735Y-123588626D01*
X161694182Y-123591206D01*
X161713796Y-123605889D01*
X161850795Y-123656988D01*
X161850803Y-123656990D01*
X161911350Y-123663499D01*
X161911355Y-123663499D01*
X161911362Y-123663500D01*
X161911368Y-123663500D01*
X163208632Y-123663500D01*
X163208638Y-123663500D01*
X163208645Y-123663499D01*
X163208649Y-123663499D01*
X163269196Y-123656990D01*
X163269199Y-123656989D01*
X163269201Y-123656989D01*
X163406204Y-123605889D01*
X163451881Y-123571694D01*
X163518396Y-123546885D01*
X163572900Y-123555072D01*
X163755345Y-123625751D01*
X163957282Y-123663500D01*
X163957285Y-123663500D01*
X164162715Y-123663500D01*
X164162718Y-123663500D01*
X164364655Y-123625751D01*
X164556218Y-123551540D01*
X164730882Y-123443392D01*
X164882701Y-123304991D01*
X165006503Y-123141050D01*
X165006504Y-123141046D01*
X165006506Y-123141045D01*
X165098070Y-122957160D01*
X165098069Y-122957160D01*
X165098074Y-122957152D01*
X165154294Y-122759559D01*
X165173249Y-122555000D01*
X165154294Y-122350441D01*
X165098074Y-122152848D01*
X165098070Y-122152839D01*
X165006506Y-121968954D01*
X165006502Y-121968949D01*
X164882702Y-121805009D01*
X164730883Y-121666608D01*
X164556223Y-121558463D01*
X164556222Y-121558462D01*
X164556218Y-121558460D01*
X164438867Y-121512998D01*
X164364656Y-121484249D01*
X164314170Y-121474811D01*
X164162718Y-121446500D01*
X163957282Y-121446500D01*
X163755345Y-121484249D01*
X163755343Y-121484249D01*
X163755341Y-121484250D01*
X163572902Y-121554926D01*
X163502156Y-121560882D01*
X163451879Y-121538303D01*
X163406204Y-121504111D01*
X163406203Y-121504110D01*
X163269204Y-121453011D01*
X163269196Y-121453009D01*
X163208649Y-121446500D01*
X163208638Y-121446500D01*
X161911362Y-121446500D01*
X161911350Y-121446500D01*
X161850803Y-121453009D01*
X161850795Y-121453011D01*
X161713797Y-121504110D01*
X161713796Y-121504110D01*
X161698073Y-121515880D01*
X161690742Y-121521368D01*
X161624224Y-121546179D01*
X161615234Y-121546500D01*
X158374500Y-121546500D01*
X158306379Y-121526498D01*
X158259886Y-121472842D01*
X158248500Y-121420500D01*
X158248500Y-119589755D01*
X158268502Y-119521634D01*
X158298991Y-119488887D01*
X158353261Y-119448261D01*
X158440887Y-119331207D01*
X158440887Y-119331206D01*
X158440889Y-119331204D01*
X158491989Y-119194201D01*
X158498500Y-119133638D01*
X158498500Y-118969500D01*
X158518502Y-118901379D01*
X158572158Y-118854886D01*
X158624500Y-118843500D01*
X160813628Y-118843500D01*
X160881749Y-118863502D01*
X160902718Y-118880400D01*
X160976348Y-118954030D01*
X161127262Y-119047115D01*
X161295574Y-119102887D01*
X161399455Y-119113500D01*
X161818494Y-119113499D01*
X161830845Y-119114106D01*
X161924998Y-119123380D01*
X161925000Y-119123380D01*
X161925002Y-119123380D01*
X162019155Y-119114106D01*
X162031506Y-119113499D01*
X162450544Y-119113499D01*
X162554426Y-119102887D01*
X162722738Y-119047115D01*
X162873652Y-118954030D01*
X162927278Y-118900403D01*
X162989588Y-118866380D01*
X163016372Y-118863500D01*
X164008628Y-118863500D01*
X164076749Y-118883502D01*
X164097718Y-118900400D01*
X164151348Y-118954030D01*
X164302262Y-119047115D01*
X164470574Y-119102887D01*
X164574455Y-119113500D01*
X165625544Y-119113499D01*
X165729426Y-119102887D01*
X165897738Y-119047115D01*
X166048652Y-118954030D01*
X166174030Y-118828652D01*
X166267115Y-118677738D01*
X166322887Y-118509426D01*
X166333500Y-118405545D01*
X166333499Y-117804456D01*
X166322887Y-117700574D01*
X166267115Y-117532262D01*
X166174030Y-117381348D01*
X166174029Y-117381347D01*
X166174024Y-117381341D01*
X166048654Y-117255971D01*
X166045956Y-117253838D01*
X166044584Y-117251901D01*
X166043463Y-117250780D01*
X166043654Y-117250588D01*
X166004925Y-117195899D01*
X166001733Y-117124974D01*
X166037392Y-117063582D01*
X166045956Y-117056162D01*
X166048649Y-117054031D01*
X166048652Y-117054030D01*
X166174030Y-116928652D01*
X166191434Y-116900434D01*
X166244217Y-116852958D01*
X166314291Y-116841554D01*
X166379407Y-116869845D01*
X166392306Y-116882267D01*
X166393744Y-116883864D01*
X166454999Y-116928368D01*
X166548248Y-116996118D01*
X166722712Y-117073794D01*
X166909513Y-117113500D01*
X167100487Y-117113500D01*
X167287288Y-117073794D01*
X167461752Y-116996118D01*
X167616253Y-116883866D01*
X167657101Y-116838500D01*
X167744034Y-116741951D01*
X167744035Y-116741949D01*
X167744040Y-116741944D01*
X167839527Y-116576556D01*
X167898542Y-116394928D01*
X167918504Y-116205000D01*
X167898542Y-116015072D01*
X167839527Y-115833444D01*
X167744040Y-115668056D01*
X167744038Y-115668054D01*
X167744034Y-115668048D01*
X167616255Y-115526135D01*
X167461752Y-115413882D01*
X167287288Y-115336206D01*
X167100487Y-115296500D01*
X166909513Y-115296500D01*
X166722711Y-115336206D01*
X166548247Y-115413882D01*
X166393743Y-115526136D01*
X166393742Y-115526137D01*
X166392300Y-115527739D01*
X166391235Y-115528394D01*
X166388837Y-115530554D01*
X166388441Y-115530115D01*
X166331849Y-115564971D01*
X166260865Y-115563611D01*
X166201886Y-115524089D01*
X166191433Y-115509563D01*
X166174031Y-115481350D01*
X166174030Y-115481348D01*
X166174027Y-115481345D01*
X166174024Y-115481341D01*
X166048658Y-115355975D01*
X166048652Y-115355970D01*
X165897738Y-115262885D01*
X165813582Y-115234999D01*
X165729427Y-115207113D01*
X165729420Y-115207112D01*
X165625553Y-115196500D01*
X164574455Y-115196500D01*
X164470574Y-115207112D01*
X164302261Y-115262885D01*
X164151347Y-115355970D01*
X164151346Y-115355971D01*
X164124535Y-115382783D01*
X164097721Y-115409596D01*
X164035412Y-115443620D01*
X164008628Y-115446500D01*
X163016372Y-115446500D01*
X162948251Y-115426498D01*
X162927281Y-115409599D01*
X162873652Y-115355970D01*
X162722738Y-115262885D01*
X162638582Y-115234999D01*
X162554427Y-115207113D01*
X162554420Y-115207112D01*
X162450553Y-115196500D01*
X161399455Y-115196500D01*
X161295574Y-115207112D01*
X161127261Y-115262885D01*
X160976347Y-115355970D01*
X160976341Y-115355975D01*
X160850975Y-115481341D01*
X160850970Y-115481347D01*
X160757885Y-115632262D01*
X160702113Y-115800572D01*
X160702112Y-115800579D01*
X160691500Y-115904446D01*
X160691500Y-116505544D01*
X160702112Y-116609425D01*
X160757885Y-116777738D01*
X160850970Y-116928652D01*
X160850975Y-116928658D01*
X160976344Y-117054027D01*
X160979049Y-117056166D01*
X160980421Y-117058104D01*
X160981537Y-117059220D01*
X160981346Y-117059410D01*
X161020076Y-117114108D01*
X161023264Y-117185033D01*
X160987602Y-117246423D01*
X160979049Y-117253834D01*
X160976349Y-117255968D01*
X160959537Y-117272781D01*
X160942722Y-117289595D01*
X160880413Y-117323620D01*
X160853628Y-117326500D01*
X158624500Y-117326500D01*
X158556379Y-117306498D01*
X158509886Y-117252842D01*
X158498500Y-117200500D01*
X158498500Y-117036367D01*
X158498499Y-117036350D01*
X158491990Y-116975803D01*
X158491988Y-116975795D01*
X158446171Y-116852958D01*
X158440889Y-116838796D01*
X158440888Y-116838794D01*
X158440887Y-116838792D01*
X158353261Y-116721738D01*
X158236207Y-116634112D01*
X158236202Y-116634110D01*
X158099204Y-116583011D01*
X158099196Y-116583009D01*
X158038649Y-116576500D01*
X158038638Y-116576500D01*
X156441362Y-116576500D01*
X156441350Y-116576500D01*
X156380803Y-116583009D01*
X156380795Y-116583011D01*
X156243797Y-116634110D01*
X156243793Y-116634112D01*
X156165090Y-116693028D01*
X156098570Y-116717838D01*
X156029196Y-116702746D01*
X156014073Y-116693027D01*
X155935965Y-116634555D01*
X155799093Y-116583505D01*
X155738597Y-116577000D01*
X155194000Y-116577000D01*
X155194000Y-119593000D01*
X155738585Y-119593000D01*
X155738597Y-119592999D01*
X155799093Y-119586494D01*
X155935963Y-119535445D01*
X156014073Y-119476972D01*
X156080594Y-119452161D01*
X156149968Y-119467252D01*
X156165091Y-119476971D01*
X156181008Y-119488886D01*
X156223555Y-119545721D01*
X156231500Y-119589755D01*
X156231500Y-121330074D01*
X156211498Y-121398195D01*
X156194595Y-121419170D01*
X155811295Y-121802469D01*
X155802136Y-121810770D01*
X155768431Y-121838431D01*
X155740770Y-121872136D01*
X155732469Y-121881295D01*
X155446035Y-122167731D01*
X155351918Y-122261848D01*
X154564169Y-123049596D01*
X154501859Y-123083620D01*
X154475076Y-123086500D01*
X152006350Y-123086500D01*
X151945803Y-123093009D01*
X151945795Y-123093011D01*
X151808797Y-123144110D01*
X151808792Y-123144112D01*
X151691738Y-123231738D01*
X151604112Y-123348792D01*
X151604110Y-123348797D01*
X151553011Y-123485795D01*
X151553009Y-123485803D01*
X151546500Y-123546350D01*
X151546500Y-126643649D01*
X150233500Y-126643649D01*
X150233500Y-121969924D01*
X150253502Y-121901803D01*
X150270405Y-121880829D01*
X152520829Y-119630405D01*
X152583141Y-119596379D01*
X152609924Y-119593500D01*
X153438632Y-119593500D01*
X153438638Y-119593500D01*
X153438645Y-119593499D01*
X153438649Y-119593499D01*
X153499196Y-119586990D01*
X153499199Y-119586989D01*
X153499201Y-119586989D01*
X153636204Y-119535889D01*
X153714910Y-119476969D01*
X153781425Y-119452160D01*
X153850799Y-119467250D01*
X153865926Y-119476971D01*
X153944036Y-119535445D01*
X154080906Y-119586494D01*
X154141402Y-119592999D01*
X154141415Y-119593000D01*
X154686000Y-119593000D01*
X154686000Y-116577000D01*
X154141402Y-116577000D01*
X154080906Y-116583505D01*
X153944035Y-116634555D01*
X153865924Y-116693028D01*
X153799404Y-116717838D01*
X153730030Y-116702746D01*
X153714907Y-116693027D01*
X153636207Y-116634112D01*
X153636202Y-116634110D01*
X153499204Y-116583011D01*
X153499196Y-116583009D01*
X153438649Y-116576500D01*
X153438638Y-116576500D01*
X151841362Y-116576500D01*
X151841350Y-116576500D01*
X151780803Y-116583009D01*
X151780795Y-116583011D01*
X151643797Y-116634110D01*
X151643792Y-116634112D01*
X151526738Y-116721738D01*
X151439112Y-116838792D01*
X151439110Y-116838797D01*
X151388011Y-116975795D01*
X151388009Y-116975803D01*
X151381500Y-117036350D01*
X151381500Y-117865075D01*
X151361498Y-117933196D01*
X151344595Y-117954170D01*
X148551301Y-120747463D01*
X148542142Y-120755765D01*
X148508432Y-120783430D01*
X148382405Y-120936995D01*
X148328522Y-121037804D01*
X148288760Y-121112192D01*
X148288754Y-121112207D01*
X148231091Y-121302295D01*
X148231089Y-121302307D01*
X148211620Y-121499995D01*
X148211620Y-121500001D01*
X148215893Y-121543385D01*
X148216500Y-121555736D01*
X148216500Y-128849262D01*
X148215893Y-128861612D01*
X148211620Y-128904996D01*
X148211620Y-128905004D01*
X148231089Y-129102692D01*
X148231091Y-129102704D01*
X148271732Y-129236674D01*
X148288759Y-129292805D01*
X148348621Y-129404799D01*
X148382405Y-129468004D01*
X148508432Y-129621568D01*
X148542149Y-129649239D01*
X148551298Y-129657532D01*
X150602462Y-131708696D01*
X150610766Y-131717857D01*
X150638432Y-131751568D01*
X150791996Y-131877595D01*
X150967196Y-131971241D01*
X151011442Y-131984662D01*
X151157299Y-132028909D01*
X151157305Y-132028909D01*
X151157307Y-132028910D01*
X151354996Y-132048380D01*
X151355000Y-132048380D01*
X151355003Y-132048380D01*
X151398387Y-132044107D01*
X151410737Y-132043500D01*
X151958990Y-132043500D01*
X152027111Y-132063502D01*
X152073604Y-132117158D01*
X152081171Y-132138713D01*
X152112320Y-132262332D01*
X152112323Y-132262341D01*
X152206004Y-132468588D01*
X152206010Y-132468597D01*
X152332895Y-132651745D01*
X152355247Y-132719131D01*
X152337619Y-132787904D01*
X152285608Y-132836230D01*
X152229323Y-132849500D01*
X142244122Y-132849500D01*
X142235881Y-132849230D01*
X141982033Y-132832592D01*
X141965693Y-132830441D01*
X141720239Y-132781617D01*
X141704319Y-132777351D01*
X141467336Y-132696906D01*
X141452109Y-132690599D01*
X141373321Y-132651745D01*
X141227653Y-132579910D01*
X141213387Y-132571673D01*
X141005297Y-132432631D01*
X140992224Y-132422601D01*
X140809483Y-132262341D01*
X140804058Y-132257583D01*
X140792416Y-132245941D01*
X140627394Y-132057770D01*
X140617369Y-132044705D01*
X140478323Y-131836608D01*
X140470092Y-131822351D01*
X140359396Y-131597880D01*
X140353093Y-131582663D01*
X140272648Y-131345680D01*
X140268384Y-131329768D01*
X140219556Y-131084294D01*
X140217408Y-131067976D01*
X140200770Y-130814118D01*
X140200500Y-130805878D01*
X140200500Y-129540000D01*
X142154341Y-129540000D01*
X142174937Y-129775411D01*
X142236096Y-130003661D01*
X142236098Y-130003665D01*
X142335966Y-130217832D01*
X142471498Y-130411392D01*
X142471502Y-130411397D01*
X142471505Y-130411401D01*
X142638599Y-130578495D01*
X142638603Y-130578498D01*
X142638607Y-130578501D01*
X142832167Y-130714033D01*
X142832166Y-130714033D01*
X142896662Y-130744108D01*
X143046337Y-130813903D01*
X143274592Y-130875063D01*
X143451034Y-130890500D01*
X143451041Y-130890500D01*
X143568959Y-130890500D01*
X143568966Y-130890500D01*
X143745408Y-130875063D01*
X143973663Y-130813903D01*
X144187829Y-130714035D01*
X144381401Y-130578495D01*
X144548495Y-130411401D01*
X144684035Y-130217830D01*
X144783903Y-130003663D01*
X144845063Y-129775408D01*
X144865659Y-129540000D01*
X144845063Y-129304592D01*
X144841904Y-129292804D01*
X144804263Y-129152323D01*
X144783903Y-129076337D01*
X144684035Y-128862171D01*
X144684034Y-128862169D01*
X144684033Y-128862167D01*
X144548501Y-128668607D01*
X144548497Y-128668602D01*
X144548495Y-128668599D01*
X144381401Y-128501505D01*
X144381397Y-128501502D01*
X144381392Y-128501498D01*
X144187832Y-128365966D01*
X144187833Y-128365966D01*
X143973665Y-128266098D01*
X143973661Y-128266096D01*
X143745411Y-128204937D01*
X143692475Y-128200305D01*
X143568966Y-128189500D01*
X143451034Y-128189500D01*
X143338752Y-128199323D01*
X143274588Y-128204937D01*
X143046338Y-128266096D01*
X143046334Y-128266098D01*
X142832167Y-128365966D01*
X142638607Y-128501498D01*
X142638596Y-128501507D01*
X142471507Y-128668596D01*
X142471502Y-128668602D01*
X142335965Y-128862169D01*
X142236098Y-129076334D01*
X142236096Y-129076338D01*
X142174937Y-129304588D01*
X142154341Y-129540000D01*
X140200500Y-129540000D01*
X140200500Y-112039000D01*
X152532000Y-112039000D01*
X152532000Y-112833597D01*
X152538505Y-112894093D01*
X152589555Y-113030964D01*
X152589555Y-113030965D01*
X152677095Y-113147904D01*
X152794034Y-113235444D01*
X152930906Y-113286494D01*
X152991402Y-113292999D01*
X152991415Y-113293000D01*
X154686000Y-113293000D01*
X154686000Y-112039000D01*
X155194000Y-112039000D01*
X155194000Y-113293000D01*
X156888585Y-113293000D01*
X156888597Y-113292999D01*
X156949093Y-113286494D01*
X157085964Y-113235444D01*
X157085965Y-113235444D01*
X157202904Y-113147904D01*
X157290444Y-113030965D01*
X157290444Y-113030964D01*
X157341494Y-112894093D01*
X157347999Y-112833597D01*
X157348000Y-112833585D01*
X157348000Y-112039000D01*
X155194000Y-112039000D01*
X154686000Y-112039000D01*
X152532000Y-112039000D01*
X140200500Y-112039000D01*
X140200500Y-111531000D01*
X152532000Y-111531000D01*
X154686000Y-111531000D01*
X154686000Y-110277000D01*
X155194000Y-110277000D01*
X155194000Y-111531000D01*
X157348000Y-111531000D01*
X157348000Y-110736414D01*
X157347999Y-110736402D01*
X157341494Y-110675906D01*
X157290444Y-110539035D01*
X157290444Y-110539034D01*
X157202904Y-110422095D01*
X157085965Y-110334555D01*
X156949093Y-110283505D01*
X156888597Y-110277000D01*
X155194000Y-110277000D01*
X154686000Y-110277000D01*
X152991402Y-110277000D01*
X152930906Y-110283505D01*
X152794035Y-110334555D01*
X152794034Y-110334555D01*
X152677095Y-110422095D01*
X152589555Y-110539034D01*
X152589555Y-110539035D01*
X152538505Y-110675906D01*
X152532000Y-110736402D01*
X152532000Y-111531000D01*
X140200500Y-111531000D01*
X140200500Y-107315000D01*
X150851496Y-107315000D01*
X150871457Y-107504927D01*
X150890691Y-107564121D01*
X150930473Y-107686556D01*
X150930476Y-107686561D01*
X151025958Y-107851941D01*
X151025965Y-107851951D01*
X151153744Y-107993864D01*
X151153747Y-107993866D01*
X151308248Y-108106118D01*
X151482712Y-108183794D01*
X151669513Y-108223500D01*
X151860487Y-108223500D01*
X152047288Y-108183794D01*
X152182210Y-108123722D01*
X152252577Y-108114289D01*
X152316874Y-108144395D01*
X152340699Y-108172682D01*
X152365968Y-108213650D01*
X152365975Y-108213658D01*
X152491341Y-108339024D01*
X152491347Y-108339029D01*
X152491348Y-108339030D01*
X152642262Y-108432115D01*
X152810574Y-108487887D01*
X152914455Y-108498500D01*
X154090544Y-108498499D01*
X154194426Y-108487887D01*
X154362738Y-108432115D01*
X154513652Y-108339030D01*
X154639030Y-108213652D01*
X154732115Y-108062738D01*
X154787887Y-107894426D01*
X154798500Y-107790545D01*
X154798500Y-107569000D01*
X155082000Y-107569000D01*
X155082000Y-107790516D01*
X155092605Y-107894318D01*
X155092606Y-107894321D01*
X155148342Y-108062525D01*
X155241365Y-108213339D01*
X155241370Y-108213345D01*
X155366654Y-108338629D01*
X155366660Y-108338634D01*
X155517474Y-108431657D01*
X155685678Y-108487393D01*
X155685681Y-108487394D01*
X155789483Y-108497999D01*
X155789483Y-108498000D01*
X156123500Y-108498000D01*
X156123500Y-107569000D01*
X156631500Y-107569000D01*
X156631500Y-108498000D01*
X156965517Y-108498000D01*
X156965516Y-108497999D01*
X157069318Y-108487394D01*
X157069321Y-108487393D01*
X157237525Y-108431657D01*
X157388339Y-108338634D01*
X157388345Y-108338629D01*
X157513629Y-108213345D01*
X157513634Y-108213339D01*
X157606657Y-108062525D01*
X157662393Y-107894321D01*
X157662394Y-107894318D01*
X157672999Y-107790516D01*
X157673000Y-107790516D01*
X157673000Y-107569000D01*
X156631500Y-107569000D01*
X156123500Y-107569000D01*
X155082000Y-107569000D01*
X154798500Y-107569000D01*
X154798499Y-107061000D01*
X155082000Y-107061000D01*
X156123500Y-107061000D01*
X156123500Y-106132000D01*
X156631500Y-106132000D01*
X156631500Y-107061000D01*
X157673000Y-107061000D01*
X157673000Y-106839483D01*
X157662394Y-106735681D01*
X157662393Y-106735678D01*
X157606657Y-106567474D01*
X157513634Y-106416660D01*
X157513629Y-106416654D01*
X157388345Y-106291370D01*
X157388339Y-106291365D01*
X157237525Y-106198342D01*
X157069321Y-106142606D01*
X157069318Y-106142605D01*
X156965516Y-106132000D01*
X156631500Y-106132000D01*
X156123500Y-106132000D01*
X155789483Y-106132000D01*
X155685681Y-106142605D01*
X155685678Y-106142606D01*
X155517474Y-106198342D01*
X155366660Y-106291365D01*
X155366654Y-106291370D01*
X155241370Y-106416654D01*
X155241365Y-106416660D01*
X155148342Y-106567474D01*
X155092606Y-106735678D01*
X155092605Y-106735681D01*
X155082000Y-106839483D01*
X155082000Y-107061000D01*
X154798499Y-107061000D01*
X154798499Y-106839456D01*
X154794969Y-106804905D01*
X154787887Y-106735574D01*
X154775502Y-106698197D01*
X154732115Y-106567262D01*
X154639030Y-106416348D01*
X154639029Y-106416347D01*
X154639024Y-106416341D01*
X154513658Y-106290975D01*
X154513652Y-106290970D01*
X154509620Y-106288483D01*
X154362738Y-106197885D01*
X154270588Y-106167350D01*
X154194427Y-106142113D01*
X154194420Y-106142112D01*
X154090553Y-106131500D01*
X152914455Y-106131500D01*
X152810574Y-106142112D01*
X152642261Y-106197885D01*
X152491347Y-106290970D01*
X152491341Y-106290975D01*
X152365975Y-106416341D01*
X152365968Y-106416349D01*
X152340699Y-106457318D01*
X152287913Y-106504795D01*
X152217838Y-106516198D01*
X152182210Y-106506277D01*
X152178881Y-106504795D01*
X152047288Y-106446206D01*
X151860487Y-106406500D01*
X151669513Y-106406500D01*
X151482711Y-106446206D01*
X151308247Y-106523882D01*
X151153744Y-106636135D01*
X151025965Y-106778048D01*
X151025958Y-106778058D01*
X150947592Y-106913793D01*
X150930473Y-106943444D01*
X150925988Y-106957247D01*
X150871457Y-107125072D01*
X150851496Y-107315000D01*
X140200500Y-107315000D01*
X140200500Y-104353597D01*
X143377000Y-104353597D01*
X143383505Y-104414093D01*
X143434555Y-104550964D01*
X143434555Y-104550965D01*
X143522095Y-104667904D01*
X143639034Y-104755444D01*
X143775906Y-104806494D01*
X143836402Y-104812999D01*
X143836415Y-104813000D01*
X144431000Y-104813000D01*
X144431000Y-103816686D01*
X144446955Y-103832641D01*
X144559852Y-103890165D01*
X144653519Y-103905000D01*
X144716481Y-103905000D01*
X144810148Y-103890165D01*
X144923045Y-103832641D01*
X144939000Y-103816686D01*
X144939000Y-104813000D01*
X145533585Y-104813000D01*
X145533597Y-104812999D01*
X145594093Y-104806494D01*
X145730964Y-104755444D01*
X145730965Y-104755444D01*
X145847901Y-104667906D01*
X145849237Y-104666122D01*
X145851027Y-104664781D01*
X145854277Y-104661532D01*
X145854744Y-104661999D01*
X145906071Y-104623572D01*
X145976886Y-104618503D01*
X146022382Y-104638414D01*
X146028251Y-104642523D01*
X146235757Y-104739284D01*
X146456913Y-104798543D01*
X146685000Y-104818498D01*
X146913087Y-104798543D01*
X147134243Y-104739284D01*
X147341749Y-104642523D01*
X147529300Y-104511198D01*
X147691198Y-104349300D01*
X147822523Y-104161749D01*
X147919284Y-103954243D01*
X147978543Y-103733087D01*
X147998498Y-103505000D01*
X147978543Y-103276913D01*
X147919284Y-103055757D01*
X147822523Y-102848251D01*
X147691198Y-102660700D01*
X147529300Y-102498802D01*
X147341749Y-102367477D01*
X147287317Y-102342095D01*
X147134246Y-102270717D01*
X147134240Y-102270715D01*
X147000950Y-102235000D01*
X146913087Y-102211457D01*
X146685000Y-102191502D01*
X146456913Y-102211457D01*
X146235759Y-102270715D01*
X146235753Y-102270717D01*
X146028245Y-102367479D01*
X146028244Y-102367480D01*
X146022380Y-102371587D01*
X145955106Y-102394275D01*
X145886246Y-102376990D01*
X145854318Y-102348426D01*
X145854277Y-102348468D01*
X145853522Y-102347713D01*
X145849241Y-102343883D01*
X145847901Y-102342093D01*
X145730965Y-102254555D01*
X145594093Y-102203505D01*
X145533597Y-102197000D01*
X144939000Y-102197000D01*
X144939000Y-103193314D01*
X144923045Y-103177359D01*
X144810148Y-103119835D01*
X144716481Y-103105000D01*
X144653519Y-103105000D01*
X144559852Y-103119835D01*
X144446955Y-103177359D01*
X144431000Y-103193314D01*
X144431000Y-102197000D01*
X143836402Y-102197000D01*
X143775906Y-102203505D01*
X143639035Y-102254555D01*
X143639034Y-102254555D01*
X143522095Y-102342095D01*
X143434555Y-102459034D01*
X143434555Y-102459035D01*
X143383505Y-102595906D01*
X143377000Y-102656402D01*
X143377000Y-103251000D01*
X144373314Y-103251000D01*
X144357359Y-103266955D01*
X144299835Y-103379852D01*
X144280014Y-103505000D01*
X144299835Y-103630148D01*
X144357359Y-103743045D01*
X144373314Y-103759000D01*
X143377000Y-103759000D01*
X143377000Y-104353597D01*
X140200500Y-104353597D01*
X140200500Y-91977144D01*
X147102815Y-91977144D01*
X147112630Y-92208178D01*
X147161351Y-92434240D01*
X147247575Y-92648815D01*
X147247577Y-92648819D01*
X147309783Y-92749847D01*
X147368821Y-92845730D01*
X147521602Y-93019324D01*
X147549023Y-93041465D01*
X147589458Y-93099820D01*
X147591925Y-93170773D01*
X147555639Y-93231797D01*
X147536015Y-93246738D01*
X147391347Y-93335970D01*
X147391341Y-93335975D01*
X147265975Y-93461341D01*
X147265970Y-93461347D01*
X147172885Y-93612262D01*
X147117113Y-93780572D01*
X147117112Y-93780579D01*
X147106500Y-93884446D01*
X147106500Y-95185544D01*
X147117112Y-95289425D01*
X147172885Y-95457738D01*
X147265970Y-95608652D01*
X147265975Y-95608658D01*
X147391341Y-95734024D01*
X147391347Y-95734029D01*
X147391348Y-95734030D01*
X147542262Y-95827115D01*
X147710574Y-95882887D01*
X147814455Y-95893500D01*
X149365544Y-95893499D01*
X149469426Y-95882887D01*
X149637738Y-95827115D01*
X149788652Y-95734030D01*
X149914030Y-95608652D01*
X150007115Y-95457738D01*
X150062887Y-95289426D01*
X150063677Y-95281690D01*
X150090498Y-95215959D01*
X150148601Y-95175160D01*
X150189024Y-95168500D01*
X158435406Y-95168500D01*
X158503527Y-95188502D01*
X158524501Y-95205405D01*
X159669595Y-96350499D01*
X159703621Y-96412811D01*
X159706500Y-96439594D01*
X159706500Y-99615049D01*
X159686498Y-99683170D01*
X159669595Y-99704144D01*
X159665549Y-99708189D01*
X159665544Y-99708196D01*
X159580856Y-99851394D01*
X159534437Y-100011170D01*
X159534437Y-100011171D01*
X159531500Y-100048488D01*
X159531500Y-101205500D01*
X159511498Y-101273621D01*
X159457842Y-101320114D01*
X159405500Y-101331500D01*
X159173489Y-101331500D01*
X159136171Y-101334437D01*
X159136170Y-101334437D01*
X158976394Y-101380856D01*
X158833196Y-101465544D01*
X158833189Y-101465549D01*
X158715549Y-101583189D01*
X158715544Y-101583196D01*
X158630856Y-101726394D01*
X158584437Y-101886170D01*
X158584437Y-101886171D01*
X158581500Y-101923488D01*
X158581500Y-103231511D01*
X158584437Y-103268828D01*
X158584437Y-103268829D01*
X158630856Y-103428605D01*
X158715544Y-103571803D01*
X158720405Y-103578070D01*
X158719089Y-103579090D01*
X158748618Y-103633154D01*
X158751500Y-103659950D01*
X158751500Y-104691146D01*
X158749751Y-104706988D01*
X158750044Y-104707016D01*
X158749298Y-104714907D01*
X158751438Y-104782984D01*
X158751500Y-104786943D01*
X158751500Y-104814851D01*
X158751501Y-104814869D01*
X158752007Y-104818877D01*
X158752937Y-104830696D01*
X158754326Y-104874888D01*
X158754327Y-104874893D01*
X158759977Y-104894339D01*
X158763986Y-104913697D01*
X158766525Y-104933793D01*
X158766526Y-104933800D01*
X158782800Y-104974903D01*
X158786644Y-104986129D01*
X158798982Y-105028593D01*
X158809294Y-105046031D01*
X158817988Y-105063779D01*
X158825444Y-105082609D01*
X158825450Y-105082620D01*
X158851432Y-105118381D01*
X158857949Y-105128301D01*
X158880458Y-105166362D01*
X158880459Y-105166363D01*
X158880461Y-105166366D01*
X158894779Y-105180684D01*
X158907617Y-105195714D01*
X158919526Y-105212104D01*
X158919530Y-105212109D01*
X158953598Y-105240292D01*
X158962378Y-105248282D01*
X163236505Y-109522409D01*
X163249341Y-109537436D01*
X163258427Y-109549942D01*
X163261255Y-109553834D01*
X163261256Y-109553835D01*
X163295324Y-109582018D01*
X163304104Y-109590008D01*
X166497753Y-112783657D01*
X166507720Y-112796097D01*
X166507947Y-112795910D01*
X166512999Y-112802017D01*
X166513000Y-112802018D01*
X166548219Y-112835091D01*
X166562666Y-112848657D01*
X166565510Y-112851414D01*
X166585226Y-112871131D01*
X166588423Y-112873611D01*
X166597444Y-112881316D01*
X166629679Y-112911586D01*
X166629680Y-112911586D01*
X166629682Y-112911588D01*
X166647429Y-112921344D01*
X166663959Y-112932202D01*
X166679959Y-112944613D01*
X166720536Y-112962172D01*
X166731187Y-112967390D01*
X166769940Y-112988695D01*
X166789562Y-112993733D01*
X166808263Y-113000135D01*
X166826855Y-113008181D01*
X166870522Y-113015096D01*
X166882125Y-113017498D01*
X166924970Y-113028500D01*
X166945231Y-113028500D01*
X166964939Y-113030050D01*
X166984943Y-113033219D01*
X167028954Y-113029058D01*
X167040811Y-113028500D01*
X169965257Y-113028500D01*
X170033378Y-113048502D01*
X170073085Y-113089315D01*
X170085679Y-113110148D01*
X170085689Y-113110161D01*
X170207339Y-113231811D01*
X170207344Y-113231815D01*
X170207345Y-113231816D01*
X170354587Y-113320827D01*
X170518851Y-113372013D01*
X170590235Y-113378500D01*
X171104764Y-113378499D01*
X171176149Y-113372013D01*
X171340413Y-113320827D01*
X171487655Y-113231816D01*
X171533354Y-113186117D01*
X171583405Y-113136067D01*
X171645717Y-113102041D01*
X171716532Y-113107106D01*
X171761595Y-113136067D01*
X171857339Y-113231811D01*
X171857344Y-113231815D01*
X171857345Y-113231816D01*
X172004587Y-113320827D01*
X172168851Y-113372013D01*
X172240235Y-113378500D01*
X172754764Y-113378499D01*
X172826149Y-113372013D01*
X172990413Y-113320827D01*
X173137655Y-113231816D01*
X173259316Y-113110155D01*
X173264221Y-113102041D01*
X173271915Y-113089315D01*
X173324274Y-113041367D01*
X173379743Y-113028500D01*
X173504300Y-113028500D01*
X173572421Y-113048502D01*
X173597937Y-113070190D01*
X173601247Y-113073866D01*
X173755748Y-113186118D01*
X173930212Y-113263794D01*
X174117013Y-113303500D01*
X174307987Y-113303500D01*
X174494788Y-113263794D01*
X174669252Y-113186118D01*
X174823753Y-113073866D01*
X174863204Y-113030051D01*
X174951534Y-112931951D01*
X174951535Y-112931949D01*
X174951540Y-112931944D01*
X175047027Y-112766556D01*
X175106042Y-112584928D01*
X175126004Y-112395000D01*
X175106042Y-112205072D01*
X175047027Y-112023444D01*
X174951540Y-111858056D01*
X174951538Y-111858054D01*
X174951534Y-111858048D01*
X174823755Y-111716135D01*
X174669252Y-111603882D01*
X174494788Y-111526206D01*
X174307987Y-111486500D01*
X174117013Y-111486500D01*
X173930211Y-111526206D01*
X173755747Y-111603882D01*
X173601247Y-111716133D01*
X173597937Y-111719810D01*
X173537491Y-111757050D01*
X173504300Y-111761500D01*
X173379743Y-111761500D01*
X173311622Y-111741498D01*
X173271915Y-111700685D01*
X173259320Y-111679851D01*
X173259318Y-111679848D01*
X173259316Y-111679845D01*
X173259313Y-111679842D01*
X173259310Y-111679838D01*
X173137660Y-111558188D01*
X173137655Y-111558184D01*
X173013659Y-111483226D01*
X172990413Y-111469173D01*
X172990412Y-111469172D01*
X172990411Y-111469172D01*
X172990406Y-111469170D01*
X172826146Y-111417986D01*
X172774223Y-111413268D01*
X172754765Y-111411500D01*
X172754762Y-111411500D01*
X172240238Y-111411500D01*
X172168853Y-111417986D01*
X172168852Y-111417986D01*
X172004593Y-111469170D01*
X172004588Y-111469172D01*
X171857344Y-111558184D01*
X171857339Y-111558188D01*
X171761595Y-111653933D01*
X171699283Y-111687959D01*
X171628468Y-111682894D01*
X171583405Y-111653933D01*
X171487660Y-111558188D01*
X171487655Y-111558184D01*
X171363659Y-111483226D01*
X171340413Y-111469173D01*
X171340412Y-111469172D01*
X171340411Y-111469172D01*
X171340406Y-111469170D01*
X171176146Y-111417986D01*
X171124223Y-111413268D01*
X171104765Y-111411500D01*
X171104762Y-111411500D01*
X170590238Y-111411500D01*
X170518853Y-111417986D01*
X170518852Y-111417986D01*
X170354593Y-111469170D01*
X170354588Y-111469172D01*
X170207344Y-111558184D01*
X170207339Y-111558188D01*
X170085689Y-111679838D01*
X170085679Y-111679851D01*
X170073085Y-111700685D01*
X170020726Y-111748633D01*
X169965257Y-111761500D01*
X167319595Y-111761500D01*
X167251474Y-111741498D01*
X167230500Y-111724595D01*
X164397131Y-108891226D01*
X164363105Y-108828914D01*
X164360226Y-108802131D01*
X164360226Y-107915228D01*
X164380228Y-107847107D01*
X164397126Y-107826137D01*
X164604078Y-107619186D01*
X164649968Y-107564123D01*
X164729927Y-107411776D01*
X164771102Y-107244720D01*
X164771102Y-107072666D01*
X164745238Y-106967731D01*
X164729928Y-106905613D01*
X164729927Y-106905611D01*
X164729927Y-106905610D01*
X164677070Y-106804900D01*
X164649971Y-106753268D01*
X164649969Y-106753266D01*
X164649968Y-106753263D01*
X164604079Y-106698200D01*
X164240252Y-106334374D01*
X164240249Y-106334371D01*
X164185189Y-106288484D01*
X164185187Y-106288483D01*
X164032842Y-106208525D01*
X164032838Y-106208523D01*
X163865788Y-106167350D01*
X163865786Y-106167350D01*
X163730376Y-106167350D01*
X163662255Y-106147348D01*
X163615762Y-106093692D01*
X163604376Y-106041350D01*
X163604376Y-105905942D01*
X163604375Y-105905937D01*
X163563202Y-105738887D01*
X163563201Y-105738885D01*
X163563201Y-105738884D01*
X163510344Y-105638174D01*
X163483245Y-105586542D01*
X163483243Y-105586540D01*
X163483242Y-105586537D01*
X163437353Y-105531474D01*
X163073526Y-105167648D01*
X163073523Y-105167645D01*
X163018463Y-105121758D01*
X163018461Y-105121757D01*
X162866116Y-105041799D01*
X162866112Y-105041797D01*
X162699062Y-105000624D01*
X162699060Y-105000624D01*
X162527006Y-105000624D01*
X162527001Y-105000624D01*
X162503356Y-105006452D01*
X162432429Y-105003331D01*
X162384112Y-104973207D01*
X162237121Y-104826216D01*
X162203095Y-104763904D01*
X162200908Y-104750306D01*
X162183542Y-104585072D01*
X162124527Y-104403444D01*
X162029040Y-104238056D01*
X161955863Y-104156784D01*
X161925146Y-104092776D01*
X161923500Y-104072474D01*
X161923500Y-103664950D01*
X161943502Y-103596829D01*
X161960404Y-103575855D01*
X161964453Y-103571807D01*
X162049145Y-103428601D01*
X162095562Y-103268831D01*
X162098499Y-103231511D01*
X162098500Y-103231511D01*
X162098500Y-101923489D01*
X162098499Y-101923488D01*
X162095562Y-101886171D01*
X162095562Y-101886170D01*
X162088960Y-101863444D01*
X162049145Y-101726399D01*
X162049143Y-101726397D01*
X162049143Y-101726394D01*
X161964455Y-101583196D01*
X161964450Y-101583189D01*
X161846810Y-101465549D01*
X161846803Y-101465544D01*
X161703605Y-101380856D01*
X161543829Y-101334437D01*
X161506511Y-101331500D01*
X161506502Y-101331500D01*
X161274500Y-101331500D01*
X161206379Y-101311498D01*
X161159886Y-101257842D01*
X161148500Y-101205500D01*
X161148500Y-100048489D01*
X161148499Y-100048488D01*
X161145562Y-100011171D01*
X161145562Y-100011170D01*
X161135086Y-99975110D01*
X161099145Y-99851399D01*
X161099143Y-99851397D01*
X161099143Y-99851394D01*
X161014455Y-99708196D01*
X161014450Y-99708189D01*
X161010405Y-99704144D01*
X160976379Y-99641832D01*
X160973500Y-99615049D01*
X160973500Y-97349662D01*
X160993502Y-97281541D01*
X161047158Y-97235048D01*
X161117432Y-97224944D01*
X161182012Y-97254438D01*
X161188595Y-97260567D01*
X161284839Y-97356811D01*
X161284844Y-97356815D01*
X161284845Y-97356816D01*
X161432087Y-97445827D01*
X161596351Y-97497013D01*
X161667735Y-97503500D01*
X162182264Y-97503499D01*
X162253649Y-97497013D01*
X162417913Y-97445827D01*
X162565155Y-97356816D01*
X162572309Y-97349662D01*
X162660905Y-97261067D01*
X162723217Y-97227041D01*
X162794032Y-97232106D01*
X162839095Y-97261067D01*
X162934839Y-97356811D01*
X162934844Y-97356815D01*
X162934845Y-97356816D01*
X163082087Y-97445827D01*
X163107984Y-97453896D01*
X163167069Y-97493258D01*
X163195496Y-97558315D01*
X163196500Y-97574192D01*
X163196500Y-97722474D01*
X163176498Y-97790595D01*
X163164137Y-97806784D01*
X163090957Y-97888059D01*
X162995476Y-98053438D01*
X162995473Y-98053445D01*
X162936457Y-98235072D01*
X162916496Y-98425000D01*
X162936457Y-98614927D01*
X162966274Y-98706691D01*
X162995473Y-98796556D01*
X163023841Y-98845691D01*
X163090958Y-98961941D01*
X163090965Y-98961951D01*
X163218744Y-99103864D01*
X163241080Y-99120092D01*
X163373248Y-99216118D01*
X163547712Y-99293794D01*
X163734513Y-99333500D01*
X163925487Y-99333500D01*
X164112288Y-99293794D01*
X164286752Y-99216118D01*
X164441253Y-99103866D01*
X164447435Y-99097000D01*
X164569034Y-98961951D01*
X164569035Y-98961949D01*
X164569040Y-98961944D01*
X164664527Y-98796556D01*
X164723542Y-98614928D01*
X164743504Y-98425000D01*
X164723542Y-98235072D01*
X164664527Y-98053444D01*
X164569040Y-97888056D01*
X164495863Y-97806784D01*
X164465146Y-97742776D01*
X164463500Y-97722474D01*
X164463500Y-96986190D01*
X164469205Y-96948705D01*
X164477013Y-96923649D01*
X164483500Y-96852265D01*
X164483499Y-96187736D01*
X164477013Y-96116351D01*
X164425827Y-95952087D01*
X164336816Y-95804845D01*
X164336815Y-95804844D01*
X164336811Y-95804839D01*
X164215160Y-95683188D01*
X164215155Y-95683184D01*
X164163112Y-95651723D01*
X164067913Y-95594173D01*
X164067912Y-95594172D01*
X164067911Y-95594172D01*
X164067906Y-95594170D01*
X163903646Y-95542986D01*
X163851723Y-95538268D01*
X163832265Y-95536500D01*
X163832262Y-95536500D01*
X163317738Y-95536500D01*
X163246353Y-95542986D01*
X163246352Y-95542986D01*
X163082093Y-95594170D01*
X163082088Y-95594172D01*
X162934844Y-95683184D01*
X162934839Y-95683188D01*
X162839095Y-95778933D01*
X162776783Y-95812959D01*
X162705968Y-95807894D01*
X162660905Y-95778933D01*
X162565160Y-95683188D01*
X162565155Y-95683184D01*
X162513112Y-95651723D01*
X162417913Y-95594173D01*
X162417912Y-95594172D01*
X162417911Y-95594172D01*
X162417906Y-95594170D01*
X162253646Y-95542986D01*
X162201723Y-95538268D01*
X162182265Y-95536500D01*
X162182262Y-95536500D01*
X161667738Y-95536500D01*
X161596353Y-95542986D01*
X161596352Y-95542986D01*
X161432093Y-95594170D01*
X161432088Y-95594172D01*
X161284844Y-95683184D01*
X161284839Y-95683188D01*
X161163189Y-95804838D01*
X161163177Y-95804854D01*
X161153160Y-95821424D01*
X161100801Y-95869372D01*
X161030830Y-95881401D01*
X160965465Y-95853691D01*
X160956238Y-95845333D01*
X160830218Y-95719313D01*
X160817376Y-95704278D01*
X160805473Y-95687894D01*
X160805472Y-95687893D01*
X160771404Y-95659709D01*
X160762629Y-95651723D01*
X160757324Y-95646418D01*
X160757285Y-95646381D01*
X159257244Y-94146339D01*
X159247279Y-94133901D01*
X159247052Y-94134090D01*
X159242001Y-94127984D01*
X159242000Y-94127982D01*
X159192347Y-94081355D01*
X159189504Y-94078599D01*
X159169777Y-94058871D01*
X159169771Y-94058866D01*
X159166567Y-94056380D01*
X159157556Y-94048683D01*
X159125325Y-94018417D01*
X159125319Y-94018413D01*
X159107563Y-94008651D01*
X159091047Y-93997802D01*
X159075041Y-93985386D01*
X159034464Y-93967827D01*
X159023807Y-93962605D01*
X158985063Y-93941306D01*
X158985060Y-93941305D01*
X158965436Y-93936266D01*
X158946736Y-93929864D01*
X158928145Y-93921819D01*
X158928143Y-93921818D01*
X158928141Y-93921818D01*
X158884474Y-93914901D01*
X158872855Y-93912495D01*
X158830030Y-93901500D01*
X158809776Y-93901500D01*
X158790066Y-93899949D01*
X158770057Y-93896780D01*
X158726039Y-93900941D01*
X158714181Y-93901500D01*
X150189025Y-93901500D01*
X150120904Y-93881498D01*
X150074411Y-93827842D01*
X150063678Y-93788307D01*
X150062888Y-93780580D01*
X150062887Y-93780577D01*
X150062887Y-93780574D01*
X150007115Y-93612262D01*
X149914030Y-93461348D01*
X149914029Y-93461347D01*
X149914024Y-93461341D01*
X149788658Y-93335975D01*
X149788652Y-93335970D01*
X149642693Y-93245941D01*
X149595215Y-93193155D01*
X149583812Y-93123080D01*
X149612105Y-93057964D01*
X149621642Y-93047747D01*
X149738476Y-92935772D01*
X149875985Y-92749847D01*
X149882073Y-92737771D01*
X149930603Y-92685951D01*
X149994581Y-92668500D01*
X164150406Y-92668500D01*
X164218527Y-92688502D01*
X164239501Y-92705405D01*
X165384595Y-93850499D01*
X165418621Y-93912811D01*
X165421500Y-93939594D01*
X165421500Y-95801146D01*
X165419751Y-95816988D01*
X165420044Y-95817016D01*
X165419298Y-95824907D01*
X165421438Y-95892984D01*
X165421500Y-95896943D01*
X165421500Y-99615049D01*
X165401498Y-99683170D01*
X165384595Y-99704144D01*
X165380549Y-99708189D01*
X165380544Y-99708196D01*
X165295856Y-99851394D01*
X165249437Y-100011170D01*
X165249437Y-100011171D01*
X165246500Y-100048488D01*
X165246500Y-101205500D01*
X165226498Y-101273621D01*
X165172842Y-101320114D01*
X165120500Y-101331500D01*
X164888489Y-101331500D01*
X164851171Y-101334437D01*
X164851170Y-101334437D01*
X164691394Y-101380856D01*
X164548196Y-101465544D01*
X164548189Y-101465549D01*
X164430549Y-101583189D01*
X164430544Y-101583196D01*
X164345856Y-101726394D01*
X164299437Y-101886170D01*
X164299437Y-101886171D01*
X164296500Y-101923488D01*
X164296500Y-103231511D01*
X164299437Y-103268828D01*
X164299437Y-103268829D01*
X164345856Y-103428605D01*
X164430544Y-103571803D01*
X164435405Y-103578070D01*
X164434089Y-103579090D01*
X164463618Y-103633154D01*
X164466500Y-103659950D01*
X164466500Y-104691146D01*
X164464751Y-104706988D01*
X164465044Y-104707016D01*
X164464298Y-104714907D01*
X164466438Y-104782984D01*
X164466500Y-104786943D01*
X164466500Y-104814851D01*
X164466501Y-104814869D01*
X164467007Y-104818877D01*
X164467937Y-104830696D01*
X164469326Y-104874888D01*
X164469327Y-104874893D01*
X164474977Y-104894339D01*
X164478986Y-104913697D01*
X164481525Y-104933793D01*
X164481526Y-104933800D01*
X164497800Y-104974903D01*
X164501644Y-104986129D01*
X164513982Y-105028593D01*
X164524294Y-105046031D01*
X164532988Y-105063779D01*
X164540444Y-105082609D01*
X164540450Y-105082620D01*
X164566432Y-105118381D01*
X164572949Y-105128301D01*
X164595458Y-105166362D01*
X164595459Y-105166363D01*
X164595461Y-105166366D01*
X164609779Y-105180684D01*
X164622617Y-105195714D01*
X164634526Y-105212104D01*
X164634530Y-105212109D01*
X164668598Y-105240292D01*
X164677378Y-105248282D01*
X169003142Y-109574046D01*
X169015978Y-109589073D01*
X169023826Y-109599875D01*
X169027892Y-109605471D01*
X169027893Y-109605472D01*
X169061961Y-109633655D01*
X169070741Y-109641645D01*
X170307753Y-110878657D01*
X170317720Y-110891097D01*
X170317947Y-110890910D01*
X170322999Y-110897017D01*
X170372666Y-110943657D01*
X170375510Y-110946414D01*
X170395230Y-110966134D01*
X170398416Y-110968605D01*
X170407447Y-110976318D01*
X170439678Y-111006585D01*
X170439682Y-111006588D01*
X170457430Y-111016345D01*
X170473957Y-111027201D01*
X170489960Y-111039614D01*
X170530539Y-111057174D01*
X170541187Y-111062391D01*
X170579934Y-111083692D01*
X170579936Y-111083693D01*
X170579940Y-111083695D01*
X170599562Y-111088733D01*
X170618263Y-111095135D01*
X170627450Y-111099111D01*
X170636852Y-111103180D01*
X170636853Y-111103180D01*
X170636855Y-111103181D01*
X170680530Y-111110098D01*
X170692141Y-111112502D01*
X170734970Y-111123500D01*
X170755224Y-111123500D01*
X170774934Y-111125051D01*
X170777141Y-111125400D01*
X170794943Y-111128220D01*
X170838961Y-111124058D01*
X170850819Y-111123500D01*
X176315257Y-111123500D01*
X176383378Y-111143502D01*
X176423085Y-111184315D01*
X176435679Y-111205148D01*
X176435689Y-111205161D01*
X176557339Y-111326811D01*
X176557344Y-111326815D01*
X176557345Y-111326816D01*
X176704587Y-111415827D01*
X176704591Y-111415828D01*
X176704593Y-111415829D01*
X176733006Y-111424682D01*
X176868851Y-111467013D01*
X176940235Y-111473500D01*
X177454764Y-111473499D01*
X177526149Y-111467013D01*
X177690413Y-111415827D01*
X177837655Y-111326816D01*
X177883354Y-111281117D01*
X177933405Y-111231067D01*
X177995717Y-111197041D01*
X178066532Y-111202106D01*
X178111595Y-111231067D01*
X178207339Y-111326811D01*
X178207344Y-111326815D01*
X178207345Y-111326816D01*
X178354587Y-111415827D01*
X178354591Y-111415828D01*
X178354593Y-111415829D01*
X178383006Y-111424682D01*
X178518851Y-111467013D01*
X178590235Y-111473500D01*
X179104764Y-111473499D01*
X179176149Y-111467013D01*
X179340413Y-111415827D01*
X179487655Y-111326816D01*
X179609316Y-111205155D01*
X179614221Y-111197041D01*
X179621915Y-111184315D01*
X179674274Y-111136367D01*
X179729743Y-111123500D01*
X179854300Y-111123500D01*
X179922421Y-111143502D01*
X179947937Y-111165190D01*
X179951247Y-111168866D01*
X180105748Y-111281118D01*
X180280212Y-111358794D01*
X180467013Y-111398500D01*
X180657987Y-111398500D01*
X180844788Y-111358794D01*
X181019252Y-111281118D01*
X181173753Y-111168866D01*
X181177063Y-111165190D01*
X181301534Y-111026951D01*
X181301535Y-111026949D01*
X181301540Y-111026944D01*
X181397027Y-110861556D01*
X181456042Y-110679928D01*
X181476004Y-110490000D01*
X181456042Y-110300072D01*
X181397027Y-110118444D01*
X181301540Y-109953056D01*
X181301538Y-109953054D01*
X181301534Y-109953048D01*
X181173755Y-109811135D01*
X181019252Y-109698882D01*
X180844788Y-109621206D01*
X180657987Y-109581500D01*
X180467013Y-109581500D01*
X180280211Y-109621206D01*
X180105747Y-109698882D01*
X179951247Y-109811133D01*
X179947937Y-109814810D01*
X179887491Y-109852050D01*
X179854300Y-109856500D01*
X179729743Y-109856500D01*
X179661622Y-109836498D01*
X179621915Y-109795685D01*
X179609320Y-109774851D01*
X179609318Y-109774848D01*
X179609316Y-109774845D01*
X179609313Y-109774842D01*
X179609310Y-109774838D01*
X179487660Y-109653188D01*
X179487655Y-109653184D01*
X179385710Y-109591556D01*
X179340413Y-109564173D01*
X179340412Y-109564172D01*
X179340411Y-109564172D01*
X179340406Y-109564170D01*
X179176146Y-109512986D01*
X179124223Y-109508268D01*
X179104765Y-109506500D01*
X179104762Y-109506500D01*
X178590238Y-109506500D01*
X178518853Y-109512986D01*
X178518852Y-109512986D01*
X178354593Y-109564170D01*
X178354588Y-109564172D01*
X178207344Y-109653184D01*
X178207339Y-109653188D01*
X178111595Y-109748933D01*
X178049283Y-109782959D01*
X177978468Y-109777894D01*
X177933405Y-109748933D01*
X177837660Y-109653188D01*
X177837655Y-109653184D01*
X177735710Y-109591556D01*
X177690413Y-109564173D01*
X177690412Y-109564172D01*
X177690411Y-109564172D01*
X177690406Y-109564170D01*
X177526146Y-109512986D01*
X177474223Y-109508268D01*
X177454765Y-109506500D01*
X177454762Y-109506500D01*
X176940238Y-109506500D01*
X176868853Y-109512986D01*
X176868852Y-109512986D01*
X176704593Y-109564170D01*
X176704588Y-109564172D01*
X176557344Y-109653184D01*
X176557339Y-109653188D01*
X176435689Y-109774838D01*
X176435679Y-109774851D01*
X176423085Y-109795685D01*
X176370726Y-109843633D01*
X176315257Y-109856500D01*
X171129595Y-109856500D01*
X171061474Y-109836498D01*
X171040499Y-109819595D01*
X170163767Y-108942862D01*
X170129742Y-108880550D01*
X170126863Y-108853767D01*
X170126863Y-107966865D01*
X170146865Y-107898744D01*
X170163763Y-107877774D01*
X170370715Y-107670823D01*
X170416605Y-107615760D01*
X170496564Y-107463413D01*
X170537739Y-107296357D01*
X170537739Y-107124303D01*
X170507431Y-107001338D01*
X170496565Y-106957250D01*
X170496564Y-106957248D01*
X170496564Y-106957247D01*
X170421661Y-106814533D01*
X170416608Y-106804905D01*
X170416606Y-106804903D01*
X170416605Y-106804900D01*
X170394235Y-106778058D01*
X170370723Y-106749845D01*
X170370713Y-106749834D01*
X170006886Y-106386008D01*
X169951826Y-106340121D01*
X169951824Y-106340120D01*
X169858930Y-106291365D01*
X169799479Y-106260162D01*
X169799475Y-106260160D01*
X169632425Y-106218987D01*
X169632423Y-106218987D01*
X169497013Y-106218987D01*
X169428892Y-106198985D01*
X169382399Y-106145329D01*
X169371013Y-106092987D01*
X169371013Y-105957579D01*
X169371012Y-105957574D01*
X169329839Y-105790524D01*
X169329838Y-105790522D01*
X169329838Y-105790521D01*
X169273668Y-105683500D01*
X169249882Y-105638179D01*
X169249880Y-105638177D01*
X169249879Y-105638174D01*
X169249874Y-105638168D01*
X169203997Y-105583119D01*
X169203987Y-105583108D01*
X168840160Y-105219282D01*
X168785100Y-105173395D01*
X168785098Y-105173394D01*
X168771707Y-105166366D01*
X168632753Y-105093436D01*
X168632749Y-105093434D01*
X168465699Y-105052261D01*
X168465697Y-105052261D01*
X168293643Y-105052261D01*
X168293638Y-105052261D01*
X168269993Y-105058089D01*
X168199066Y-105054968D01*
X168150749Y-105024844D01*
X167952121Y-104826216D01*
X167918095Y-104763904D01*
X167915908Y-104750306D01*
X167898542Y-104585072D01*
X167839527Y-104403444D01*
X167744040Y-104238056D01*
X167670863Y-104156784D01*
X167640146Y-104092776D01*
X167638500Y-104072474D01*
X167638500Y-103664950D01*
X167658502Y-103596829D01*
X167675404Y-103575855D01*
X167679453Y-103571807D01*
X167764145Y-103428601D01*
X167810562Y-103268831D01*
X167813499Y-103231511D01*
X167813500Y-103231511D01*
X167813500Y-101923489D01*
X167813499Y-101923488D01*
X167810562Y-101886171D01*
X167810562Y-101886170D01*
X167803960Y-101863444D01*
X167764145Y-101726399D01*
X167764143Y-101726397D01*
X167764143Y-101726394D01*
X167679455Y-101583196D01*
X167679450Y-101583189D01*
X167561810Y-101465549D01*
X167561803Y-101465544D01*
X167418605Y-101380856D01*
X167258829Y-101334437D01*
X167221511Y-101331500D01*
X167221502Y-101331500D01*
X166989500Y-101331500D01*
X166921379Y-101311498D01*
X166874886Y-101257842D01*
X166863500Y-101205500D01*
X166863500Y-100048489D01*
X166863499Y-100048488D01*
X166860562Y-100011171D01*
X166860562Y-100011170D01*
X166850086Y-99975110D01*
X166814145Y-99851399D01*
X166814143Y-99851397D01*
X166814143Y-99851394D01*
X166729455Y-99708196D01*
X166729450Y-99708189D01*
X166725405Y-99704144D01*
X166691379Y-99641832D01*
X166688500Y-99615049D01*
X166688500Y-97506863D01*
X166708502Y-97438742D01*
X166762158Y-97392249D01*
X166832432Y-97382145D01*
X166879681Y-97399033D01*
X166957087Y-97445827D01*
X167121351Y-97497013D01*
X167192735Y-97503500D01*
X167707264Y-97503499D01*
X167778649Y-97497013D01*
X167942913Y-97445827D01*
X168090155Y-97356816D01*
X168097309Y-97349662D01*
X168185905Y-97261067D01*
X168248217Y-97227041D01*
X168319032Y-97232106D01*
X168364095Y-97261067D01*
X168459839Y-97356811D01*
X168459844Y-97356815D01*
X168459845Y-97356816D01*
X168607087Y-97445827D01*
X168771351Y-97497013D01*
X168790529Y-97498755D01*
X168796902Y-97499335D01*
X168862933Y-97525419D01*
X168904380Y-97583062D01*
X168911500Y-97624818D01*
X168911500Y-97722474D01*
X168891498Y-97790595D01*
X168879137Y-97806784D01*
X168805957Y-97888059D01*
X168710476Y-98053438D01*
X168710473Y-98053445D01*
X168651457Y-98235072D01*
X168631496Y-98425000D01*
X168651457Y-98614927D01*
X168681274Y-98706691D01*
X168710473Y-98796556D01*
X168738841Y-98845691D01*
X168805958Y-98961941D01*
X168805965Y-98961951D01*
X168933744Y-99103864D01*
X168956080Y-99120092D01*
X169088248Y-99216118D01*
X169262712Y-99293794D01*
X169449513Y-99333500D01*
X169640487Y-99333500D01*
X169827288Y-99293794D01*
X170001752Y-99216118D01*
X170156253Y-99103866D01*
X170162435Y-99097000D01*
X170284034Y-98961951D01*
X170284035Y-98961949D01*
X170284040Y-98961944D01*
X170379527Y-98796556D01*
X170438542Y-98614928D01*
X170458504Y-98425000D01*
X170438542Y-98235072D01*
X170379527Y-98053444D01*
X170284040Y-97888056D01*
X170210863Y-97806784D01*
X170180146Y-97742776D01*
X170178500Y-97722474D01*
X170178500Y-97048855D01*
X170180249Y-97033014D01*
X170179956Y-97032987D01*
X170180701Y-97025094D01*
X170180702Y-97025091D01*
X170178562Y-96957014D01*
X170178500Y-96953055D01*
X170178500Y-96925149D01*
X170178500Y-96925144D01*
X170177992Y-96921130D01*
X170177061Y-96909297D01*
X170175673Y-96865111D01*
X170170022Y-96845664D01*
X170166012Y-96826300D01*
X170163474Y-96806203D01*
X170147193Y-96765084D01*
X170143355Y-96753873D01*
X170131018Y-96711407D01*
X170120706Y-96693970D01*
X170112010Y-96676221D01*
X170104552Y-96657383D01*
X170078552Y-96621598D01*
X170072059Y-96611714D01*
X170049542Y-96573638D01*
X170049540Y-96573636D01*
X170049539Y-96573634D01*
X170045404Y-96569499D01*
X170011378Y-96507187D01*
X170008499Y-96480404D01*
X170008499Y-96187738D01*
X170002013Y-96116353D01*
X170002013Y-96116352D01*
X169950829Y-95952093D01*
X169950827Y-95952088D01*
X169950827Y-95952087D01*
X169861816Y-95804845D01*
X169861815Y-95804844D01*
X169861811Y-95804839D01*
X169740160Y-95683188D01*
X169740155Y-95683184D01*
X169688112Y-95651723D01*
X169592913Y-95594173D01*
X169592912Y-95594172D01*
X169592911Y-95594172D01*
X169592906Y-95594170D01*
X169428646Y-95542986D01*
X169376723Y-95538268D01*
X169357265Y-95536500D01*
X169357262Y-95536500D01*
X168842738Y-95536500D01*
X168771353Y-95542986D01*
X168771352Y-95542986D01*
X168607093Y-95594170D01*
X168607088Y-95594172D01*
X168459844Y-95683184D01*
X168459839Y-95683188D01*
X168364095Y-95778933D01*
X168301783Y-95812959D01*
X168230968Y-95807894D01*
X168185905Y-95778933D01*
X168090160Y-95683188D01*
X168090155Y-95683184D01*
X168038112Y-95651723D01*
X167942913Y-95594173D01*
X167942912Y-95594172D01*
X167942911Y-95594172D01*
X167942906Y-95594170D01*
X167778646Y-95542986D01*
X167726723Y-95538268D01*
X167707265Y-95536500D01*
X167707262Y-95536500D01*
X167192738Y-95536500D01*
X167121353Y-95542986D01*
X167121352Y-95542986D01*
X166957093Y-95594170D01*
X166957086Y-95594173D01*
X166879683Y-95640964D01*
X166811039Y-95659087D01*
X166743493Y-95637222D01*
X166698492Y-95582309D01*
X166688500Y-95533135D01*
X166688500Y-93708854D01*
X166690249Y-93693012D01*
X166689956Y-93692985D01*
X166690700Y-93685099D01*
X166690702Y-93685092D01*
X166688562Y-93617000D01*
X166688500Y-93613042D01*
X166688500Y-93585150D01*
X166688500Y-93585144D01*
X166687993Y-93581135D01*
X166687062Y-93569306D01*
X166685674Y-93525111D01*
X166680020Y-93505652D01*
X166676012Y-93486297D01*
X166673474Y-93466203D01*
X166657195Y-93425087D01*
X166653356Y-93413872D01*
X166641019Y-93371407D01*
X166630703Y-93353964D01*
X166622005Y-93336209D01*
X166614552Y-93317383D01*
X166588563Y-93281612D01*
X166582052Y-93271700D01*
X166559542Y-93233638D01*
X166545214Y-93219310D01*
X166532384Y-93204289D01*
X166520472Y-93187893D01*
X166520469Y-93187891D01*
X166520469Y-93187890D01*
X166486394Y-93159700D01*
X166477616Y-93151712D01*
X164972244Y-91646339D01*
X164962279Y-91633901D01*
X164962052Y-91634090D01*
X164957001Y-91627984D01*
X164957000Y-91627982D01*
X164907347Y-91581355D01*
X164904504Y-91578599D01*
X164884777Y-91558871D01*
X164884771Y-91558866D01*
X164881567Y-91556380D01*
X164872556Y-91548683D01*
X164840325Y-91518417D01*
X164840319Y-91518413D01*
X164822563Y-91508651D01*
X164806047Y-91497802D01*
X164790041Y-91485386D01*
X164749464Y-91467827D01*
X164738807Y-91462605D01*
X164700063Y-91441306D01*
X164700060Y-91441305D01*
X164680436Y-91436266D01*
X164661736Y-91429864D01*
X164643145Y-91421819D01*
X164643143Y-91421818D01*
X164643141Y-91421818D01*
X164599474Y-91414901D01*
X164587855Y-91412495D01*
X164545030Y-91401500D01*
X164524776Y-91401500D01*
X164505066Y-91399949D01*
X164485057Y-91396780D01*
X164441039Y-91400941D01*
X164429181Y-91401500D01*
X149990692Y-91401500D01*
X149922571Y-91381498D01*
X149883400Y-91341563D01*
X149811180Y-91224272D01*
X149811179Y-91224270D01*
X149658398Y-91050676D01*
X149478476Y-90905400D01*
X149457264Y-90893550D01*
X149407552Y-90842869D01*
X149393131Y-90773352D01*
X149418582Y-90707074D01*
X149448161Y-90679161D01*
X149571523Y-90595783D01*
X149738476Y-90435772D01*
X149875985Y-90249847D01*
X149882073Y-90237771D01*
X149930603Y-90185951D01*
X149994581Y-90168500D01*
X169865406Y-90168500D01*
X169933527Y-90188502D01*
X169954501Y-90205405D01*
X171099595Y-91350499D01*
X171133621Y-91412811D01*
X171136500Y-91439594D01*
X171136500Y-95801146D01*
X171134751Y-95816988D01*
X171135044Y-95817016D01*
X171134298Y-95824907D01*
X171136438Y-95892984D01*
X171136500Y-95896943D01*
X171136500Y-99615049D01*
X171116498Y-99683170D01*
X171099595Y-99704144D01*
X171095549Y-99708189D01*
X171095544Y-99708196D01*
X171010856Y-99851394D01*
X170964437Y-100011170D01*
X170964437Y-100011171D01*
X170961500Y-100048488D01*
X170961500Y-101205500D01*
X170941498Y-101273621D01*
X170887842Y-101320114D01*
X170835500Y-101331500D01*
X170603489Y-101331500D01*
X170566171Y-101334437D01*
X170566170Y-101334437D01*
X170406394Y-101380856D01*
X170263196Y-101465544D01*
X170263189Y-101465549D01*
X170145549Y-101583189D01*
X170145544Y-101583196D01*
X170060856Y-101726394D01*
X170014437Y-101886170D01*
X170014437Y-101886171D01*
X170011500Y-101923488D01*
X170011500Y-103231511D01*
X170014437Y-103268828D01*
X170014437Y-103268829D01*
X170060856Y-103428605D01*
X170145544Y-103571803D01*
X170145545Y-103571804D01*
X170145547Y-103571807D01*
X170149592Y-103575852D01*
X170183619Y-103638160D01*
X170186500Y-103664950D01*
X170186500Y-104696146D01*
X170184751Y-104711988D01*
X170185044Y-104712016D01*
X170184298Y-104719907D01*
X170186438Y-104787984D01*
X170186500Y-104791943D01*
X170186500Y-104819851D01*
X170186501Y-104819869D01*
X170187007Y-104823877D01*
X170187937Y-104835696D01*
X170189326Y-104879888D01*
X170189327Y-104879893D01*
X170194977Y-104899339D01*
X170198986Y-104918697D01*
X170201525Y-104938793D01*
X170201526Y-104938800D01*
X170217800Y-104979903D01*
X170221644Y-104991129D01*
X170233982Y-105033593D01*
X170244294Y-105051031D01*
X170252988Y-105068779D01*
X170260444Y-105087609D01*
X170260450Y-105087620D01*
X170286432Y-105123381D01*
X170292949Y-105133301D01*
X170315458Y-105171362D01*
X170315459Y-105171363D01*
X170315461Y-105171366D01*
X170329779Y-105185684D01*
X170342617Y-105200714D01*
X170354526Y-105217104D01*
X170354530Y-105217109D01*
X170388598Y-105245292D01*
X170397378Y-105253282D01*
X171577753Y-106433657D01*
X171587720Y-106446097D01*
X171587947Y-106445910D01*
X171592999Y-106452017D01*
X171642666Y-106498657D01*
X171645510Y-106501414D01*
X171665226Y-106521131D01*
X171668423Y-106523611D01*
X171677444Y-106531316D01*
X171709679Y-106561586D01*
X171709680Y-106561586D01*
X171709682Y-106561588D01*
X171727429Y-106571344D01*
X171743959Y-106582202D01*
X171759959Y-106594613D01*
X171800536Y-106612172D01*
X171811187Y-106617390D01*
X171849940Y-106638695D01*
X171869562Y-106643733D01*
X171888263Y-106650135D01*
X171900814Y-106655567D01*
X171906852Y-106658180D01*
X171906853Y-106658180D01*
X171906855Y-106658181D01*
X171950530Y-106665098D01*
X171962141Y-106667502D01*
X172004970Y-106678500D01*
X172025224Y-106678500D01*
X172044934Y-106680051D01*
X172047141Y-106680400D01*
X172064943Y-106683220D01*
X172108961Y-106679058D01*
X172120819Y-106678500D01*
X173271147Y-106678500D01*
X173286988Y-106680249D01*
X173287016Y-106679956D01*
X173294902Y-106680700D01*
X173294909Y-106680702D01*
X173362986Y-106678562D01*
X173366945Y-106678500D01*
X174822757Y-106678500D01*
X174890878Y-106698502D01*
X174930585Y-106739315D01*
X174943179Y-106760148D01*
X174943189Y-106760161D01*
X175064839Y-106881811D01*
X175064844Y-106881815D01*
X175064845Y-106881816D01*
X175212087Y-106970827D01*
X175212091Y-106970828D01*
X175212093Y-106970829D01*
X175218406Y-106972796D01*
X175376351Y-107022013D01*
X175447735Y-107028500D01*
X175962264Y-107028499D01*
X176033649Y-107022013D01*
X176197913Y-106970827D01*
X176345155Y-106881816D01*
X176390854Y-106836117D01*
X176440905Y-106786067D01*
X176503217Y-106752041D01*
X176574032Y-106757106D01*
X176619095Y-106786067D01*
X176714839Y-106881811D01*
X176714844Y-106881815D01*
X176714845Y-106881816D01*
X176862087Y-106970827D01*
X176862091Y-106970828D01*
X176862093Y-106970829D01*
X176868406Y-106972796D01*
X177026351Y-107022013D01*
X177097735Y-107028500D01*
X177612264Y-107028499D01*
X177683649Y-107022013D01*
X177847913Y-106970827D01*
X177995155Y-106881816D01*
X178116816Y-106760155D01*
X178123049Y-106749845D01*
X178129415Y-106739315D01*
X178181774Y-106691367D01*
X178237243Y-106678500D01*
X178361800Y-106678500D01*
X178429921Y-106698502D01*
X178455437Y-106720190D01*
X178458747Y-106723866D01*
X178613248Y-106836118D01*
X178787712Y-106913794D01*
X178974513Y-106953500D01*
X179165487Y-106953500D01*
X179352288Y-106913794D01*
X179526752Y-106836118D01*
X179681253Y-106723866D01*
X179704363Y-106698200D01*
X179809034Y-106581951D01*
X179809035Y-106581949D01*
X179809040Y-106581944D01*
X179904527Y-106416556D01*
X179963542Y-106234928D01*
X179983504Y-106045000D01*
X179963542Y-105855072D01*
X179904527Y-105673444D01*
X179809040Y-105508056D01*
X179809038Y-105508054D01*
X179809034Y-105508048D01*
X179681255Y-105366135D01*
X179526752Y-105253882D01*
X179396746Y-105196000D01*
X185682000Y-105196000D01*
X186436000Y-105196000D01*
X186436000Y-103692000D01*
X186141402Y-103692000D01*
X186080906Y-103698505D01*
X185944035Y-103749555D01*
X185944034Y-103749555D01*
X185827095Y-103837095D01*
X185739555Y-103954034D01*
X185739555Y-103954035D01*
X185688505Y-104090906D01*
X185682000Y-104151402D01*
X185682000Y-105196000D01*
X179396746Y-105196000D01*
X179352288Y-105176206D01*
X179165487Y-105136500D01*
X178974513Y-105136500D01*
X178787711Y-105176206D01*
X178613247Y-105253882D01*
X178458747Y-105366133D01*
X178455437Y-105369810D01*
X178394991Y-105407050D01*
X178361800Y-105411500D01*
X178237243Y-105411500D01*
X178169122Y-105391498D01*
X178129415Y-105350685D01*
X178116820Y-105329851D01*
X178116818Y-105329848D01*
X178116816Y-105329845D01*
X178116813Y-105329842D01*
X178116810Y-105329838D01*
X177995160Y-105208188D01*
X177995155Y-105208184D01*
X177937605Y-105173394D01*
X177847913Y-105119173D01*
X177847912Y-105119172D01*
X177847911Y-105119172D01*
X177847906Y-105119170D01*
X177683646Y-105067986D01*
X177631723Y-105063268D01*
X177612265Y-105061500D01*
X177612262Y-105061500D01*
X177097738Y-105061500D01*
X177026353Y-105067986D01*
X177026352Y-105067986D01*
X176862093Y-105119170D01*
X176862088Y-105119172D01*
X176714844Y-105208184D01*
X176714839Y-105208188D01*
X176619095Y-105303933D01*
X176556783Y-105337959D01*
X176485968Y-105332894D01*
X176440905Y-105303933D01*
X176345160Y-105208188D01*
X176345155Y-105208184D01*
X176287605Y-105173394D01*
X176197913Y-105119173D01*
X176197912Y-105119172D01*
X176197911Y-105119172D01*
X176197906Y-105119170D01*
X176033646Y-105067986D01*
X175981723Y-105063268D01*
X175962265Y-105061500D01*
X175962262Y-105061500D01*
X175538592Y-105061500D01*
X175470471Y-105041498D01*
X175423978Y-104987842D01*
X175413874Y-104917568D01*
X175443368Y-104852988D01*
X175449465Y-104846437D01*
X176120501Y-104175402D01*
X176182811Y-104141379D01*
X176209594Y-104138500D01*
X177362757Y-104138500D01*
X177430878Y-104158502D01*
X177470585Y-104199315D01*
X177483179Y-104220148D01*
X177483189Y-104220161D01*
X177604839Y-104341811D01*
X177604844Y-104341815D01*
X177604845Y-104341816D01*
X177752087Y-104430827D01*
X177916351Y-104482013D01*
X177987735Y-104488500D01*
X178502264Y-104488499D01*
X178573649Y-104482013D01*
X178737913Y-104430827D01*
X178885155Y-104341816D01*
X178930854Y-104296117D01*
X178980905Y-104246067D01*
X179043217Y-104212041D01*
X179114032Y-104217106D01*
X179159095Y-104246067D01*
X179254839Y-104341811D01*
X179254844Y-104341815D01*
X179254845Y-104341816D01*
X179402087Y-104430827D01*
X179566351Y-104482013D01*
X179637735Y-104488500D01*
X180152264Y-104488499D01*
X180223649Y-104482013D01*
X180387913Y-104430827D01*
X180535155Y-104341816D01*
X180656816Y-104220155D01*
X180661721Y-104212041D01*
X180669415Y-104199315D01*
X180721774Y-104151367D01*
X180777243Y-104138500D01*
X180901800Y-104138500D01*
X180969921Y-104158502D01*
X180995437Y-104180190D01*
X180998747Y-104183866D01*
X181153248Y-104296118D01*
X181327712Y-104373794D01*
X181514513Y-104413500D01*
X181705487Y-104413500D01*
X181892288Y-104373794D01*
X182066752Y-104296118D01*
X182221253Y-104183866D01*
X182250520Y-104151362D01*
X182349034Y-104041951D01*
X182349035Y-104041949D01*
X182349040Y-104041944D01*
X182444527Y-103876556D01*
X182503542Y-103694928D01*
X182523504Y-103505000D01*
X182503542Y-103315072D01*
X182444527Y-103133444D01*
X182349040Y-102968056D01*
X182349038Y-102968054D01*
X182349034Y-102968048D01*
X182221255Y-102826135D01*
X182066752Y-102713882D01*
X181892288Y-102636206D01*
X181705487Y-102596500D01*
X181514513Y-102596500D01*
X181327711Y-102636206D01*
X181153247Y-102713882D01*
X180998747Y-102826133D01*
X180995437Y-102829810D01*
X180934991Y-102867050D01*
X180901800Y-102871500D01*
X180777243Y-102871500D01*
X180709122Y-102851498D01*
X180669415Y-102810685D01*
X180656820Y-102789851D01*
X180656818Y-102789848D01*
X180656816Y-102789845D01*
X180656813Y-102789842D01*
X180656810Y-102789838D01*
X180535160Y-102668188D01*
X180535155Y-102668184D01*
X180433210Y-102606556D01*
X180387913Y-102579173D01*
X180387912Y-102579172D01*
X180387911Y-102579172D01*
X180387906Y-102579170D01*
X180223646Y-102527986D01*
X180171723Y-102523268D01*
X180152265Y-102521500D01*
X180152262Y-102521500D01*
X179637738Y-102521500D01*
X179566353Y-102527986D01*
X179566352Y-102527986D01*
X179402093Y-102579170D01*
X179402088Y-102579172D01*
X179254844Y-102668184D01*
X179254839Y-102668188D01*
X179159095Y-102763933D01*
X179096783Y-102797959D01*
X179025968Y-102792894D01*
X178980905Y-102763933D01*
X178885160Y-102668188D01*
X178885155Y-102668184D01*
X178783210Y-102606556D01*
X178737913Y-102579173D01*
X178737912Y-102579172D01*
X178737911Y-102579172D01*
X178737906Y-102579170D01*
X178573646Y-102527986D01*
X178521723Y-102523268D01*
X178502265Y-102521500D01*
X178502262Y-102521500D01*
X177987738Y-102521500D01*
X177916353Y-102527986D01*
X177916352Y-102527986D01*
X177752093Y-102579170D01*
X177752088Y-102579172D01*
X177604844Y-102668184D01*
X177604839Y-102668188D01*
X177483189Y-102789838D01*
X177483179Y-102789851D01*
X177470585Y-102810685D01*
X177418226Y-102858633D01*
X177362757Y-102871500D01*
X175978849Y-102871500D01*
X175963010Y-102869751D01*
X175962983Y-102870045D01*
X175955091Y-102869299D01*
X175887033Y-102871438D01*
X175883075Y-102871500D01*
X175855144Y-102871500D01*
X175852957Y-102871776D01*
X175851111Y-102872009D01*
X175839304Y-102872937D01*
X175795110Y-102874326D01*
X175795105Y-102874327D01*
X175775660Y-102879977D01*
X175756302Y-102883986D01*
X175736207Y-102886524D01*
X175736205Y-102886525D01*
X175695083Y-102902805D01*
X175683859Y-102906647D01*
X175641410Y-102918980D01*
X175641404Y-102918982D01*
X175623966Y-102929295D01*
X175606220Y-102937989D01*
X175587381Y-102945448D01*
X175551614Y-102971434D01*
X175541698Y-102977948D01*
X175503636Y-103000458D01*
X175489307Y-103014787D01*
X175474281Y-103027620D01*
X175457895Y-103039525D01*
X175429711Y-103073593D01*
X175421723Y-103082370D01*
X173829388Y-104674705D01*
X173767076Y-104708731D01*
X173696261Y-104703666D01*
X173639425Y-104661119D01*
X173614983Y-104598780D01*
X173613542Y-104585072D01*
X173602460Y-104550965D01*
X173554527Y-104403444D01*
X173459040Y-104238056D01*
X173385863Y-104156784D01*
X173355146Y-104092776D01*
X173353500Y-104072474D01*
X173353500Y-103664950D01*
X173373502Y-103596829D01*
X173390404Y-103575855D01*
X173394453Y-103571807D01*
X173479145Y-103428601D01*
X173525562Y-103268831D01*
X173528499Y-103231511D01*
X173528500Y-103231511D01*
X173528500Y-101923489D01*
X173528499Y-101923488D01*
X173525562Y-101886171D01*
X173525562Y-101886170D01*
X173518960Y-101863444D01*
X173479145Y-101726399D01*
X173479143Y-101726397D01*
X173479143Y-101726394D01*
X173394455Y-101583196D01*
X173394450Y-101583189D01*
X173276810Y-101465549D01*
X173276803Y-101465544D01*
X173133605Y-101380856D01*
X172973829Y-101334437D01*
X172936511Y-101331500D01*
X172936502Y-101331500D01*
X172704500Y-101331500D01*
X172636379Y-101311498D01*
X172589886Y-101257842D01*
X172578500Y-101205500D01*
X172578500Y-100048489D01*
X172578499Y-100048488D01*
X172575562Y-100011171D01*
X172575562Y-100011170D01*
X172565086Y-99975110D01*
X172529145Y-99851399D01*
X172529143Y-99851397D01*
X172529143Y-99851394D01*
X172444455Y-99708196D01*
X172444450Y-99708189D01*
X172440405Y-99704144D01*
X172406379Y-99641832D01*
X172403500Y-99615049D01*
X172403500Y-97506863D01*
X172423502Y-97438742D01*
X172477158Y-97392249D01*
X172547432Y-97382145D01*
X172594681Y-97399033D01*
X172672087Y-97445827D01*
X172836351Y-97497013D01*
X172907735Y-97503500D01*
X173422264Y-97503499D01*
X173493649Y-97497013D01*
X173657913Y-97445827D01*
X173805155Y-97356816D01*
X173812309Y-97349662D01*
X173900905Y-97261067D01*
X173963217Y-97227041D01*
X174034032Y-97232106D01*
X174079095Y-97261067D01*
X174174839Y-97356811D01*
X174174844Y-97356815D01*
X174174845Y-97356816D01*
X174322087Y-97445827D01*
X174486351Y-97497013D01*
X174505529Y-97498755D01*
X174511902Y-97499335D01*
X174577933Y-97525419D01*
X174619380Y-97583062D01*
X174626500Y-97624818D01*
X174626500Y-97722474D01*
X174606498Y-97790595D01*
X174594137Y-97806784D01*
X174520957Y-97888059D01*
X174425476Y-98053438D01*
X174425473Y-98053445D01*
X174366457Y-98235072D01*
X174346496Y-98425000D01*
X174366457Y-98614927D01*
X174396274Y-98706691D01*
X174425473Y-98796556D01*
X174453841Y-98845691D01*
X174520958Y-98961941D01*
X174520965Y-98961951D01*
X174648744Y-99103864D01*
X174671080Y-99120092D01*
X174803248Y-99216118D01*
X174977712Y-99293794D01*
X175164513Y-99333500D01*
X175355487Y-99333500D01*
X175542288Y-99293794D01*
X175716752Y-99216118D01*
X175871253Y-99103866D01*
X175877435Y-99097000D01*
X175999034Y-98961951D01*
X175999035Y-98961949D01*
X175999040Y-98961944D01*
X176094527Y-98796556D01*
X176153542Y-98614928D01*
X176173504Y-98425000D01*
X183871496Y-98425000D01*
X183891457Y-98614927D01*
X183921274Y-98706691D01*
X183950473Y-98796556D01*
X183978841Y-98845691D01*
X184045958Y-98961941D01*
X184045965Y-98961951D01*
X184173744Y-99103864D01*
X184196080Y-99120092D01*
X184328248Y-99216118D01*
X184466993Y-99277891D01*
X184521087Y-99323870D01*
X184541737Y-99391797D01*
X184522985Y-99459143D01*
X184477884Y-99532263D01*
X184422113Y-99700572D01*
X184422112Y-99700579D01*
X184411500Y-99804446D01*
X184411500Y-100855544D01*
X184422112Y-100959425D01*
X184477885Y-101127738D01*
X184570970Y-101278652D01*
X184570975Y-101278658D01*
X184696341Y-101404024D01*
X184696347Y-101404029D01*
X184696348Y-101404030D01*
X184847262Y-101497115D01*
X185015574Y-101552887D01*
X185119455Y-101563500D01*
X185720544Y-101563499D01*
X185824426Y-101552887D01*
X185992738Y-101497115D01*
X186143652Y-101404030D01*
X186269030Y-101278652D01*
X186269037Y-101278639D01*
X186271478Y-101275554D01*
X186273709Y-101273973D01*
X186274220Y-101273463D01*
X186274307Y-101273550D01*
X186329416Y-101234521D01*
X186400340Y-101231324D01*
X186461734Y-101266980D01*
X186469161Y-101275551D01*
X186471369Y-101278344D01*
X186596654Y-101403629D01*
X186596660Y-101403634D01*
X186747474Y-101496657D01*
X186915678Y-101552393D01*
X186915681Y-101552394D01*
X187019483Y-101562999D01*
X187019483Y-101563000D01*
X187066000Y-101563000D01*
X187066000Y-100584000D01*
X187574000Y-100584000D01*
X187574000Y-101563000D01*
X187620517Y-101563000D01*
X187620516Y-101562999D01*
X187724318Y-101552394D01*
X187724321Y-101552393D01*
X187892525Y-101496657D01*
X188043339Y-101403634D01*
X188043345Y-101403629D01*
X188168629Y-101278345D01*
X188168634Y-101278339D01*
X188261657Y-101127525D01*
X188317393Y-100959321D01*
X188317394Y-100959318D01*
X188327999Y-100855516D01*
X188328000Y-100855516D01*
X188328000Y-100584000D01*
X187574000Y-100584000D01*
X187066000Y-100584000D01*
X187066000Y-99097000D01*
X187574000Y-99097000D01*
X187574000Y-100076000D01*
X188328000Y-100076000D01*
X188328000Y-99804483D01*
X188317394Y-99700681D01*
X188317393Y-99700678D01*
X188261657Y-99532474D01*
X188168634Y-99381660D01*
X188168629Y-99381654D01*
X188043345Y-99256370D01*
X188043339Y-99256365D01*
X187892525Y-99163342D01*
X187724321Y-99107606D01*
X187724318Y-99107605D01*
X187620516Y-99097000D01*
X187574000Y-99097000D01*
X187066000Y-99097000D01*
X187019483Y-99097000D01*
X186915681Y-99107605D01*
X186915678Y-99107606D01*
X186747474Y-99163342D01*
X186596660Y-99256365D01*
X186596654Y-99256370D01*
X186471370Y-99381654D01*
X186469157Y-99384454D01*
X186467149Y-99385875D01*
X186466175Y-99386850D01*
X186466008Y-99386683D01*
X186411216Y-99425482D01*
X186340291Y-99428672D01*
X186278900Y-99393011D01*
X186271483Y-99384450D01*
X186269028Y-99381345D01*
X186143658Y-99255975D01*
X186143649Y-99255968D01*
X186115075Y-99238343D01*
X186067597Y-99185557D01*
X186057337Y-99127972D01*
X186055951Y-99128016D01*
X186053562Y-99052000D01*
X186053500Y-99048042D01*
X186053500Y-99020150D01*
X186053500Y-99020144D01*
X186052993Y-99016134D01*
X186052062Y-99004306D01*
X186050674Y-98960111D01*
X186045020Y-98940652D01*
X186041012Y-98921297D01*
X186038474Y-98901203D01*
X186022195Y-98860087D01*
X186018356Y-98848872D01*
X186006019Y-98806407D01*
X185995703Y-98788964D01*
X185987005Y-98771209D01*
X185979552Y-98752383D01*
X185953563Y-98716612D01*
X185947052Y-98706700D01*
X185924542Y-98668638D01*
X185910214Y-98654310D01*
X185897384Y-98639289D01*
X185885472Y-98622893D01*
X185885469Y-98622891D01*
X185885469Y-98622890D01*
X185877141Y-98616000D01*
X195867000Y-98616000D01*
X196596000Y-98616000D01*
X196596000Y-97962000D01*
X197104000Y-97962000D01*
X197104000Y-98616000D01*
X197832999Y-98616000D01*
X198661000Y-98616000D01*
X199390000Y-98616000D01*
X199390000Y-97962000D01*
X199898000Y-97962000D01*
X199898000Y-98616000D01*
X200626999Y-98616000D01*
X200626999Y-98612778D01*
X200620518Y-98541446D01*
X200569366Y-98377293D01*
X200480421Y-98230159D01*
X200480413Y-98230149D01*
X200358850Y-98108586D01*
X200358840Y-98108578D01*
X200211706Y-98019633D01*
X200047552Y-97968481D01*
X199976223Y-97962000D01*
X199898000Y-97962000D01*
X199390000Y-97962000D01*
X199390000Y-97961999D01*
X199311778Y-97962000D01*
X199240446Y-97968481D01*
X199076293Y-98019633D01*
X198929159Y-98108578D01*
X198929149Y-98108586D01*
X198807586Y-98230149D01*
X198807578Y-98230159D01*
X198718633Y-98377293D01*
X198667481Y-98541446D01*
X198667481Y-98541447D01*
X198661000Y-98612777D01*
X198661000Y-98616000D01*
X197832999Y-98616000D01*
X197832999Y-98612778D01*
X197826518Y-98541446D01*
X197775366Y-98377293D01*
X197686421Y-98230159D01*
X197686413Y-98230149D01*
X197564850Y-98108586D01*
X197564840Y-98108578D01*
X197417706Y-98019633D01*
X197253552Y-97968481D01*
X197182223Y-97962000D01*
X197104000Y-97962000D01*
X196596000Y-97962000D01*
X196596000Y-97961999D01*
X196517778Y-97962000D01*
X196446446Y-97968481D01*
X196282293Y-98019633D01*
X196135159Y-98108578D01*
X196135149Y-98108586D01*
X196013586Y-98230149D01*
X196013578Y-98230159D01*
X195924633Y-98377293D01*
X195873481Y-98541446D01*
X195873481Y-98541447D01*
X195867000Y-98612777D01*
X195867000Y-98616000D01*
X185877141Y-98616000D01*
X185851400Y-98594705D01*
X185842622Y-98586717D01*
X185732121Y-98476216D01*
X185698095Y-98413904D01*
X185695908Y-98400306D01*
X185678542Y-98235072D01*
X185619527Y-98053444D01*
X185524040Y-97888056D01*
X185524038Y-97888054D01*
X185524034Y-97888048D01*
X185396255Y-97746135D01*
X185241752Y-97633882D01*
X185067288Y-97556206D01*
X184880487Y-97516500D01*
X184689513Y-97516500D01*
X184502711Y-97556206D01*
X184328247Y-97633882D01*
X184173744Y-97746135D01*
X184045965Y-97888048D01*
X184045958Y-97888058D01*
X183950476Y-98053438D01*
X183950473Y-98053445D01*
X183891457Y-98235072D01*
X183871496Y-98425000D01*
X176173504Y-98425000D01*
X176153542Y-98235072D01*
X176094527Y-98053444D01*
X175999040Y-97888056D01*
X175925863Y-97806784D01*
X175895146Y-97742776D01*
X175893500Y-97722474D01*
X175893500Y-97048855D01*
X175895249Y-97033014D01*
X175894956Y-97032987D01*
X175895701Y-97025094D01*
X175895702Y-97025091D01*
X175893562Y-96957014D01*
X175893500Y-96953055D01*
X175893500Y-96925149D01*
X175893500Y-96925144D01*
X175892992Y-96921130D01*
X175892061Y-96909297D01*
X175890673Y-96865111D01*
X175885022Y-96845664D01*
X175881012Y-96826300D01*
X175878474Y-96806203D01*
X175862193Y-96765084D01*
X175858355Y-96753873D01*
X175846018Y-96711407D01*
X175835706Y-96693970D01*
X175827010Y-96676221D01*
X175819552Y-96657383D01*
X175793552Y-96621598D01*
X175787059Y-96611714D01*
X175764542Y-96573638D01*
X175764540Y-96573636D01*
X175764539Y-96573634D01*
X175760404Y-96569499D01*
X175726378Y-96507187D01*
X175723499Y-96480404D01*
X175723499Y-96187738D01*
X175717013Y-96116353D01*
X175717013Y-96116352D01*
X175665829Y-95952093D01*
X175665827Y-95952088D01*
X175665827Y-95952087D01*
X175576816Y-95804845D01*
X175576815Y-95804844D01*
X175576811Y-95804839D01*
X175455160Y-95683188D01*
X175455155Y-95683184D01*
X175403112Y-95651723D01*
X175307913Y-95594173D01*
X175307912Y-95594172D01*
X175307911Y-95594172D01*
X175307906Y-95594170D01*
X175143646Y-95542986D01*
X175091723Y-95538268D01*
X175072265Y-95536500D01*
X175072262Y-95536500D01*
X174557738Y-95536500D01*
X174486353Y-95542986D01*
X174486352Y-95542986D01*
X174322093Y-95594170D01*
X174322088Y-95594172D01*
X174174844Y-95683184D01*
X174174839Y-95683188D01*
X174079095Y-95778933D01*
X174016783Y-95812959D01*
X173945968Y-95807894D01*
X173900905Y-95778933D01*
X173805160Y-95683188D01*
X173805155Y-95683184D01*
X173753112Y-95651723D01*
X173657913Y-95594173D01*
X173657912Y-95594172D01*
X173657911Y-95594172D01*
X173657906Y-95594170D01*
X173493646Y-95542986D01*
X173441723Y-95538268D01*
X173422265Y-95536500D01*
X173422262Y-95536500D01*
X172907738Y-95536500D01*
X172836353Y-95542986D01*
X172836352Y-95542986D01*
X172672093Y-95594170D01*
X172672086Y-95594173D01*
X172594683Y-95640964D01*
X172526039Y-95659087D01*
X172458493Y-95637222D01*
X172413492Y-95582309D01*
X172403500Y-95533135D01*
X172403500Y-91208854D01*
X172405249Y-91193012D01*
X172404956Y-91192985D01*
X172405700Y-91185099D01*
X172405702Y-91185092D01*
X172403562Y-91117000D01*
X172403500Y-91113042D01*
X172403500Y-91085150D01*
X172403500Y-91085144D01*
X172402993Y-91081135D01*
X172402062Y-91069306D01*
X172401477Y-91050676D01*
X172400674Y-91025111D01*
X172395020Y-91005652D01*
X172391012Y-90986297D01*
X172388474Y-90966203D01*
X172372195Y-90925087D01*
X172368356Y-90913872D01*
X172356019Y-90871407D01*
X172345703Y-90853964D01*
X172337005Y-90836209D01*
X172329552Y-90817383D01*
X172303563Y-90781612D01*
X172297052Y-90771700D01*
X172274542Y-90733638D01*
X172260214Y-90719310D01*
X172247384Y-90704289D01*
X172235472Y-90687893D01*
X172235469Y-90687891D01*
X172235469Y-90687890D01*
X172201394Y-90659700D01*
X172192616Y-90651712D01*
X170687244Y-89146339D01*
X170677279Y-89133901D01*
X170677052Y-89134090D01*
X170672001Y-89127984D01*
X170672000Y-89127982D01*
X170622347Y-89081355D01*
X170619504Y-89078599D01*
X170599777Y-89058871D01*
X170599771Y-89058866D01*
X170596567Y-89056380D01*
X170587556Y-89048683D01*
X170555325Y-89018417D01*
X170555319Y-89018413D01*
X170537563Y-89008651D01*
X170521047Y-88997802D01*
X170505041Y-88985386D01*
X170464464Y-88967827D01*
X170453807Y-88962605D01*
X170415063Y-88941306D01*
X170415060Y-88941305D01*
X170395436Y-88936266D01*
X170376736Y-88929864D01*
X170358145Y-88921819D01*
X170358143Y-88921818D01*
X170358141Y-88921818D01*
X170314474Y-88914901D01*
X170302855Y-88912495D01*
X170260030Y-88901500D01*
X170239776Y-88901500D01*
X170220066Y-88899949D01*
X170200057Y-88896780D01*
X170156039Y-88900941D01*
X170144181Y-88901500D01*
X149990692Y-88901500D01*
X149922571Y-88881498D01*
X149883400Y-88841563D01*
X149812966Y-88727173D01*
X149811179Y-88724270D01*
X149658398Y-88550676D01*
X149478476Y-88405400D01*
X149276591Y-88292620D01*
X149276590Y-88292619D01*
X149276589Y-88292619D01*
X149058557Y-88215582D01*
X149007046Y-88206749D01*
X148830625Y-88176500D01*
X148407287Y-88176500D01*
X148407278Y-88176500D01*
X148407272Y-88176501D01*
X148234582Y-88191198D01*
X148234578Y-88191199D01*
X148010798Y-88249468D01*
X148010794Y-88249469D01*
X148010793Y-88249470D01*
X147955982Y-88274246D01*
X147800076Y-88344719D01*
X147800070Y-88344722D01*
X147608478Y-88474216D01*
X147608477Y-88474217D01*
X147441521Y-88634230D01*
X147304013Y-88820154D01*
X147199903Y-89026647D01*
X147183149Y-89081356D01*
X147132189Y-89247757D01*
X147103731Y-89469994D01*
X147102815Y-89477144D01*
X147112630Y-89708178D01*
X147161351Y-89934240D01*
X147247575Y-90148815D01*
X147247577Y-90148819D01*
X147309783Y-90249847D01*
X147368821Y-90345730D01*
X147371611Y-90348900D01*
X147521601Y-90519323D01*
X147690777Y-90655923D01*
X147701524Y-90664600D01*
X147722733Y-90676448D01*
X147772446Y-90727129D01*
X147786869Y-90796645D01*
X147761418Y-90862923D01*
X147731839Y-90890838D01*
X147608478Y-90974216D01*
X147608477Y-90974217D01*
X147441521Y-91134230D01*
X147304013Y-91320154D01*
X147199903Y-91526647D01*
X147132189Y-91747758D01*
X147102815Y-91977144D01*
X140200500Y-91977144D01*
X140200500Y-83820000D01*
X197841496Y-83820000D01*
X197861457Y-84009927D01*
X197891526Y-84102470D01*
X197920473Y-84191556D01*
X197920476Y-84191561D01*
X198015958Y-84356941D01*
X198015965Y-84356951D01*
X198143744Y-84498864D01*
X198143747Y-84498866D01*
X198298248Y-84611118D01*
X198472712Y-84688794D01*
X198659513Y-84728500D01*
X198850487Y-84728500D01*
X199037288Y-84688794D01*
X199211752Y-84611118D01*
X199366253Y-84498866D01*
X199494040Y-84356944D01*
X199589527Y-84191556D01*
X199648542Y-84009928D01*
X199665907Y-83844703D01*
X199692920Y-83779048D01*
X199702113Y-83768789D01*
X199780121Y-83690781D01*
X199842431Y-83656757D01*
X199913246Y-83661822D01*
X199970082Y-83704368D01*
X199976740Y-83713262D01*
X200093792Y-83800887D01*
X200093794Y-83800888D01*
X200093796Y-83800889D01*
X200102333Y-83804073D01*
X200230795Y-83851988D01*
X200230803Y-83851990D01*
X200291350Y-83858499D01*
X200291355Y-83858499D01*
X200291362Y-83858500D01*
X200291368Y-83858500D01*
X201588632Y-83858500D01*
X201588638Y-83858500D01*
X201588645Y-83858499D01*
X201588649Y-83858499D01*
X201649196Y-83851990D01*
X201649199Y-83851989D01*
X201649201Y-83851989D01*
X201786204Y-83800889D01*
X201829097Y-83768780D01*
X201903261Y-83713261D01*
X201990887Y-83596207D01*
X201990887Y-83596206D01*
X201990889Y-83596204D01*
X202041989Y-83459201D01*
X202042065Y-83458500D01*
X202048499Y-83398649D01*
X204631500Y-83398649D01*
X204638009Y-83459196D01*
X204638011Y-83459204D01*
X204689110Y-83596202D01*
X204689112Y-83596207D01*
X204776738Y-83713261D01*
X204893792Y-83800887D01*
X204893794Y-83800888D01*
X204893796Y-83800889D01*
X204902333Y-83804073D01*
X205030795Y-83851988D01*
X205030803Y-83851990D01*
X205091350Y-83858499D01*
X205091355Y-83858499D01*
X205091362Y-83858500D01*
X205091368Y-83858500D01*
X206388632Y-83858500D01*
X206388638Y-83858500D01*
X206388645Y-83858499D01*
X206388649Y-83858499D01*
X206449196Y-83851990D01*
X206449199Y-83851989D01*
X206449201Y-83851989D01*
X206586204Y-83800889D01*
X206629097Y-83768780D01*
X206703261Y-83713261D01*
X206790887Y-83596207D01*
X206790887Y-83596206D01*
X206790889Y-83596204D01*
X206841989Y-83459201D01*
X206842065Y-83458500D01*
X206848499Y-83398649D01*
X206848500Y-83398632D01*
X206848500Y-83341565D01*
X206868502Y-83273444D01*
X206922158Y-83226951D01*
X206992432Y-83216847D01*
X207048560Y-83239628D01*
X207188248Y-83341118D01*
X207362712Y-83418794D01*
X207549513Y-83458500D01*
X207740487Y-83458500D01*
X207927288Y-83418794D01*
X208101752Y-83341118D01*
X208256253Y-83228866D01*
X208297101Y-83183500D01*
X208384034Y-83086951D01*
X208384035Y-83086949D01*
X208384040Y-83086944D01*
X208479527Y-82921556D01*
X208538542Y-82739928D01*
X208558504Y-82550000D01*
X208538542Y-82360072D01*
X208479527Y-82178444D01*
X208384040Y-82013056D01*
X208384038Y-82013054D01*
X208384034Y-82013048D01*
X208256255Y-81871135D01*
X208101752Y-81758882D01*
X207927288Y-81681206D01*
X207740487Y-81641500D01*
X207549513Y-81641500D01*
X207362711Y-81681206D01*
X207188247Y-81758882D01*
X207048561Y-81860370D01*
X206981693Y-81884229D01*
X206912541Y-81868148D01*
X206863061Y-81817234D01*
X206848500Y-81758434D01*
X206848500Y-81701367D01*
X206848499Y-81701350D01*
X206841990Y-81640803D01*
X206841988Y-81640795D01*
X206790889Y-81503797D01*
X206790887Y-81503792D01*
X206703261Y-81386738D01*
X206586207Y-81299112D01*
X206586202Y-81299110D01*
X206449204Y-81248011D01*
X206449196Y-81248009D01*
X206388649Y-81241500D01*
X206388638Y-81241500D01*
X205091362Y-81241500D01*
X205091350Y-81241500D01*
X205030803Y-81248009D01*
X205030795Y-81248011D01*
X204893797Y-81299110D01*
X204893792Y-81299112D01*
X204776738Y-81386738D01*
X204689112Y-81503792D01*
X204689110Y-81503797D01*
X204638011Y-81640795D01*
X204638009Y-81640803D01*
X204631500Y-81701350D01*
X204631500Y-83398649D01*
X202048499Y-83398649D01*
X202048500Y-83398632D01*
X202048500Y-81701367D01*
X202048499Y-81701350D01*
X202041990Y-81640803D01*
X202041988Y-81640795D01*
X201990889Y-81503797D01*
X201990887Y-81503792D01*
X201903261Y-81386738D01*
X201786207Y-81299112D01*
X201786202Y-81299110D01*
X201649204Y-81248011D01*
X201649196Y-81248009D01*
X201588649Y-81241500D01*
X201588638Y-81241500D01*
X200291362Y-81241500D01*
X200291350Y-81241500D01*
X200230803Y-81248009D01*
X200230795Y-81248011D01*
X200093797Y-81299110D01*
X200093792Y-81299112D01*
X199976738Y-81386738D01*
X199889112Y-81503792D01*
X199889110Y-81503797D01*
X199838011Y-81640795D01*
X199838009Y-81640803D01*
X199831500Y-81701350D01*
X199831500Y-81856573D01*
X199811498Y-81924694D01*
X199769635Y-81965029D01*
X199753964Y-81974296D01*
X199736218Y-81982990D01*
X199717379Y-81990449D01*
X199681627Y-82016426D01*
X199671704Y-82022944D01*
X199633640Y-82045454D01*
X199619307Y-82059787D01*
X199604281Y-82072620D01*
X199587895Y-82084526D01*
X199559715Y-82118588D01*
X199551728Y-82127365D01*
X198804500Y-82874595D01*
X198742187Y-82908620D01*
X198715404Y-82911500D01*
X198659513Y-82911500D01*
X198472711Y-82951206D01*
X198298247Y-83028882D01*
X198143744Y-83141135D01*
X198015965Y-83283048D01*
X198015958Y-83283058D01*
X197949222Y-83398649D01*
X197920473Y-83448444D01*
X197916978Y-83459201D01*
X197861457Y-83630072D01*
X197841496Y-83820000D01*
X140200500Y-83820000D01*
X140200500Y-77412144D01*
X147077815Y-77412144D01*
X147087630Y-77643178D01*
X147136351Y-77869240D01*
X147222575Y-78083815D01*
X147222577Y-78083819D01*
X147343819Y-78280727D01*
X147343822Y-78280731D01*
X147496600Y-78454323D01*
X147516367Y-78470283D01*
X147524133Y-78476554D01*
X147524436Y-78476798D01*
X147564871Y-78535155D01*
X147567337Y-78606109D01*
X147531051Y-78667132D01*
X147511428Y-78682072D01*
X147366660Y-78771365D01*
X147366654Y-78771370D01*
X147241370Y-78896654D01*
X147241365Y-78896660D01*
X147148342Y-79047474D01*
X147092606Y-79215678D01*
X147092605Y-79215681D01*
X147082000Y-79319483D01*
X147082000Y-79716000D01*
X148158884Y-79716000D01*
X148130507Y-79760156D01*
X148090000Y-79898111D01*
X148090000Y-80041889D01*
X148130507Y-80179844D01*
X148158884Y-80224000D01*
X147082000Y-80224000D01*
X147082000Y-80620516D01*
X147092605Y-80724318D01*
X147092606Y-80724321D01*
X147148342Y-80892525D01*
X147241365Y-81043339D01*
X147241370Y-81043345D01*
X147366654Y-81168629D01*
X147366660Y-81168634D01*
X147517474Y-81261657D01*
X147685678Y-81317393D01*
X147685681Y-81317394D01*
X147789483Y-81327999D01*
X147789483Y-81328000D01*
X148336000Y-81328000D01*
X148336000Y-80403674D01*
X148447685Y-80454680D01*
X148554237Y-80470000D01*
X148625763Y-80470000D01*
X148732315Y-80454680D01*
X148844000Y-80403674D01*
X148844000Y-81328000D01*
X149390517Y-81328000D01*
X149390516Y-81327999D01*
X149494318Y-81317394D01*
X149494321Y-81317393D01*
X149662525Y-81261657D01*
X149813339Y-81168634D01*
X149813345Y-81168629D01*
X149938629Y-81043345D01*
X149938634Y-81043339D01*
X150031657Y-80892525D01*
X150087393Y-80724321D01*
X150087394Y-80724318D01*
X150097999Y-80620516D01*
X150098000Y-80620516D01*
X150098000Y-80224000D01*
X149021116Y-80224000D01*
X149049493Y-80179844D01*
X149090000Y-80041889D01*
X149090000Y-79898111D01*
X149049493Y-79760156D01*
X149021116Y-79716000D01*
X150098000Y-79716000D01*
X150098000Y-79319483D01*
X150087394Y-79215681D01*
X150087393Y-79215678D01*
X150031657Y-79047474D01*
X149938634Y-78896660D01*
X149938629Y-78896654D01*
X149813345Y-78771370D01*
X149813339Y-78771365D01*
X149667319Y-78681299D01*
X149619841Y-78628513D01*
X149608438Y-78558438D01*
X149636731Y-78493322D01*
X149646264Y-78483110D01*
X149763476Y-78370772D01*
X149900985Y-78184847D01*
X149941243Y-78105000D01*
X199746496Y-78105000D01*
X199766457Y-78294927D01*
X199791100Y-78370768D01*
X199825473Y-78476556D01*
X199825476Y-78476561D01*
X199920958Y-78641941D01*
X199920965Y-78641951D01*
X200048744Y-78783864D01*
X200048747Y-78783866D01*
X200203248Y-78896118D01*
X200377712Y-78973794D01*
X200564513Y-79013500D01*
X200755487Y-79013500D01*
X200942288Y-78973794D01*
X201116752Y-78896118D01*
X201271253Y-78783866D01*
X201271255Y-78783864D01*
X201399034Y-78641951D01*
X201399035Y-78641949D01*
X201399040Y-78641944D01*
X201494527Y-78476556D01*
X201553542Y-78294928D01*
X201573504Y-78105000D01*
X201560959Y-77985644D01*
X201564227Y-77941141D01*
X201573500Y-77905030D01*
X201573500Y-77884775D01*
X201575051Y-77865063D01*
X201578220Y-77845057D01*
X201574059Y-77801036D01*
X201573500Y-77789179D01*
X201573500Y-76347707D01*
X201593502Y-76279586D01*
X201647158Y-76233093D01*
X201655445Y-76229659D01*
X201786204Y-76180889D01*
X201903261Y-76093261D01*
X201990889Y-75976204D01*
X202041989Y-75839201D01*
X202042065Y-75838500D01*
X202048499Y-75778649D01*
X204631500Y-75778649D01*
X204638009Y-75839196D01*
X204638011Y-75839204D01*
X204689110Y-75976202D01*
X204689112Y-75976207D01*
X204776738Y-76093261D01*
X204893792Y-76180887D01*
X204893794Y-76180888D01*
X204893796Y-76180889D01*
X204952875Y-76202924D01*
X205030795Y-76231988D01*
X205030803Y-76231990D01*
X205091350Y-76238499D01*
X205091355Y-76238499D01*
X205091362Y-76238500D01*
X205091368Y-76238500D01*
X206388632Y-76238500D01*
X206388638Y-76238500D01*
X206388645Y-76238499D01*
X206388649Y-76238499D01*
X206449196Y-76231990D01*
X206449199Y-76231989D01*
X206449201Y-76231989D01*
X206455470Y-76229651D01*
X206468045Y-76224960D01*
X206586204Y-76180889D01*
X206626690Y-76150582D01*
X206703261Y-76093261D01*
X206790887Y-75976207D01*
X206790887Y-75976206D01*
X206790889Y-75976204D01*
X206841989Y-75839201D01*
X206842065Y-75838500D01*
X206848499Y-75778649D01*
X206848500Y-75778632D01*
X206848500Y-75721565D01*
X206868502Y-75653444D01*
X206922158Y-75606951D01*
X206992432Y-75596847D01*
X207048560Y-75619628D01*
X207188248Y-75721118D01*
X207362712Y-75798794D01*
X207549513Y-75838500D01*
X207740487Y-75838500D01*
X207927288Y-75798794D01*
X208101752Y-75721118D01*
X208256253Y-75608866D01*
X208384040Y-75466944D01*
X208479527Y-75301556D01*
X208538542Y-75119928D01*
X208558504Y-74930000D01*
X208538542Y-74740072D01*
X208479527Y-74558444D01*
X208384040Y-74393056D01*
X208384038Y-74393054D01*
X208384034Y-74393048D01*
X208256255Y-74251135D01*
X208101752Y-74138882D01*
X207927288Y-74061206D01*
X207740487Y-74021500D01*
X207549513Y-74021500D01*
X207362711Y-74061206D01*
X207188247Y-74138882D01*
X207048561Y-74240370D01*
X206981693Y-74264229D01*
X206912541Y-74248148D01*
X206863061Y-74197234D01*
X206848500Y-74138434D01*
X206848500Y-74081367D01*
X206848499Y-74081350D01*
X206841990Y-74020803D01*
X206841988Y-74020795D01*
X206790889Y-73883797D01*
X206790887Y-73883792D01*
X206703261Y-73766738D01*
X206586207Y-73679112D01*
X206586202Y-73679110D01*
X206449204Y-73628011D01*
X206449196Y-73628009D01*
X206388649Y-73621500D01*
X206388638Y-73621500D01*
X205091362Y-73621500D01*
X205091350Y-73621500D01*
X205030803Y-73628009D01*
X205030795Y-73628011D01*
X204893797Y-73679110D01*
X204893792Y-73679112D01*
X204776738Y-73766738D01*
X204689112Y-73883792D01*
X204689110Y-73883797D01*
X204638011Y-74020795D01*
X204638009Y-74020803D01*
X204631500Y-74081350D01*
X204631500Y-75778649D01*
X202048499Y-75778649D01*
X202048500Y-75778632D01*
X202048500Y-74081367D01*
X202048499Y-74081350D01*
X202041990Y-74020803D01*
X202041988Y-74020795D01*
X201990889Y-73883797D01*
X201990887Y-73883792D01*
X201903261Y-73766738D01*
X201786207Y-73679112D01*
X201786202Y-73679110D01*
X201649204Y-73628011D01*
X201649196Y-73628009D01*
X201588649Y-73621500D01*
X201588638Y-73621500D01*
X200291362Y-73621500D01*
X200291350Y-73621500D01*
X200230803Y-73628009D01*
X200230795Y-73628011D01*
X200093797Y-73679110D01*
X200093792Y-73679112D01*
X199976738Y-73766738D01*
X199889112Y-73883792D01*
X199889110Y-73883797D01*
X199838011Y-74020795D01*
X199838009Y-74020803D01*
X199831500Y-74081350D01*
X199831500Y-75778649D01*
X199838009Y-75839196D01*
X199838011Y-75839204D01*
X199889110Y-75976202D01*
X199889112Y-75976207D01*
X199976738Y-76093261D01*
X200093791Y-76180886D01*
X200093792Y-76180886D01*
X200093796Y-76180889D01*
X200224535Y-76229652D01*
X200281368Y-76272198D01*
X200306179Y-76338719D01*
X200306500Y-76347707D01*
X200306500Y-77186085D01*
X200286498Y-77254206D01*
X200232842Y-77300699D01*
X200231750Y-77301191D01*
X200203254Y-77313878D01*
X200203248Y-77313882D01*
X200048744Y-77426135D01*
X199920965Y-77568048D01*
X199920958Y-77568058D01*
X199825476Y-77733438D01*
X199825473Y-77733445D01*
X199766457Y-77915072D01*
X199746496Y-78105000D01*
X149941243Y-78105000D01*
X150005095Y-77978357D01*
X150072811Y-77757243D01*
X150102184Y-77527865D01*
X150097862Y-77426135D01*
X150092369Y-77296821D01*
X150043648Y-77070759D01*
X149999803Y-76961647D01*
X149957426Y-76856187D01*
X149836179Y-76659270D01*
X149683398Y-76485676D01*
X149503476Y-76340400D01*
X149301591Y-76227620D01*
X149301590Y-76227619D01*
X149301589Y-76227619D01*
X149083557Y-76150582D01*
X149032046Y-76141749D01*
X148855625Y-76111500D01*
X148382287Y-76111500D01*
X148382278Y-76111500D01*
X148382272Y-76111501D01*
X148209582Y-76126198D01*
X148209578Y-76126199D01*
X147985798Y-76184468D01*
X147985794Y-76184469D01*
X147985793Y-76184470D01*
X147930982Y-76209246D01*
X147775076Y-76279719D01*
X147775070Y-76279722D01*
X147583478Y-76409216D01*
X147583477Y-76409217D01*
X147416521Y-76569230D01*
X147279013Y-76755154D01*
X147174903Y-76961647D01*
X147141488Y-77070759D01*
X147107189Y-77182757D01*
X147092583Y-77296822D01*
X147077815Y-77412144D01*
X140200500Y-77412144D01*
X140200500Y-67310000D01*
X142154341Y-67310000D01*
X142174937Y-67545411D01*
X142236096Y-67773661D01*
X142236098Y-67773665D01*
X142335966Y-67987832D01*
X142471498Y-68181392D01*
X142471502Y-68181397D01*
X142471505Y-68181401D01*
X142638599Y-68348495D01*
X142638603Y-68348498D01*
X142638607Y-68348501D01*
X142832167Y-68484033D01*
X142832166Y-68484033D01*
X142908304Y-68519537D01*
X143046337Y-68583903D01*
X143274592Y-68645063D01*
X143451034Y-68660500D01*
X143451041Y-68660500D01*
X143568959Y-68660500D01*
X143568966Y-68660500D01*
X143745408Y-68645063D01*
X143973663Y-68583903D01*
X144187829Y-68484035D01*
X144381401Y-68348495D01*
X144548495Y-68181401D01*
X144684035Y-67987830D01*
X144783903Y-67773663D01*
X144845063Y-67545408D01*
X144865659Y-67310000D01*
X204384341Y-67310000D01*
X204404937Y-67545411D01*
X204466096Y-67773661D01*
X204466098Y-67773665D01*
X204565966Y-67987832D01*
X204701498Y-68181392D01*
X204701502Y-68181397D01*
X204701505Y-68181401D01*
X204868599Y-68348495D01*
X204868603Y-68348498D01*
X204868607Y-68348501D01*
X205062167Y-68484033D01*
X205062166Y-68484033D01*
X205138304Y-68519537D01*
X205276337Y-68583903D01*
X205504592Y-68645063D01*
X205681034Y-68660500D01*
X205681041Y-68660500D01*
X205798959Y-68660500D01*
X205798966Y-68660500D01*
X205975408Y-68645063D01*
X206203663Y-68583903D01*
X206417829Y-68484035D01*
X206611401Y-68348495D01*
X206778495Y-68181401D01*
X206914035Y-67987830D01*
X207013903Y-67773663D01*
X207075063Y-67545408D01*
X207095659Y-67310000D01*
X207075063Y-67074592D01*
X207013903Y-66846337D01*
X206914035Y-66632171D01*
X206914034Y-66632169D01*
X206914033Y-66632167D01*
X206778501Y-66438607D01*
X206778497Y-66438602D01*
X206778495Y-66438599D01*
X206611401Y-66271505D01*
X206611397Y-66271502D01*
X206611392Y-66271498D01*
X206417832Y-66135966D01*
X206417833Y-66135966D01*
X206203665Y-66036098D01*
X206203661Y-66036096D01*
X205975411Y-65974937D01*
X205922475Y-65970305D01*
X205798966Y-65959500D01*
X205681034Y-65959500D01*
X205568752Y-65969323D01*
X205504588Y-65974937D01*
X205276338Y-66036096D01*
X205276334Y-66036098D01*
X205062167Y-66135966D01*
X204868607Y-66271498D01*
X204868596Y-66271507D01*
X204701507Y-66438596D01*
X204701502Y-66438602D01*
X204565965Y-66632169D01*
X204466098Y-66846334D01*
X204466096Y-66846338D01*
X204404937Y-67074588D01*
X204384341Y-67310000D01*
X144865659Y-67310000D01*
X144845063Y-67074592D01*
X144783903Y-66846337D01*
X144684035Y-66632171D01*
X144684034Y-66632169D01*
X144684033Y-66632167D01*
X144548501Y-66438607D01*
X144548497Y-66438602D01*
X144548495Y-66438599D01*
X144381401Y-66271505D01*
X144381397Y-66271502D01*
X144381392Y-66271498D01*
X144187832Y-66135966D01*
X144187833Y-66135966D01*
X143973665Y-66036098D01*
X143973661Y-66036096D01*
X143745411Y-65974937D01*
X143692475Y-65970305D01*
X143568966Y-65959500D01*
X143451034Y-65959500D01*
X143338752Y-65969323D01*
X143274588Y-65974937D01*
X143046338Y-66036096D01*
X143046334Y-66036098D01*
X142832167Y-66135966D01*
X142638607Y-66271498D01*
X142638596Y-66271507D01*
X142471507Y-66438596D01*
X142471502Y-66438602D01*
X142335965Y-66632169D01*
X142236098Y-66846334D01*
X142236096Y-66846338D01*
X142174937Y-67074588D01*
X142154341Y-67310000D01*
X140200500Y-67310000D01*
X140200500Y-66044121D01*
X140200770Y-66035881D01*
X140205776Y-65959500D01*
X140217408Y-65782021D01*
X140219556Y-65765707D01*
X140268385Y-65520227D01*
X140272645Y-65504326D01*
X140353097Y-65267325D01*
X140359393Y-65252124D01*
X140470095Y-65027641D01*
X140478319Y-65013398D01*
X140617374Y-64805287D01*
X140627388Y-64792236D01*
X140792423Y-64604050D01*
X140804050Y-64592423D01*
X140992236Y-64427388D01*
X141005287Y-64417374D01*
X141213398Y-64278319D01*
X141227641Y-64270095D01*
X141452124Y-64159393D01*
X141467325Y-64153097D01*
X141704326Y-64072645D01*
X141720227Y-64068385D01*
X141965707Y-64019556D01*
X141982021Y-64017408D01*
X142208834Y-64002542D01*
X142235882Y-64000770D01*
X142244122Y-64000500D01*
X142305892Y-64000500D01*
X206944108Y-64000500D01*
X207005878Y-64000500D01*
X207014118Y-64000770D01*
G37*
%TD.AperFunction*%
%TD*%
M02*
