%TF.GenerationSoftware,KiCad,Pcbnew,9.0.3*%
%TF.CreationDate,2026-01-18T14:54:31+02:00*%
%TF.ProjectId,velux-controller,76656c75-782d-4636-9f6e-74726f6c6c65,rev?*%
%TF.SameCoordinates,Original*%
%TF.FileFunction,Legend,Bot*%
%TF.FilePolarity,Positive*%
%FSLAX46Y46*%
G04 Gerber Fmt 4.6, Leading zero omitted, Abs format (unit mm)*
G04 Created by KiCad (PCBNEW 9.0.3) date 2026-01-18 14:54:31*
%MOMM*%
%LPD*%
G01*
G04 APERTURE LIST*
G04 Aperture macros list*
%AMRoundRect*
0 Rectangle with rounded corners*
0 $1 Rounding radius*
0 $2 $3 $4 $5 $6 $7 $8 $9 X,Y pos of 4 corners*
0 Add a 4 corners polygon primitive as box body*
4,1,4,$2,$3,$4,$5,$6,$7,$8,$9,$2,$3,0*
0 Add four circle primitives for the rounded corners*
1,1,$1+$1,$2,$3*
1,1,$1+$1,$4,$5*
1,1,$1+$1,$6,$7*
1,1,$1+$1,$8,$9*
0 Add four rect primitives between the rounded corners*
20,1,$1+$1,$2,$3,$4,$5,0*
20,1,$1+$1,$4,$5,$6,$7,0*
20,1,$1+$1,$6,$7,$8,$9,0*
20,1,$1+$1,$8,$9,$2,$3,0*%
G04 Aperture macros list end*
%ADD10C,0.150000*%
%ADD11C,2.200000*%
%ADD12RoundRect,0.250000X0.725000X-0.600000X0.725000X0.600000X-0.725000X0.600000X-0.725000X-0.600000X0*%
%ADD13O,1.950000X1.700000*%
%ADD14R,1.200000X1.200000*%
%ADD15C,1.200000*%
%ADD16R,1.600000X1.600000*%
%ADD17C,1.600000*%
%ADD18R,4.500000X3.000000*%
%ADD19RoundRect,0.750000X1.000000X-0.750000X1.000000X0.750000X-1.000000X0.750000X-1.000000X-0.750000X0*%
%ADD20RoundRect,0.750000X0.750000X-1.000000X0.750000X1.000000X-0.750000X1.000000X-0.750000X-1.000000X0*%
%ADD21RoundRect,0.250000X0.750000X-0.600000X0.750000X0.600000X-0.750000X0.600000X-0.750000X-0.600000X0*%
%ADD22O,2.000000X1.700000*%
%ADD23R,1.700000X1.700000*%
%ADD24O,1.700000X1.700000*%
G04 APERTURE END LIST*
D10*
X176704048Y-64859819D02*
X176704048Y-65574104D01*
X176704048Y-65574104D02*
X176751667Y-65716961D01*
X176751667Y-65716961D02*
X176846905Y-65812200D01*
X176846905Y-65812200D02*
X176989762Y-65859819D01*
X176989762Y-65859819D02*
X177085000Y-65859819D01*
X175751667Y-65859819D02*
X176227857Y-65859819D01*
X176227857Y-65859819D02*
X176227857Y-64859819D01*
X174846905Y-65764580D02*
X174894524Y-65812200D01*
X174894524Y-65812200D02*
X175037381Y-65859819D01*
X175037381Y-65859819D02*
X175132619Y-65859819D01*
X175132619Y-65859819D02*
X175275476Y-65812200D01*
X175275476Y-65812200D02*
X175370714Y-65716961D01*
X175370714Y-65716961D02*
X175418333Y-65621723D01*
X175418333Y-65621723D02*
X175465952Y-65431247D01*
X175465952Y-65431247D02*
X175465952Y-65288390D01*
X175465952Y-65288390D02*
X175418333Y-65097914D01*
X175418333Y-65097914D02*
X175370714Y-65002676D01*
X175370714Y-65002676D02*
X175275476Y-64907438D01*
X175275476Y-64907438D02*
X175132619Y-64859819D01*
X175132619Y-64859819D02*
X175037381Y-64859819D01*
X175037381Y-64859819D02*
X174894524Y-64907438D01*
X174894524Y-64907438D02*
X174846905Y-64955057D01*
X174132619Y-64859819D02*
X174132619Y-65574104D01*
X174132619Y-65574104D02*
X174180238Y-65716961D01*
X174180238Y-65716961D02*
X174275476Y-65812200D01*
X174275476Y-65812200D02*
X174418333Y-65859819D01*
X174418333Y-65859819D02*
X174513571Y-65859819D01*
X173180238Y-65859819D02*
X173656428Y-65859819D01*
X173656428Y-65859819D02*
X173656428Y-64859819D01*
X172275476Y-65764580D02*
X172323095Y-65812200D01*
X172323095Y-65812200D02*
X172465952Y-65859819D01*
X172465952Y-65859819D02*
X172561190Y-65859819D01*
X172561190Y-65859819D02*
X172704047Y-65812200D01*
X172704047Y-65812200D02*
X172799285Y-65716961D01*
X172799285Y-65716961D02*
X172846904Y-65621723D01*
X172846904Y-65621723D02*
X172894523Y-65431247D01*
X172894523Y-65431247D02*
X172894523Y-65288390D01*
X172894523Y-65288390D02*
X172846904Y-65097914D01*
X172846904Y-65097914D02*
X172799285Y-65002676D01*
X172799285Y-65002676D02*
X172704047Y-64907438D01*
X172704047Y-64907438D02*
X172561190Y-64859819D01*
X172561190Y-64859819D02*
X172465952Y-64859819D01*
X172465952Y-64859819D02*
X172323095Y-64907438D01*
X172323095Y-64907438D02*
X172275476Y-64955057D01*
X171561190Y-64859819D02*
X171561190Y-65574104D01*
X171561190Y-65574104D02*
X171608809Y-65716961D01*
X171608809Y-65716961D02*
X171704047Y-65812200D01*
X171704047Y-65812200D02*
X171846904Y-65859819D01*
X171846904Y-65859819D02*
X171942142Y-65859819D01*
X170608809Y-65859819D02*
X171084999Y-65859819D01*
X171084999Y-65859819D02*
X171084999Y-64859819D01*
X169704047Y-65764580D02*
X169751666Y-65812200D01*
X169751666Y-65812200D02*
X169894523Y-65859819D01*
X169894523Y-65859819D02*
X169989761Y-65859819D01*
X169989761Y-65859819D02*
X170132618Y-65812200D01*
X170132618Y-65812200D02*
X170227856Y-65716961D01*
X170227856Y-65716961D02*
X170275475Y-65621723D01*
X170275475Y-65621723D02*
X170323094Y-65431247D01*
X170323094Y-65431247D02*
X170323094Y-65288390D01*
X170323094Y-65288390D02*
X170275475Y-65097914D01*
X170275475Y-65097914D02*
X170227856Y-65002676D01*
X170227856Y-65002676D02*
X170132618Y-64907438D01*
X170132618Y-64907438D02*
X169989761Y-64859819D01*
X169989761Y-64859819D02*
X169894523Y-64859819D01*
X169894523Y-64859819D02*
X169751666Y-64907438D01*
X169751666Y-64907438D02*
X169704047Y-64955057D01*
X168989761Y-64859819D02*
X168989761Y-65574104D01*
X168989761Y-65574104D02*
X169037380Y-65716961D01*
X169037380Y-65716961D02*
X169132618Y-65812200D01*
X169132618Y-65812200D02*
X169275475Y-65859819D01*
X169275475Y-65859819D02*
X169370713Y-65859819D01*
X168037380Y-65859819D02*
X168513570Y-65859819D01*
X168513570Y-65859819D02*
X168513570Y-64859819D01*
X167132618Y-65764580D02*
X167180237Y-65812200D01*
X167180237Y-65812200D02*
X167323094Y-65859819D01*
X167323094Y-65859819D02*
X167418332Y-65859819D01*
X167418332Y-65859819D02*
X167561189Y-65812200D01*
X167561189Y-65812200D02*
X167656427Y-65716961D01*
X167656427Y-65716961D02*
X167704046Y-65621723D01*
X167704046Y-65621723D02*
X167751665Y-65431247D01*
X167751665Y-65431247D02*
X167751665Y-65288390D01*
X167751665Y-65288390D02*
X167704046Y-65097914D01*
X167704046Y-65097914D02*
X167656427Y-65002676D01*
X167656427Y-65002676D02*
X167561189Y-64907438D01*
X167561189Y-64907438D02*
X167418332Y-64859819D01*
X167418332Y-64859819D02*
X167323094Y-64859819D01*
X167323094Y-64859819D02*
X167180237Y-64907438D01*
X167180237Y-64907438D02*
X167132618Y-64955057D01*
%LPC*%
D11*
%TO.C,H1*%
X198120000Y-129540000D03*
%TD*%
D12*
%TO.C,J3*%
X148590000Y-94535000D03*
D13*
X148590000Y-92035000D03*
X148590000Y-89535000D03*
%TD*%
D14*
%TO.C,C4*%
X162560000Y-122555000D03*
D15*
X164060000Y-122555000D03*
%TD*%
D11*
%TO.C,H4*%
X205740000Y-67310000D03*
%TD*%
D16*
%TO.C,C3*%
X144685000Y-103505000D03*
D17*
X146685000Y-103505000D03*
%TD*%
D18*
%TO.C,J4*%
X154305000Y-125095000D03*
D19*
X154305000Y-131095000D03*
D20*
X159105000Y-127595000D03*
%TD*%
D11*
%TO.C,H3*%
X143510000Y-67310000D03*
%TD*%
D21*
%TO.C,J2*%
X148590000Y-79970000D03*
D22*
X148590000Y-77470000D03*
%TD*%
D11*
%TO.C,H2*%
X143510000Y-129540000D03*
%TD*%
D23*
%TO.C,J1*%
X177165000Y-128905000D03*
D24*
X174625000Y-128905000D03*
X172085000Y-128905000D03*
X169545000Y-128905000D03*
%TD*%
%LPD*%
M02*
