M48
; DRILL file {KiCad 9.0.3} date 2026-01-18T14:54:31+0200
; FORMAT={-:-/ absolute / inch / decimal}
; #@! TF.CreationDate,2026-01-18T14:54:31+02:00
; #@! TF.GenerationSoftware,Kicad,Pcbnew,9.0.3
; #@! TF.FileFunction,Plated,1,2,PTH
FMAT,2
INCH
; #@! TA.AperFunction,Plated,PTH,ViaDrill
T1C0.0157
; #@! TA.AperFunction,Plated,PTH,ComponentDrill
T2C0.0236
; #@! TA.AperFunction,Plated,PTH,ComponentDrill
T3C0.0315
; #@! TA.AperFunction,Plated,PTH,ComponentDrill
T4C0.0374
; #@! TA.AperFunction,Plated,PTH,ComponentDrill
T5C0.0394
%
G90
G05
T1
X5.975Y-4.225
X6.35Y-4.125
X6.45Y-3.875
X6.575Y-4.125
X6.575Y-4.575
X6.675Y-3.875
X6.8Y-4.125
X6.8588Y-4.425
X6.9Y-3.875
X7.05Y-4.175
X7.1088Y-4.35
X7.15Y-4.075
X7.25Y-4.75
X7.25Y-4.8
X7.275Y-3.875
X7.3Y-4.75
X7.35Y-5.075
X7.425Y-4.275
X7.5Y-4.075
X7.575Y-4.0
X7.6Y-4.3
X7.65Y-3.925
X7.65Y-4.425
X7.675Y-4.35
X7.775Y-4.85
X7.825Y-3.3
X7.825Y-4.9
X7.9Y-3.075
X7.9Y-4.025
X8.175Y-2.95
X8.175Y-3.25
T2
X6.4Y-4.825
X6.4591Y-4.825
T3
X5.6963Y-4.075
X5.775Y-4.075
T4
X5.85Y-3.525
X5.85Y-3.6234
X5.85Y-3.7219
T5
X5.85Y-3.05
X5.85Y-3.1484
X6.675Y-5.075
X6.775Y-5.075
X6.875Y-5.075
X6.975Y-5.075
T3
G00X6.0159Y-4.925
M15
G01X6.1341Y-4.925
M16
G05
G00X6.0356Y-5.1612
M15
G01X6.1144Y-5.1612
M16
G05
G00X6.264Y-5.0628
M15
G01X6.264Y-4.9841
M16
G05
M30
